<svg xmlns="http://www.w3.org/2000/svg" width="100" height="100"><circle cx="100" cy="58" r="14" fill="#5deb4e" /><circle cx="35" cy="80" r="7" fill="#cbaaa4" /><circle cx="67" cy="6" r="17" fill="#b3d505" /><circle cx="79" cy="16" r="16" fill="#300623" /><circle cx="36" cy="97" r="13" fill="#9acfb0" /><circle cx="13" cy="24" r="19" fill="#82510e" /><circle cx="17" cy="48" r="15" fill="#b34bb6" /><circle cx="87" cy="0" r="18" fill="#e7075b" /><circle cx="32" cy="43" r="16" fill="#aaac7e" /><circle cx="83" cy="22" r="17" fill="#9c2d1c" /><circle cx="25" cy="48" r="10" fill="#0fc606" /><circle cx="91" cy="58" r="6" fill="#7c913e" /><circle cx="36" cy="24" r="5" fill="#2663d2" /><circle cx="64" cy="28" r="7" fill="#cdef1b" /><circle cx="67" cy="28" r="16" fill="#2edd0e" /><circle cx="61" cy="26" r="18" fill="#710c57" /><circle cx="27" cy="24" r="17" fill="#28d4b6" /><circle cx="2" cy="1" r="12" fill="#f49784" /><circle cx="66" cy="97" r="9" fill="#917e8e" /><circle cx="26" cy="30" r="20" fill="#bdcecf" /><circle cx="11" cy="73" r="19" fill="#1bc0e6" /><circle cx="99" cy="96" r="20" fill="#09d704" /><circle cx="40" cy="87" r="15" fill="#bfce70" /><circle cx="1" cy="62" r="14" fill="#2683b6" /><circle cx="16" cy="62" r="10" fill="#9c4a48" /><circle cx="38" cy="38" r="17" fill="#5a871c" /><circle cx="0" cy="59" r="9" fill="#f94595" /><circle cx="58" cy="18" r="19" fill="#217edb" /><circle cx="9" cy="69" r="11" fill="#d9525d" /><circle cx="19" cy="75" r="14" fill="#b90fab" /><circle cx="9" cy="20" r="7" fill="#c77691" /><circle cx="14" cy="62" r="5" fill="#edc51b" /><circle cx="47" cy="66" r="6" fill="#df7468" /><circle cx="53" cy="60" r="8" fill="#f3a7ee" /><circle cx="52" cy="96" r="14" fill="#c54a57" /><circle cx="17" cy="15" r="20" fill="#bdf1f3" /><circle cx="72" cy="7" r="16" fill="#5599f1" /><circle cx="49" cy="72" r="15" fill="#8cd570" /><circle cx="18" cy="78" r="13" fill="#360252" /><circle cx="79" cy="70" r="20" fill="#1b13d2" /><circle cx="86" cy="55" r="5" fill="#f3df16" /><circle cx="39" cy="23" r="12" fill="#4e9198" /><circle cx="13" cy="22" r="19" fill="#7b1672" /><circle cx="92" cy="34" r="19" fill="#ba9512" /><circle cx="89" cy="42" r="10" fill="#39d408" /><circle cx="81" cy="53" r="5" fill="#c58bb3" /><circle cx="100" cy="60" r="11" fill="#aa36a8" /><circle cx="83" cy="27" r="8" fill="#40828d" /><circle cx="74" cy="67" r="17" fill="#0dc81d" /><circle cx="9" cy="44" r="13" fill="#50ca7e" /><circle cx="24" cy="83" r="15" fill="#c69247" /><circle cx="3" cy="67" r="15" fill="#e897a5" /><circle cx="55" cy="82" r="9" fill="#a6b13e" /><circle cx="76" cy="78" r="9" fill="#a936e7" /><circle cx="37" cy="33" r="5" fill="#2e58f3" /><circle cx="60" cy="67" r="14" fill="#113c49" /><circle cx="34" cy="6" r="5" fill="#2196bf" /><circle cx="93" cy="8" r="17" fill="#5fe304" /><circle cx="83" cy="96" r="7" fill="#b9b81b" /><circle cx="71" cy="11" r="18" fill="#7d8420" /><circle cx="14" cy="65" r="17" fill="#1bc580" /><circle cx="86" cy="78" r="17" fill="#66e735" /><circle cx="30" cy="22" r="10" fill="#4af475" /><circle cx="76" cy="67" r="18" fill="#28007c" /><circle cx="7" cy="3" r="12" fill="#d8c49f" /><circle cx="70" cy="64" r="11" fill="#b2cef9" /><circle cx="9" cy="93" r="16" fill="#7420e6" /><circle cx="5" cy="85" r="20" fill="#c88ffa" /><circle cx="31" cy="49" r="17" fill="#94cfff" /><circle cx="68" cy="84" r="14" fill="#446ffe" /><circle cx="52" cy="20" r="9" fill="#7b540a" /><circle cx="56" cy="44" r="14" fill="#f6f0d3" /><circle cx="34" cy="75" r="13" fill="#22ee51" /><circle cx="64" cy="7" r="11" fill="#7e9383" /><circle cx="27" cy="16" r="9" fill="#817899" /><circle cx="98" cy="77" r="6" fill="#1d4f5f" /><circle cx="89" cy="79" r="19" fill="#1e8c6e" /><circle cx="67" cy="22" r="16" fill="#f4fb14" /><circle cx="34" cy="91" r="15" fill="#e93a2e" /><circle cx="5" cy="75" r="11" fill="#6ab4e7" /><circle cx="59" cy="72" r="12" fill="#c4ba03" /><circle cx="49" cy="61" r="5" fill="#e70a2a" /><circle cx="61" cy="77" r="19" fill="#76b883" /><circle cx="74" cy="84" r="16" fill="#40ba3b" /><circle cx="18" cy="21" r="9" fill="#6d2d82" /><circle cx="13" cy="87" r="17" fill="#6819aa" /><circle cx="65" cy="60" r="19" fill="#3a68b3" /><circle cx="66" cy="45" r="7" fill="#cbad5c" /><circle cx="17" cy="37" r="19" fill="#61b2b0" /><circle cx="67" cy="72" r="9" fill="#a8f053" /><circle cx="3" cy="5" r="18" fill="#c09362" /><circle cx="18" cy="37" r="20" fill="#376734" /><circle cx="77" cy="24" r="15" fill="#f3c6a5" /><circle cx="57" cy="20" r="17" fill="#14a43f" /><circle cx="7" cy="64" r="15" fill="#94f7b0" /><circle cx="10" cy="54" r="15" fill="#5b2c84" /><circle cx="45" cy="9" r="9" fill="#31648a" /><circle cx="13" cy="86" r="9" fill="#b94ee4" /><circle cx="90" cy="76" r="20" fill="#cf527c" /><circle cx="76" cy="12" r="8" fill="#69bfc1" /><circle cx="2" cy="89" r="18" fill="#5fcf4e" /><circle cx="30" cy="93" r="20" fill="#e00298" /><circle cx="27" cy="93" r="18" fill="#d88e7e" /><circle cx="68" cy="64" r="18" fill="#e8188e" /><circle cx="11" cy="37" r="17" fill="#5ca574" /><circle cx="47" cy="48" r="14" fill="#11b6d9" /><circle cx="92" cy="33" r="6" fill="#302189" /><circle cx="98" cy="71" r="17" fill="#7dbc28" /><circle cx="96" cy="85" r="11" fill="#11647e" /><circle cx="14" cy="3" r="16" fill="#bed898" /><circle cx="65" cy="29" r="11" fill="#be0c5d" /><circle cx="20" cy="77" r="20" fill="#30ccd4" /><circle cx="52" cy="70" r="18" fill="#f6d3e9" /><circle cx="44" cy="62" r="12" fill="#425537" /><circle cx="35" cy="55" r="10" fill="#d040fa" /><circle cx="51" cy="96" r="18" fill="#ee7c82" /><circle cx="84" cy="83" r="9" fill="#efbecf" /><circle cx="28" cy="1" r="19" fill="#9e96cc" /><circle cx="84" cy="80" r="10" fill="#8b3d5b" /><circle cx="71" cy="37" r="9" fill="#c8f949" /><circle cx="15" cy="85" r="19" fill="#bfd302" /><circle cx="38" cy="27" r="9" fill="#c4078d" /><circle cx="62" cy="6" r="10" fill="#4658f6" /><circle cx="66" cy="1" r="13" fill="#e8e8f2" /><circle cx="94" cy="6" r="19" fill="#ef3199" /><circle cx="83" cy="7" r="6" fill="#82b149" /><circle cx="59" cy="29" r="13" fill="#0630c5" /><circle cx="60" cy="54" r="10" fill="#c77d09" /><circle cx="57" cy="11" r="19" fill="#461b32" /><circle cx="17" cy="95" r="17" fill="#402133" /><circle cx="17" cy="19" r="20" fill="#03832c" /><circle cx="32" cy="59" r="7" fill="#55d0f2" /><circle cx="6" cy="74" r="12" fill="#6695d5" /><circle cx="12" cy="29" r="20" fill="#466c4d" /><circle cx="1" cy="31" r="18" fill="#fc8012" /><circle cx="11" cy="88" r="20" fill="#3dac5b" /><circle cx="73" cy="14" r="7" fill="#2607bc" /><circle cx="45" cy="56" r="5" fill="#e9c43d" /><circle cx="48" cy="4" r="14" fill="#8ae249" /><circle cx="14" cy="82" r="17" fill="#c11c1e" /><circle cx="53" cy="4" r="18" fill="#0012be" /><circle cx="19" cy="74" r="20" fill="#82885a" /><circle cx="84" cy="28" r="16" fill="#8e182f" /><circle cx="25" cy="39" r="7" fill="#64024a" /><circle cx="44" cy="77" r="8" fill="#82bc4b" /><circle cx="93" cy="71" r="18" fill="#97f15e" /><circle cx="1" cy="66" r="9" fill="#b9e051" /><circle cx="92" cy="75" r="16" fill="#d97f55" /><circle cx="63" cy="14" r="8" fill="#1aa5f2" /><circle cx="75" cy="49" r="18" fill="#c59610" /><circle cx="89" cy="54" r="12" fill="#f6d256" /><circle cx="57" cy="87" r="17" fill="#de7200" /><circle cx="57" cy="23" r="11" fill="#0dd656" /><circle cx="5" cy="8" r="10" fill="#03e126" /><circle cx="73" cy="67" r="8" fill="#cbc48d" /><circle cx="70" cy="59" r="5" fill="#0ca064" /><circle cx="20" cy="28" r="9" fill="#1479a9" /><circle cx="42" cy="34" r="8" fill="#0fe080" /><circle cx="39" cy="85" r="16" fill="#6f2399" /><circle cx="12" cy="53" r="8" fill="#97322b" /><circle cx="46" cy="91" r="8" fill="#05d48b" /><circle cx="42" cy="85" r="15" fill="#217567" /><circle cx="43" cy="60" r="11" fill="#35500f" /><circle cx="61" cy="69" r="10" fill="#9e36dc" /><circle cx="74" cy="65" r="9" fill="#74ae74" /><circle cx="9" cy="71" r="20" fill="#c3889a" /><circle cx="60" cy="59" r="11" fill="#b3cc04" /><circle cx="55" cy="60" r="19" fill="#5bbff7" /><circle cx="44" cy="18" r="13" fill="#d84e48" /><circle cx="20" cy="2" r="13" fill="#80a840" /><circle cx="29" cy="49" r="6" fill="#15048b" /><circle cx="2" cy="51" r="8" fill="#029384" /><circle cx="67" cy="49" r="19" fill="#c96517" /><circle cx="77" cy="27" r="12" fill="#1f01db" /><circle cx="54" cy="56" r="7" fill="#96e6f7" /><circle cx="75" cy="94" r="18" fill="#c0453b" /><circle cx="0" cy="78" r="14" fill="#fec7a5" /><circle cx="89" cy="82" r="9" fill="#073c16" /><circle cx="91" cy="45" r="19" fill="#28d526" /><circle cx="22" cy="15" r="6" fill="#3f2fb0" /><circle cx="100" cy="90" r="17" fill="#62b7b6" /><circle cx="23" cy="14" r="17" fill="#9f7388" /><circle cx="28" cy="33" r="6" fill="#b38a7b" /><circle cx="22" cy="34" r="17" fill="#85a56a" /><circle cx="16" cy="89" r="12" fill="#041c02" /><circle cx="60" cy="58" r="7" fill="#7b9d5e" /><circle cx="81" cy="93" r="9" fill="#d95be1" /><circle cx="54" cy="16" r="13" fill="#8fa1fa" /><circle cx="53" cy="12" r="8" fill="#ad1745" /><circle cx="58" cy="73" r="19" fill="#bc29cd" /><circle cx="16" cy="40" r="15" fill="#e4d286" /><circle cx="17" cy="55" r="5" fill="#0e7396" /><circle cx="87" cy="80" r="18" fill="#cbdbfc" /><circle cx="32" cy="97" r="6" fill="#9a8aa8" /><circle cx="48" cy="47" r="17" fill="#8db7bb" /><circle cx="54" cy="2" r="10" fill="#51b8d9" /><circle cx="20" cy="51" r="19" fill="#a5aff1" /><circle cx="14" cy="15" r="9" fill="#1d6367" /><circle cx="10" cy="13" r="13" fill="#257e80" /><circle cx="45" cy="22" r="16" fill="#19e41e" /><circle cx="82" cy="100" r="20" fill="#6c5382" /><circle cx="81" cy="32" r="9" fill="#44aea7" /><circle cx="58" cy="41" r="8" fill="#2e8d86" /><circle cx="34" cy="75" r="17" fill="#62bd48" /><circle cx="8" cy="9" r="9" fill="#3e9e97" /><circle cx="20" cy="15" r="14" fill="#c448ca" /><circle cx="93" cy="11" r="14" fill="#6f3f30" /><circle cx="15" cy="5" r="13" fill="#efcebe" /><circle cx="95" cy="87" r="17" fill="#235931" /><circle cx="37" cy="74" r="19" fill="#24a644" /><circle cx="100" cy="15" r="16" fill="#2ed347" /><circle cx="70" cy="17" r="5" fill="#1bcb24" /><circle cx="90" cy="80" r="18" fill="#fe67f3" /><circle cx="50" cy="44" r="5" fill="#ee3a73" /><circle cx="67" cy="20" r="13" fill="#8d9442" /><circle cx="53" cy="55" r="12" fill="#d0cd88" /><circle cx="39" cy="22" r="11" fill="#e9a337" /><circle cx="10" cy="92" r="17" fill="#68f216" /><circle cx="81" cy="70" r="5" fill="#3c542b" /><circle cx="13" cy="9" r="7" fill="#92d4ae" /><circle cx="20" cy="17" r="12" fill="#fb1381" /><circle cx="68" cy="23" r="12" fill="#9383a7" /><circle cx="12" cy="13" r="20" fill="#031410" /><circle cx="32" cy="0" r="17" fill="#265d70" /><circle cx="3" cy="32" r="15" fill="#c10c42" /><circle cx="11" cy="24" r="8" fill="#1bfdc4" /><circle cx="94" cy="100" r="5" fill="#613e71" /><circle cx="54" cy="96" r="20" fill="#4b55a8" /><circle cx="92" cy="80" r="15" fill="#5f4cd4" /><circle cx="54" cy="12" r="19" fill="#df0538" /><circle cx="46" cy="17" r="20" fill="#6fc796" /><circle cx="62" cy="15" r="9" fill="#f65f6a" /><circle cx="16" cy="4" r="10" fill="#b2d22e" /><circle cx="92" cy="71" r="6" fill="#9f6b1f" /><circle cx="14" cy="63" r="9" fill="#bd8052" /><circle cx="10" cy="14" r="14" fill="#7e5264" /><circle cx="26" cy="71" r="10" fill="#e1a8de" /><circle cx="32" cy="35" r="16" fill="#45e861" /><circle cx="68" cy="44" r="17" fill="#32d082" /><circle cx="23" cy="31" r="5" fill="#555472" /><circle cx="99" cy="18" r="16" fill="#acb8db" /><circle cx="23" cy="25" r="9" fill="#799e66" /><circle cx="67" cy="84" r="12" fill="#ed2bf1" /><circle cx="90" cy="20" r="6" fill="#4a8bd9" /><circle cx="20" cy="29" r="8" fill="#9baef7" /><circle cx="72" cy="1" r="15" fill="#705fd0" /><circle cx="6" cy="20" r="19" fill="#65dbd0" /><circle cx="97" cy="56" r="11" fill="#008aee" /><circle cx="74" cy="77" r="10" fill="#f25906" /><circle cx="19" cy="8" r="20" fill="#104821" /><circle cx="95" cy="38" r="9" fill="#6ef38c" /><circle cx="65" cy="11" r="13" fill="#f62696" /><circle cx="17" cy="28" r="18" fill="#5b5aec" /><circle cx="4" cy="64" r="11" fill="#3f391d" /><circle cx="95" cy="72" r="9" fill="#e8dce6" /><circle cx="16" cy="59" r="16" fill="#f72552" /><circle cx="4" cy="76" r="9" fill="#0c7506" /><circle cx="55" cy="69" r="15" fill="#b72241" /><circle cx="99" cy="49" r="13" fill="#7d98be" /><circle cx="87" cy="53" r="16" fill="#37d64f" /><circle cx="25" cy="54" r="17" fill="#b1cbbd" /><circle cx="85" cy="27" r="7" fill="#773e06" /><circle cx="10" cy="24" r="14" fill="#37458c" /><circle cx="50" cy="63" r="20" fill="#f0a4e5" /><circle cx="81" cy="22" r="20" fill="#2a0176" /><circle cx="84" cy="10" r="14" fill="#9f8741" /><circle cx="0" cy="77" r="5" fill="#721b88" /><circle cx="64" cy="91" r="8" fill="#af9552" /><circle cx="9" cy="40" r="7" fill="#0323ee" /><circle cx="90" cy="90" r="8" fill="#02e0f5" /><circle cx="97" cy="56" r="20" fill="#ba404d" /><circle cx="57" cy="39" r="12" fill="#118e29" /><circle cx="76" cy="56" r="10" fill="#afc243" /><circle cx="55" cy="17" r="6" fill="#44da97" /><circle cx="36" cy="64" r="15" fill="#8604db" /><circle cx="79" cy="69" r="14" fill="#c9f5f6" /><circle cx="67" cy="81" r="6" fill="#4490e7" /><circle cx="64" cy="80" r="16" fill="#836815" /><circle cx="81" cy="79" r="13" fill="#51d1ca" /><circle cx="30" cy="89" r="10" fill="#6d84c5" /><circle cx="8" cy="77" r="11" fill="#1434c1" /><circle cx="63" cy="93" r="14" fill="#4e0824" /><circle cx="91" cy="49" r="14" fill="#31a955" /><circle cx="40" cy="83" r="9" fill="#175500" /><circle cx="35" cy="92" r="10" fill="#275c04" /><circle cx="96" cy="57" r="8" fill="#1a426c" /><circle cx="96" cy="70" r="16" fill="#a4aacd" /><circle cx="1" cy="47" r="14" fill="#3882ec" /><circle cx="12" cy="19" r="11" fill="#68cbed" /><circle cx="78" cy="3" r="11" fill="#e77634" /><circle cx="20" cy="9" r="9" fill="#e370f3" /><circle cx="52" cy="91" r="12" fill="#319eed" /><circle cx="5" cy="40" r="9" fill="#226dd9" /><circle cx="6" cy="32" r="5" fill="#5be4b1" /><circle cx="72" cy="35" r="19" fill="#cbfe59" /><circle cx="98" cy="35" r="11" fill="#ae7e52" /><circle cx="65" cy="79" r="15" fill="#944c0a" /><circle cx="45" cy="51" r="15" fill="#cf1dd8" /><circle cx="74" cy="82" r="6" fill="#0af62f" /><circle cx="11" cy="48" r="14" fill="#79d594" /><circle cx="70" cy="75" r="19" fill="#191679" /><circle cx="7" cy="54" r="16" fill="#1abec7" /><circle cx="46" cy="84" r="14" fill="#50c4f0" /><circle cx="86" cy="90" r="18" fill="#9d0c6e" /><circle cx="5" cy="22" r="11" fill="#34019c" /><circle cx="67" cy="82" r="19" fill="#5c0108" /><circle cx="41" cy="97" r="20" fill="#8e0677" /><circle cx="35" cy="10" r="15" fill="#a60acd" /><circle cx="69" cy="56" r="12" fill="#d831ba" /><circle cx="82" cy="42" r="20" fill="#e508e4" /><circle cx="3" cy="13" r="18" fill="#b72caa" /><circle cx="55" cy="89" r="13" fill="#d5f7ec" /><circle cx="21" cy="96" r="12" fill="#09021e" /><circle cx="36" cy="78" r="10" fill="#efef89" /><circle cx="54" cy="28" r="14" fill="#b6f58c" /><circle cx="20" cy="92" r="12" fill="#6c8e83" /><circle cx="31" cy="62" r="9" fill="#e156c2" /><circle cx="52" cy="23" r="11" fill="#86283d" /><circle cx="58" cy="95" r="11" fill="#9fd7d7" /><circle cx="91" cy="6" r="13" fill="#cff276" /><circle cx="2" cy="21" r="9" fill="#dbba6c" /><circle cx="3" cy="35" r="7" fill="#2906e6" /><circle cx="72" cy="65" r="17" fill="#397705" /><circle cx="30" cy="31" r="19" fill="#c4f30a" /><circle cx="31" cy="12" r="5" fill="#8f9efe" /><circle cx="84" cy="86" r="20" fill="#c54416" /><circle cx="25" cy="1" r="8" fill="#ff4a99" /><circle cx="64" cy="63" r="19" fill="#566a79" /><circle cx="100" cy="46" r="18" fill="#4c7fc1" /><circle cx="14" cy="82" r="11" fill="#25e369" /><circle cx="47" cy="95" r="12" fill="#9f98f4" /><circle cx="85" cy="85" r="17" fill="#f0610d" /><circle cx="67" cy="79" r="12" fill="#7b9695" /><circle cx="18" cy="49" r="14" fill="#4c9449" /><circle cx="34" cy="72" r="9" fill="#b4272f" /><circle cx="42" cy="55" r="17" fill="#f8fcff" /><circle cx="12" cy="18" r="8" fill="#926db6" /><circle cx="22" cy="15" r="17" fill="#1b5d8f" /><circle cx="6" cy="48" r="6" fill="#64ccef" /><circle cx="24" cy="91" r="19" fill="#516ddd" /><circle cx="29" cy="49" r="14" fill="#deab9f" /><circle cx="8" cy="86" r="5" fill="#34a611" /><circle cx="21" cy="76" r="19" fill="#1e76dd" /><circle cx="81" cy="5" r="18" fill="#ab21e1" /><circle cx="14" cy="31" r="7" fill="#190857" /><circle cx="89" cy="45" r="13" fill="#94aefb" /><circle cx="68" cy="54" r="5" fill="#faa47f" /><circle cx="7" cy="47" r="5" fill="#66d066" /><circle cx="21" cy="83" r="14" fill="#5d3f04" /><circle cx="33" cy="39" r="13" fill="#ed4e74" /><circle cx="78" cy="55" r="19" fill="#6482f9" /><circle cx="2" cy="53" r="12" fill="#770f99" /><circle cx="87" cy="17" r="13" fill="#842011" /><circle cx="71" cy="39" r="18" fill="#957b9d" /><circle cx="74" cy="25" r="11" fill="#695d5d" /><circle cx="90" cy="54" r="7" fill="#ba30af" /><circle cx="57" cy="14" r="16" fill="#8d6ff8" /><circle cx="24" cy="82" r="17" fill="#90810d" /><circle cx="85" cy="25" r="12" fill="#dd3cd6" /><circle cx="20" cy="79" r="17" fill="#333044" /><circle cx="41" cy="54" r="5" fill="#37cce9" /><circle cx="45" cy="69" r="7" fill="#535863" /><circle cx="9" cy="1" r="9" fill="#7d0deb" /><circle cx="45" cy="62" r="13" fill="#0ef2b9" /><circle cx="36" cy="70" r="6" fill="#9ee89f" /><circle cx="97" cy="36" r="16" fill="#1fd063" /><circle cx="8" cy="81" r="13" fill="#1796f2" /><circle cx="80" cy="18" r="20" fill="#392ce4" /><circle cx="8" cy="97" r="14" fill="#b769f4" /><circle cx="13" cy="76" r="17" fill="#97293a" /><circle cx="44" cy="80" r="13" fill="#9252ea" /><circle cx="10" cy="47" r="18" fill="#81fe17" /><circle cx="26" cy="65" r="8" fill="#51016c" /><circle cx="41" cy="98" r="10" fill="#16a9ca" /><circle cx="55" cy="88" r="20" fill="#0abfe3" /><circle cx="62" cy="42" r="19" fill="#fa2205" /><circle cx="21" cy="85" r="18" fill="#fe806b" /><circle cx="92" cy="44" r="20" fill="#572304" /><circle cx="61" cy="20" r="17" fill="#c05067" /><circle cx="57" cy="54" r="5" fill="#70deda" /><circle cx="54" cy="4" r="18" fill="#795dae" /><circle cx="11" cy="6" r="17" fill="#fa8314" /><circle cx="21" cy="15" r="5" fill="#9822e5" /><circle cx="68" cy="69" r="9" fill="#671b13" /><circle cx="0" cy="60" r="16" fill="#10ea03" /><circle cx="45" cy="75" r="12" fill="#dacc61" /><circle cx="35" cy="28" r="6" fill="#340abc" /><circle cx="73" cy="60" r="7" fill="#f63d40" /><circle cx="60" cy="29" r="17" fill="#8b2ac2" /><circle cx="22" cy="100" r="14" fill="#577dcb" /><circle cx="20" cy="79" r="18" fill="#1c1a42" /><circle cx="63" cy="60" r="13" fill="#6b7b70" /><circle cx="41" cy="96" r="12" fill="#a70d26" /><circle cx="88" cy="13" r="10" fill="#455522" /><circle cx="14" cy="22" r="19" fill="#a818d4" /><circle cx="16" cy="71" r="9" fill="#ac16e3" /><circle cx="29" cy="70" r="16" fill="#e3a8be" /><circle cx="72" cy="85" r="11" fill="#a4bc92" /><circle cx="85" cy="47" r="14" fill="#712ba9" /><circle cx="30" cy="31" r="10" fill="#416df9" /><circle cx="66" cy="28" r="7" fill="#0eb56f" /><circle cx="94" cy="32" r="15" fill="#435dfb" /><circle cx="4" cy="23" r="6" fill="#637b36" /><circle cx="3" cy="26" r="14" fill="#f18178" /><circle cx="94" cy="54" r="7" fill="#b0b961" /><circle cx="62" cy="58" r="19" fill="#7e5db3" /><circle cx="8" cy="49" r="20" fill="#18785d" /><circle cx="8" cy="1" r="15" fill="#d1c56c" /><circle cx="5" cy="12" r="9" fill="#e4c0b2" /><circle cx="71" cy="75" r="12" fill="#e82bdc" /><circle cx="95" cy="4" r="18" fill="#83cfc1" /><circle cx="57" cy="49" r="10" fill="#217fd5" /><circle cx="24" cy="99" r="8" fill="#3bcf5a" /><circle cx="100" cy="21" r="11" fill="#08839c" /><circle cx="82" cy="17" r="16" fill="#34ea24" /><circle cx="43" cy="87" r="13" fill="#b4c088" /><circle cx="8" cy="98" r="12" fill="#48ff6e" /><circle cx="0" cy="6" r="5" fill="#218c01" /><circle cx="19" cy="32" r="5" fill="#64a89b" /><circle cx="65" cy="95" r="10" fill="#26651e" /><circle cx="90" cy="50" r="17" fill="#6ff075" /><circle cx="49" cy="82" r="5" fill="#4d373c" /><circle cx="50" cy="69" r="14" fill="#5b9a11" /><circle cx="0" cy="33" r="19" fill="#de0dcb" /><circle cx="48" cy="96" r="15" fill="#be0a5f" /><circle cx="52" cy="15" r="16" fill="#6b8eab" /><circle cx="18" cy="91" r="13" fill="#d6b27d" /><circle cx="60" cy="39" r="9" fill="#be727c" /><circle cx="80" cy="62" r="5" fill="#e12e4c" /><circle cx="47" cy="44" r="17" fill="#93c679" /><circle cx="40" cy="74" r="5" fill="#70782e" /><circle cx="89" cy="87" r="17" fill="#1bd175" /><circle cx="64" cy="57" r="20" fill="#f63a64" /><circle cx="28" cy="19" r="20" fill="#5c6975" /><circle cx="31" cy="42" r="9" fill="#1c7534" /><circle cx="92" cy="99" r="16" fill="#a65ca3" /><circle cx="54" cy="25" r="12" fill="#3f8f0f" /><circle cx="9" cy="79" r="5" fill="#23bc09" /><circle cx="58" cy="53" r="17" fill="#74e438" /><circle cx="48" cy="85" r="13" fill="#f0ad56" /><circle cx="93" cy="62" r="13" fill="#fe9770" /><circle cx="14" cy="57" r="5" fill="#b2d1a3" /><circle cx="33" cy="9" r="16" fill="#255f01" /><circle cx="57" cy="7" r="15" fill="#006490" /><circle cx="57" cy="36" r="16" fill="#521936" /><circle cx="62" cy="41" r="9" fill="#b721b5" /><circle cx="29" cy="20" r="5" fill="#0afa02" /><circle cx="39" cy="30" r="16" fill="#47fb1f" /><circle cx="53" cy="73" r="14" fill="#2ddd52" /><circle cx="83" cy="72" r="14" fill="#0fe1f2" /><circle cx="29" cy="67" r="11" fill="#63dc98" /><circle cx="27" cy="26" r="12" fill="#dfb62b" /><circle cx="16" cy="70" r="17" fill="#cd3691" /><circle cx="19" cy="15" r="20" fill="#be2279" /><circle cx="33" cy="99" r="10" fill="#51be2e" /><circle cx="41" cy="19" r="16" fill="#4c658a" /><circle cx="92" cy="51" r="10" fill="#1c527a" /><circle cx="61" cy="52" r="9" fill="#98b95b" /><circle cx="82" cy="8" r="5" fill="#106ddc" /><circle cx="30" cy="85" r="11" fill="#70be67" /><circle cx="77" cy="45" r="15" fill="#c83273" /><circle cx="39" cy="44" r="12" fill="#fd7f6a" /><circle cx="77" cy="65" r="15" fill="#ed8a8e" /><circle cx="53" cy="58" r="19" fill="#c5bdd9" /><circle cx="2" cy="38" r="15" fill="#6f430f" /><circle cx="70" cy="52" r="7" fill="#5ce30c" /><circle cx="42" cy="4" r="10" fill="#ed36f1" /><circle cx="14" cy="27" r="8" fill="#f08426" /><circle cx="82" cy="67" r="15" fill="#5b0f6e" /><circle cx="65" cy="76" r="11" fill="#6ffeae" /><circle cx="61" cy="38" r="19" fill="#b49be8" /><circle cx="67" cy="74" r="18" fill="#4e7f49" /><circle cx="83" cy="3" r="13" fill="#e4bd6d" /><circle cx="55" cy="31" r="5" fill="#80e734" /><circle cx="17" cy="77" r="11" fill="#60416e" /><circle cx="64" cy="23" r="12" fill="#21cb2c" /><circle cx="32" cy="23" r="16" fill="#2f6873" /><circle cx="38" cy="95" r="9" fill="#e6a96b" /><circle cx="3" cy="12" r="15" fill="#a586d9" /><circle cx="61" cy="89" r="20" fill="#09f238" /><circle cx="50" cy="3" r="9" fill="#248c85" /><circle cx="22" cy="84" r="17" fill="#ba2713" /><circle cx="56" cy="3" r="15" fill="#ddc0f7" /><circle cx="52" cy="71" r="14" fill="#5270a0" /><circle cx="51" cy="6" r="17" fill="#5ffc75" /><circle cx="0" cy="53" r="6" fill="#1f95db" /><circle cx="29" cy="89" r="6" fill="#11c223" /><circle cx="74" cy="95" r="10" fill="#7b59b1" /><circle cx="30" cy="32" r="16" fill="#6a4def" /><circle cx="23" cy="59" r="11" fill="#b7a4ee" /><circle cx="100" cy="91" r="18" fill="#faf5e1" /><circle cx="34" cy="71" r="10" fill="#d69c62" /><circle cx="44" cy="10" r="12" fill="#18a974" /><circle cx="35" cy="98" r="12" fill="#020ec1" /><circle cx="100" cy="35" r="10" fill="#6656ae" /><circle cx="78" cy="53" r="15" fill="#6dffe8" /><circle cx="47" cy="58" r="17" fill="#63b4f2" /><circle cx="60" cy="39" r="11" fill="#20c019" /><circle cx="54" cy="88" r="12" fill="#d24e6c" /><circle cx="98" cy="54" r="14" fill="#50842e" /><circle cx="47" cy="52" r="16" fill="#dc4129" /><circle cx="79" cy="50" r="13" fill="#9fb0b5" /><circle cx="89" cy="39" r="8" fill="#dd1d6d" /><circle cx="30" cy="46" r="15" fill="#908c20" /><circle cx="12" cy="75" r="9" fill="#6e90b7" /><circle cx="11" cy="35" r="16" fill="#c247ea" /><circle cx="54" cy="77" r="5" fill="#6bf3c3" /><circle cx="90" cy="9" r="11" fill="#a41726" /><circle cx="68" cy="52" r="5" fill="#904122" /><circle cx="55" cy="32" r="8" fill="#641da9" /><circle cx="15" cy="45" r="14" fill="#1648ca" /><circle cx="57" cy="70" r="16" fill="#1b2992" /><circle cx="38" cy="13" r="10" fill="#c81ceb" /><circle cx="65" cy="68" r="20" fill="#129eb5" /><circle cx="52" cy="3" r="11" fill="#8a0210" /><circle cx="74" cy="53" r="6" fill="#b08c1f" /><circle cx="23" cy="82" r="10" fill="#6449e0" /><circle cx="82" cy="11" r="6" fill="#4b03ea" /><circle cx="38" cy="0" r="18" fill="#80525b" /><circle cx="76" cy="47" r="16" fill="#eee158" /><circle cx="26" cy="31" r="19" fill="#00fc07" /><circle cx="40" cy="31" r="17" fill="#783ee3" /><circle cx="5" cy="65" r="11" fill="#eae0e1" /><circle cx="53" cy="17" r="8" fill="#225549" /><circle cx="36" cy="92" r="16" fill="#cd6c63" /><circle cx="41" cy="89" r="8" fill="#f8c402" /><circle cx="34" cy="40" r="6" fill="#9c85da" /><circle cx="59" cy="69" r="9" fill="#5c0b2b" /><circle cx="17" cy="55" r="20" fill="#b63137" /><circle cx="27" cy="96" r="15" fill="#20b169" /><circle cx="35" cy="98" r="10" fill="#158517" /><circle cx="35" cy="4" r="17" fill="#ace187" /><circle cx="83" cy="6" r="6" fill="#cc7dea" /><circle cx="14" cy="53" r="7" fill="#c04064" /><circle cx="85" cy="58" r="13" fill="#e22edf" /><circle cx="20" cy="0" r="8" fill="#4cd76b" /><circle cx="90" cy="35" r="15" fill="#0b8cb1" /><circle cx="9" cy="65" r="12" fill="#445600" /></svg>