<svg xmlns="http://www.w3.org/2000/svg" width="100" height="100"><circle cx="80" cy="8" r="11" fill="#c6313b" /><circle cx="55" cy="98" r="12" fill="#7155da" /><circle cx="8" cy="43" r="7" fill="#2d465b" /><circle cx="1" cy="69" r="7" fill="#a061aa" /><circle cx="70" cy="47" r="20" fill="#73a37a" /><circle cx="83" cy="1" r="20" fill="#833c50" /><circle cx="78" cy="83" r="18" fill="#cfc0d2" /><circle cx="76" cy="66" r="16" fill="#067a33" /><circle cx="56" cy="67" r="6" fill="#77361b" /><circle cx="64" cy="15" r="18" fill="#b3e2c6" /><circle cx="62" cy="72" r="19" fill="#a4475d" /><circle cx="28" cy="42" r="8" fill="#e88eaf" /><circle cx="73" cy="61" r="20" fill="#186a28" /><circle cx="13" cy="4" r="5" fill="#5770c3" /><circle cx="59" cy="3" r="7" fill="#2b637d" /><circle cx="54" cy="56" r="19" fill="#192947" /><circle cx="75" cy="7" r="12" fill="#f17f8b" /><circle cx="56" cy="81" r="6" fill="#20519f" /><circle cx="69" cy="3" r="6" fill="#8a5d9f" /><circle cx="74" cy="89" r="5" fill="#a0d3ae" /><circle cx="93" cy="70" r="7" fill="#40a798" /><circle cx="51" cy="53" r="5" fill="#d963c3" /><circle cx="100" cy="36" r="20" fill="#e4db59" /><circle cx="19" cy="84" r="7" fill="#47c687" /><circle cx="43" cy="82" r="7" fill="#673334" /><circle cx="87" cy="1" r="14" fill="#0cb07f" /><circle cx="66" cy="22" r="14" fill="#d7de73" /><circle cx="86" cy="80" r="18" fill="#7aa483" /><circle cx="98" cy="22" r="15" fill="#636bf2" /><circle cx="70" cy="51" r="12" fill="#e12428" /><circle cx="55" cy="57" r="16" fill="#7acae6" /><circle cx="98" cy="22" r="5" fill="#b5e74a" /><circle cx="25" cy="2" r="17" fill="#d01831" /><circle cx="77" cy="80" r="9" fill="#951ec0" /><circle cx="36" cy="40" r="20" fill="#e86f69" /><circle cx="93" cy="91" r="20" fill="#75237a" /><circle cx="55" cy="86" r="10" fill="#12b17d" /><circle cx="45" cy="80" r="5" fill="#343b77" /><circle cx="68" cy="16" r="5" fill="#d371e0" /><circle cx="14" cy="92" r="5" fill="#cacfa3" /><circle cx="47" cy="77" r="18" fill="#095839" /><circle cx="14" cy="56" r="20" fill="#1bb7f3" /><circle cx="70" cy="20" r="9" fill="#4a3a14" /><circle cx="42" cy="39" r="12" fill="#8e9119" /><circle cx="86" cy="30" r="10" fill="#99fecf" /><circle cx="75" cy="0" r="5" fill="#225a08" /><circle cx="65" cy="64" r="20" fill="#154b81" /><circle cx="90" cy="52" r="10" fill="#810b83" /><circle cx="45" cy="75" r="7" fill="#6a0c3d" /><circle cx="22" cy="37" r="14" fill="#07432b" /><circle cx="21" cy="13" r="15" fill="#3f0289" /><circle cx="13" cy="32" r="19" fill="#b76b06" /><circle cx="53" cy="65" r="6" fill="#219809" /><circle cx="37" cy="55" r="5" fill="#f74007" /><circle cx="61" cy="6" r="14" fill="#a9ccd0" /><circle cx="9" cy="61" r="9" fill="#8af572" /><circle cx="68" cy="30" r="5" fill="#4c05a4" /><circle cx="5" cy="47" r="6" fill="#bdebf8" /><circle cx="22" cy="42" r="7" fill="#6d71f5" /><circle cx="49" cy="58" r="10" fill="#da25c8" /><circle cx="24" cy="55" r="17" fill="#6dba71" /><circle cx="66" cy="56" r="9" fill="#427276" /><circle cx="72" cy="23" r="16" fill="#34a57e" /><circle cx="77" cy="63" r="15" fill="#5e600a" /><circle cx="62" cy="43" r="19" fill="#bd5e09" /><circle cx="21" cy="87" r="7" fill="#c6c8c3" /><circle cx="61" cy="70" r="20" fill="#5fd3e2" /><circle cx="14" cy="80" r="20" fill="#3f891c" /><circle cx="14" cy="15" r="8" fill="#6ff334" /><circle cx="12" cy="62" r="17" fill="#6b402c" /><circle cx="84" cy="48" r="6" fill="#82e21a" /><circle cx="75" cy="46" r="15" fill="#09386c" /><circle cx="17" cy="0" r="17" fill="#334f1d" /><circle cx="90" cy="30" r="9" fill="#e508d1" /><circle cx="60" cy="25" r="8" fill="#18b239" /><circle cx="23" cy="23" r="14" fill="#1b88c1" /><circle cx="89" cy="25" r="16" fill="#6d705f" /><circle cx="84" cy="50" r="18" fill="#e3c6f0" /><circle cx="5" cy="12" r="6" fill="#b09654" /><circle cx="32" cy="6" r="17" fill="#5a95b0" /><circle cx="28" cy="49" r="11" fill="#938e7b" /><circle cx="26" cy="4" r="12" fill="#74b5ed" /><circle cx="97" cy="43" r="6" fill="#4d5c70" /><circle cx="80" cy="71" r="12" fill="#00f1f9" /><circle cx="21" cy="4" r="12" fill="#9757f8" /><circle cx="31" cy="33" r="14" fill="#628140" /><circle cx="25" cy="8" r="5" fill="#bfbd0d" /><circle cx="43" cy="72" r="14" fill="#73bc4c" /><circle cx="89" cy="58" r="20" fill="#54f7a6" /><circle cx="66" cy="24" r="8" fill="#a9ec77" /><circle cx="40" cy="91" r="11" fill="#0312d5" /><circle cx="69" cy="63" r="7" fill="#33d480" /><circle cx="68" cy="10" r="13" fill="#ed8183" /><circle cx="47" cy="79" r="19" fill="#31e651" /><circle cx="44" cy="13" r="14" fill="#d00d3d" /><circle cx="23" cy="7" r="7" fill="#48f992" /><circle cx="52" cy="96" r="17" fill="#bb0817" /><circle cx="56" cy="54" r="12" fill="#75d068" /><circle cx="4" cy="88" r="12" fill="#0ba88c" /><circle cx="99" cy="85" r="9" fill="#7f0525" /><circle cx="91" cy="4" r="15" fill="#c5fc81" /><circle cx="28" cy="27" r="17" fill="#c81e0c" /><circle cx="9" cy="12" r="12" fill="#520b54" /><circle cx="100" cy="34" r="10" fill="#d07337" /><circle cx="15" cy="2" r="6" fill="#5e77dd" /><circle cx="49" cy="90" r="13" fill="#f41819" /><circle cx="96" cy="21" r="15" fill="#a47eff" /><circle cx="95" cy="44" r="6" fill="#8c654f" /><circle cx="26" cy="28" r="19" fill="#97738c" /><circle cx="69" cy="90" r="15" fill="#3f0226" /><circle cx="25" cy="55" r="8" fill="#31bdb4" /><circle cx="91" cy="52" r="11" fill="#e6cca1" /><circle cx="99" cy="30" r="11" fill="#5c46a9" /><circle cx="5" cy="70" r="11" fill="#ed5d95" /><circle cx="37" cy="43" r="9" fill="#683e3d" /><circle cx="86" cy="2" r="6" fill="#ff6de1" /><circle cx="28" cy="4" r="6" fill="#43cddb" /><circle cx="19" cy="70" r="20" fill="#8e8138" /><circle cx="59" cy="96" r="16" fill="#48e7aa" /><circle cx="54" cy="54" r="19" fill="#9fc69d" /><circle cx="34" cy="95" r="20" fill="#79e23c" /><circle cx="77" cy="84" r="5" fill="#181612" /><circle cx="6" cy="51" r="13" fill="#81d1f5" /><circle cx="5" cy="11" r="11" fill="#fea784" /><circle cx="21" cy="36" r="20" fill="#c4e9e5" /><circle cx="18" cy="43" r="14" fill="#63985e" /><circle cx="95" cy="53" r="20" fill="#b07d9e" /><circle cx="37" cy="65" r="6" fill="#db7334" /><circle cx="57" cy="51" r="6" fill="#1e8ce5" /><circle cx="86" cy="41" r="8" fill="#5cc584" /><circle cx="31" cy="37" r="12" fill="#da02ca" /><circle cx="87" cy="96" r="6" fill="#9d2653" /><circle cx="90" cy="61" r="8" fill="#3975c1" /><circle cx="52" cy="26" r="10" fill="#b91708" /><circle cx="74" cy="80" r="15" fill="#46a883" /><circle cx="28" cy="49" r="11" fill="#40b3c5" /><circle cx="66" cy="5" r="5" fill="#d99987" /><circle cx="28" cy="57" r="18" fill="#187e87" /><circle cx="56" cy="29" r="5" fill="#6b4040" /><circle cx="77" cy="97" r="12" fill="#7f139a" /><circle cx="92" cy="0" r="17" fill="#92b49c" /><circle cx="82" cy="48" r="16" fill="#c61b8c" /><circle cx="81" cy="98" r="7" fill="#12d61a" /><circle cx="27" cy="21" r="20" fill="#d829c3" /><circle cx="11" cy="86" r="10" fill="#c9c9fe" /><circle cx="21" cy="98" r="11" fill="#0d8f84" /><circle cx="86" cy="65" r="14" fill="#93cfcf" /><circle cx="19" cy="55" r="15" fill="#19bc50" /><circle cx="78" cy="24" r="20" fill="#bfdb7b" /><circle cx="21" cy="46" r="13" fill="#9cc622" /><circle cx="8" cy="72" r="18" fill="#aab363" /><circle cx="16" cy="59" r="6" fill="#f6511b" /><circle cx="67" cy="77" r="17" fill="#3f5f29" /><circle cx="100" cy="99" r="17" fill="#82a396" /><circle cx="68" cy="21" r="12" fill="#d4efe6" /><circle cx="40" cy="90" r="11" fill="#ebc869" /><circle cx="87" cy="77" r="11" fill="#c528a4" /><circle cx="88" cy="0" r="5" fill="#3d6afd" /><circle cx="96" cy="24" r="16" fill="#e108c9" /><circle cx="92" cy="52" r="9" fill="#365f54" /><circle cx="0" cy="75" r="6" fill="#371fcb" /><circle cx="8" cy="41" r="5" fill="#b65413" /><circle cx="36" cy="21" r="7" fill="#60b23e" /><circle cx="11" cy="96" r="8" fill="#2a9321" /><circle cx="30" cy="85" r="14" fill="#435dcb" /><circle cx="97" cy="74" r="15" fill="#864f5e" /><circle cx="50" cy="37" r="16" fill="#96b0e9" /><circle cx="51" cy="30" r="9" fill="#579d46" /><circle cx="31" cy="75" r="10" fill="#316349" /><circle cx="34" cy="65" r="17" fill="#e1d2e4" /><circle cx="33" cy="5" r="5" fill="#95e506" /><circle cx="71" cy="69" r="16" fill="#493921" /><circle cx="95" cy="39" r="10" fill="#078019" /><circle cx="45" cy="75" r="11" fill="#b65265" /><circle cx="82" cy="74" r="14" fill="#e81289" /><circle cx="49" cy="47" r="13" fill="#a4a370" /><circle cx="9" cy="48" r="16" fill="#376e0b" /><circle cx="23" cy="65" r="15" fill="#4987a4" /><circle cx="75" cy="30" r="19" fill="#5ddc0d" /><circle cx="96" cy="61" r="18" fill="#db2486" /><circle cx="2" cy="98" r="14" fill="#893940" /><circle cx="67" cy="80" r="11" fill="#582f4f" /><circle cx="54" cy="33" r="5" fill="#6e4629" /><circle cx="92" cy="15" r="17" fill="#abe80f" /><circle cx="45" cy="0" r="18" fill="#746372" /><circle cx="37" cy="86" r="5" fill="#5796fd" /><circle cx="35" cy="71" r="6" fill="#0690f4" /><circle cx="69" cy="10" r="14" fill="#2b2344" /><circle cx="28" cy="9" r="11" fill="#a59529" /><circle cx="27" cy="24" r="5" fill="#8d6518" /><circle cx="65" cy="36" r="9" fill="#38dc6f" /><circle cx="86" cy="21" r="13" fill="#636b49" /><circle cx="8" cy="54" r="5" fill="#ea026e" /><circle cx="98" cy="60" r="9" fill="#bf31b8" /><circle cx="52" cy="74" r="13" fill="#aeddc8" /><circle cx="7" cy="76" r="15" fill="#b7faf3" /><circle cx="34" cy="69" r="7" fill="#8f7304" /><circle cx="99" cy="83" r="10" fill="#a8a61d" /><circle cx="11" cy="14" r="14" fill="#62a3f8" /><circle cx="65" cy="18" r="16" fill="#297a04" /><circle cx="28" cy="10" r="14" fill="#252f9a" /><circle cx="19" cy="30" r="17" fill="#7549c8" /><circle cx="99" cy="13" r="12" fill="#58fb43" /><circle cx="36" cy="2" r="14" fill="#6629f4" /><circle cx="87" cy="53" r="13" fill="#50aaa6" /><circle cx="78" cy="30" r="7" fill="#6784b0" /><circle cx="7" cy="53" r="5" fill="#0cb5e3" /><circle cx="91" cy="61" r="18" fill="#1847ee" /><circle cx="94" cy="24" r="6" fill="#7da898" /><circle cx="44" cy="93" r="16" fill="#26e0ec" /><circle cx="84" cy="76" r="10" fill="#167454" /><circle cx="76" cy="79" r="7" fill="#a400f4" /><circle cx="38" cy="0" r="7" fill="#4b5f8c" /><circle cx="94" cy="61" r="19" fill="#a1cf8f" /><circle cx="10" cy="1" r="15" fill="#734604" /><circle cx="90" cy="96" r="7" fill="#3d2ec9" /><circle cx="21" cy="6" r="9" fill="#6a5d11" /><circle cx="58" cy="51" r="10" fill="#afcd9a" /><circle cx="77" cy="68" r="16" fill="#8f989b" /><circle cx="19" cy="18" r="8" fill="#918ff7" /><circle cx="36" cy="19" r="11" fill="#3ed6db" /><circle cx="32" cy="26" r="20" fill="#6e4383" /><circle cx="71" cy="84" r="13" fill="#2c141c" /><circle cx="47" cy="68" r="6" fill="#07e952" /><circle cx="95" cy="14" r="6" fill="#14e3ec" /><circle cx="77" cy="25" r="5" fill="#c04b02" /><circle cx="19" cy="38" r="7" fill="#82b79b" /><circle cx="51" cy="33" r="11" fill="#79cc28" /><circle cx="83" cy="64" r="11" fill="#9ca63b" /><circle cx="37" cy="21" r="13" fill="#8c67d6" /><circle cx="25" cy="77" r="11" fill="#c84b83" /><circle cx="100" cy="17" r="10" fill="#10743f" /><circle cx="6" cy="12" r="17" fill="#c1d2b8" /><circle cx="57" cy="100" r="14" fill="#1d49ff" /><circle cx="8" cy="0" r="17" fill="#33a6a2" /><circle cx="99" cy="69" r="8" fill="#cff3d1" /><circle cx="71" cy="41" r="8" fill="#b18ac5" /><circle cx="26" cy="60" r="5" fill="#507f10" /><circle cx="65" cy="84" r="12" fill="#be0f32" /><circle cx="57" cy="62" r="8" fill="#722653" /><circle cx="63" cy="6" r="17" fill="#a00cf1" /><circle cx="48" cy="69" r="12" fill="#9c7db6" /><circle cx="10" cy="3" r="16" fill="#08f163" /><circle cx="87" cy="72" r="6" fill="#63de1a" /><circle cx="5" cy="71" r="5" fill="#1a256e" /><circle cx="89" cy="89" r="8" fill="#7c1d43" /><circle cx="6" cy="78" r="17" fill="#b682cc" /><circle cx="45" cy="50" r="15" fill="#7a4912" /><circle cx="71" cy="1" r="12" fill="#8108e1" /><circle cx="29" cy="81" r="11" fill="#46be09" /><circle cx="98" cy="56" r="9" fill="#10b507" /><circle cx="57" cy="20" r="18" fill="#42bd1d" /><circle cx="46" cy="96" r="6" fill="#129dbb" /><circle cx="50" cy="77" r="10" fill="#dd20fe" /><circle cx="79" cy="16" r="10" fill="#6a4dcd" /><circle cx="69" cy="97" r="15" fill="#d7efe7" /><circle cx="91" cy="66" r="17" fill="#bfb7d4" /><circle cx="36" cy="54" r="12" fill="#894f4d" /><circle cx="19" cy="62" r="12" fill="#75ca11" /><circle cx="91" cy="11" r="13" fill="#f129cf" /><circle cx="37" cy="44" r="11" fill="#9079d0" /><circle cx="76" cy="71" r="10" fill="#d4e602" /><circle cx="84" cy="96" r="17" fill="#db373c" /><circle cx="92" cy="82" r="13" fill="#b94416" /><circle cx="80" cy="20" r="6" fill="#f2e3b7" /><circle cx="2" cy="24" r="10" fill="#d0ecfd" /><circle cx="95" cy="89" r="7" fill="#56b0dd" /><circle cx="15" cy="44" r="15" fill="#770918" /><circle cx="93" cy="46" r="14" fill="#6fcbf8" /><circle cx="42" cy="70" r="5" fill="#0bdc3b" /><circle cx="11" cy="92" r="14" fill="#8cd241" /><circle cx="12" cy="88" r="11" fill="#2ecc74" /><circle cx="62" cy="16" r="20" fill="#405b4b" /><circle cx="73" cy="41" r="5" fill="#125b0e" /><circle cx="81" cy="69" r="17" fill="#8d08cf" /><circle cx="71" cy="59" r="12" fill="#4fc18b" /><circle cx="61" cy="70" r="8" fill="#8de87b" /><circle cx="54" cy="83" r="20" fill="#451767" /><circle cx="92" cy="97" r="19" fill="#6a729c" /><circle cx="10" cy="32" r="12" fill="#024866" /><circle cx="77" cy="49" r="18" fill="#683c54" /><circle cx="23" cy="76" r="6" fill="#9b4d73" /><circle cx="69" cy="67" r="8" fill="#8e6318" /><circle cx="54" cy="59" r="13" fill="#b4f4ce" /><circle cx="97" cy="23" r="12" fill="#a051d7" /><circle cx="46" cy="100" r="6" fill="#7ac386" /><circle cx="66" cy="72" r="7" fill="#c9438c" /><circle cx="83" cy="97" r="14" fill="#99903c" /><circle cx="81" cy="53" r="13" fill="#593423" /><circle cx="14" cy="36" r="16" fill="#b25493" /><circle cx="90" cy="26" r="7" fill="#fea8a8" /><circle cx="19" cy="31" r="10" fill="#b03c76" /><circle cx="34" cy="54" r="10" fill="#6dcfea" /><circle cx="77" cy="12" r="16" fill="#7e1fb0" /><circle cx="84" cy="68" r="12" fill="#e86cf3" /><circle cx="16" cy="91" r="18" fill="#1a629a" /><circle cx="50" cy="46" r="11" fill="#5d8ebf" /><circle cx="66" cy="30" r="8" fill="#09ffe0" /><circle cx="29" cy="46" r="6" fill="#555523" /><circle cx="6" cy="81" r="20" fill="#3a563c" /><circle cx="37" cy="81" r="11" fill="#495c1b" /><circle cx="63" cy="60" r="9" fill="#3db356" /><circle cx="40" cy="88" r="5" fill="#54700f" /><circle cx="45" cy="100" r="7" fill="#1923dc" /><circle cx="8" cy="99" r="19" fill="#752199" /><circle cx="12" cy="8" r="10" fill="#ce7f4e" /><circle cx="41" cy="51" r="15" fill="#6f851b" /><circle cx="58" cy="41" r="20" fill="#43e45e" /><circle cx="22" cy="70" r="12" fill="#01c783" /><circle cx="21" cy="65" r="13" fill="#8a1e4e" /><circle cx="71" cy="19" r="8" fill="#fd8359" /><circle cx="3" cy="86" r="19" fill="#081bd0" /><circle cx="8" cy="94" r="16" fill="#152177" /><circle cx="33" cy="18" r="6" fill="#cd3a0f" /><circle cx="100" cy="83" r="14" fill="#90619a" /><circle cx="18" cy="69" r="9" fill="#53bdef" /><circle cx="31" cy="79" r="19" fill="#2d9c83" /><circle cx="87" cy="6" r="6" fill="#3b6843" /><circle cx="16" cy="97" r="5" fill="#20eb12" /><circle cx="96" cy="44" r="20" fill="#b98004" /><circle cx="41" cy="38" r="20" fill="#bb4dc6" /><circle cx="52" cy="74" r="19" fill="#22ec9b" /><circle cx="65" cy="36" r="7" fill="#534299" /><circle cx="13" cy="100" r="15" fill="#83d65a" /><circle cx="23" cy="85" r="9" fill="#5a7fb6" /><circle cx="10" cy="16" r="6" fill="#d12250" /><circle cx="4" cy="53" r="19" fill="#d983c3" /><circle cx="43" cy="80" r="6" fill="#470080" /><circle cx="35" cy="13" r="7" fill="#c3936e" /><circle cx="45" cy="41" r="15" fill="#a0c754" /><circle cx="19" cy="43" r="9" fill="#800ce8" /><circle cx="62" cy="89" r="5" fill="#91d332" /><circle cx="37" cy="7" r="18" fill="#e7e38d" /><circle cx="73" cy="39" r="18" fill="#0cb578" /><circle cx="81" cy="66" r="16" fill="#2495ce" /><circle cx="92" cy="49" r="14" fill="#f2ad66" /><circle cx="49" cy="43" r="18" fill="#284751" /><circle cx="7" cy="68" r="19" fill="#82359b" /><circle cx="32" cy="48" r="10" fill="#88762e" /><circle cx="37" cy="74" r="18" fill="#b3f276" /><circle cx="91" cy="25" r="10" fill="#35e801" /><circle cx="10" cy="37" r="17" fill="#92e3ce" /><circle cx="31" cy="24" r="19" fill="#4e8114" /><circle cx="75" cy="87" r="6" fill="#20feef" /><circle cx="86" cy="37" r="17" fill="#1e3460" /><circle cx="16" cy="34" r="9" fill="#e4ed1c" /><circle cx="47" cy="58" r="20" fill="#8d18d5" /><circle cx="76" cy="58" r="8" fill="#8397ee" /><circle cx="74" cy="31" r="11" fill="#e4d0d3" /><circle cx="45" cy="4" r="11" fill="#d74554" /><circle cx="31" cy="3" r="12" fill="#51b264" /><circle cx="56" cy="96" r="8" fill="#d396b7" /><circle cx="79" cy="53" r="5" fill="#e5ae62" /><circle cx="35" cy="72" r="9" fill="#fd1c4b" /><circle cx="71" cy="4" r="18" fill="#f430ea" /><circle cx="30" cy="64" r="17" fill="#5d0a80" /><circle cx="72" cy="57" r="13" fill="#a65257" /><circle cx="36" cy="87" r="19" fill="#5230b4" /><circle cx="95" cy="17" r="15" fill="#e8a920" /><circle cx="0" cy="54" r="7" fill="#14aa33" /><circle cx="34" cy="74" r="11" fill="#92972b" /><circle cx="82" cy="48" r="5" fill="#b6cc55" /><circle cx="78" cy="77" r="20" fill="#d76a86" /><circle cx="33" cy="71" r="19" fill="#67a20e" /><circle cx="35" cy="91" r="5" fill="#03a40d" /><circle cx="47" cy="93" r="19" fill="#6fea05" /><circle cx="28" cy="67" r="10" fill="#93b1d0" /><circle cx="47" cy="27" r="6" fill="#9038b7" /><circle cx="41" cy="53" r="14" fill="#c9dceb" /><circle cx="48" cy="15" r="12" fill="#f3544a" /><circle cx="48" cy="7" r="16" fill="#231642" /><circle cx="74" cy="11" r="13" fill="#763139" /><circle cx="88" cy="8" r="20" fill="#d93427" /><circle cx="17" cy="38" r="6" fill="#bf1074" /><circle cx="94" cy="75" r="19" fill="#01e06b" /><circle cx="82" cy="25" r="13" fill="#0d8083" /><circle cx="88" cy="94" r="16" fill="#585d80" /><circle cx="21" cy="50" r="14" fill="#46593a" /><circle cx="21" cy="50" r="11" fill="#645be2" /><circle cx="57" cy="51" r="11" fill="#b14a0f" /><circle cx="45" cy="30" r="15" fill="#0ec12c" /><circle cx="58" cy="8" r="18" fill="#d33505" /><circle cx="62" cy="10" r="5" fill="#435b6d" /><circle cx="44" cy="71" r="11" fill="#b354f1" /><circle cx="48" cy="100" r="7" fill="#fefa07" /><circle cx="63" cy="50" r="7" fill="#92b8ee" /><circle cx="88" cy="36" r="19" fill="#57e70b" /><circle cx="64" cy="17" r="16" fill="#06f614" /><circle cx="65" cy="95" r="17" fill="#7758a0" /><circle cx="26" cy="98" r="8" fill="#751f03" /><circle cx="60" cy="44" r="13" fill="#323ee7" /><circle cx="81" cy="14" r="14" fill="#56a95a" /><circle cx="30" cy="29" r="8" fill="#90d0af" /><circle cx="53" cy="4" r="13" fill="#b39bf5" /><circle cx="21" cy="22" r="10" fill="#25d388" /><circle cx="0" cy="35" r="20" fill="#8e5f80" /><circle cx="49" cy="48" r="13" fill="#b80a8a" /><circle cx="22" cy="50" r="9" fill="#119d22" /><circle cx="34" cy="31" r="8" fill="#8eff16" /><circle cx="77" cy="31" r="10" fill="#6188d9" /><circle cx="69" cy="77" r="12" fill="#3e9140" /><circle cx="25" cy="86" r="12" fill="#eb5d83" /><circle cx="99" cy="84" r="11" fill="#bc0643" /><circle cx="3" cy="89" r="5" fill="#538028" /><circle cx="5" cy="52" r="19" fill="#768001" /><circle cx="76" cy="96" r="10" fill="#3b69b9" /><circle cx="16" cy="82" r="18" fill="#651ab6" /><circle cx="2" cy="40" r="9" fill="#558cb8" /><circle cx="91" cy="82" r="13" fill="#0efae6" /><circle cx="56" cy="22" r="19" fill="#5adfbb" /><circle cx="25" cy="58" r="20" fill="#77c127" /><circle cx="39" cy="47" r="7" fill="#2274d3" /><circle cx="77" cy="30" r="8" fill="#60f73d" /><circle cx="73" cy="68" r="15" fill="#a2e2c9" /><circle cx="36" cy="2" r="15" fill="#7f0837" /><circle cx="78" cy="5" r="18" fill="#a8df17" /><circle cx="6" cy="65" r="6" fill="#b4bc21" /><circle cx="77" cy="36" r="12" fill="#2beb26" /><circle cx="37" cy="29" r="11" fill="#24c9cf" /><circle cx="54" cy="49" r="12" fill="#62852a" /><circle cx="52" cy="89" r="9" fill="#31ad8c" /><circle cx="49" cy="47" r="8" fill="#030b60" /><circle cx="92" cy="87" r="7" fill="#77f4db" /><circle cx="39" cy="32" r="19" fill="#e3353d" /><circle cx="39" cy="2" r="7" fill="#4b5227" /><circle cx="76" cy="32" r="7" fill="#8788a2" /><circle cx="58" cy="97" r="18" fill="#03e3ac" /><circle cx="75" cy="44" r="19" fill="#3df9d8" /><circle cx="59" cy="37" r="18" fill="#debe14" /><circle cx="57" cy="25" r="16" fill="#fc8d36" /><circle cx="74" cy="54" r="12" fill="#554ceb" /><circle cx="98" cy="94" r="19" fill="#919fb1" /><circle cx="17" cy="32" r="9" fill="#5d7f8b" /><circle cx="80" cy="58" r="19" fill="#d3372c" /><circle cx="61" cy="93" r="6" fill="#88e6bb" /><circle cx="32" cy="20" r="15" fill="#c0ac68" /><circle cx="10" cy="27" r="18" fill="#1ee90d" /><circle cx="76" cy="40" r="17" fill="#bf0963" /><circle cx="66" cy="50" r="7" fill="#748b28" /><circle cx="10" cy="51" r="12" fill="#7f6d28" /><circle cx="55" cy="80" r="10" fill="#f79f27" /><circle cx="28" cy="12" r="14" fill="#4c3f2a" /><circle cx="43" cy="40" r="18" fill="#84c614" /><circle cx="57" cy="79" r="6" fill="#254bda" /><circle cx="52" cy="42" r="20" fill="#53de7b" /><circle cx="84" cy="31" r="8" fill="#29a893" /><circle cx="34" cy="45" r="11" fill="#446343" /><circle cx="10" cy="51" r="18" fill="#2ad683" /><circle cx="33" cy="8" r="8" fill="#8c731d" /><circle cx="21" cy="26" r="18" fill="#c97bd2" /><circle cx="89" cy="77" r="16" fill="#886f4b" /><circle cx="30" cy="16" r="6" fill="#d532ab" /><circle cx="96" cy="59" r="20" fill="#4d3d6e" /><circle cx="23" cy="61" r="20" fill="#b8e4d9" /><circle cx="26" cy="48" r="9" fill="#8bfe39" /><circle cx="8" cy="46" r="13" fill="#58d646" /><circle cx="82" cy="62" r="13" fill="#0dd19a" /><circle cx="84" cy="11" r="18" fill="#c46eb0" /><circle cx="53" cy="19" r="10" fill="#889ad9" /><circle cx="46" cy="43" r="17" fill="#c52c68" /><circle cx="60" cy="91" r="14" fill="#59aad7" /><circle cx="27" cy="24" r="17" fill="#bf2910" /><circle cx="91" cy="15" r="9" fill="#a0905e" /><circle cx="2" cy="7" r="10" fill="#f5b233" /><circle cx="44" cy="43" r="7" fill="#b41983" /><circle cx="1" cy="21" r="7" fill="#a13601" /><circle cx="48" cy="92" r="12" fill="#86d139" /><circle cx="8" cy="67" r="9" fill="#2f67f6" /><circle cx="54" cy="0" r="6" fill="#bf1b22" /><circle cx="25" cy="29" r="8" fill="#9edfdc" /><circle cx="20" cy="0" r="15" fill="#05b71e" /><circle cx="57" cy="12" r="5" fill="#c20900" /><circle cx="14" cy="81" r="5" fill="#c9ced8" /><circle cx="96" cy="24" r="11" fill="#8aac73" /><circle cx="79" cy="70" r="12" fill="#dcf7d8" /><circle cx="80" cy="3" r="6" fill="#16ef31" /><circle cx="86" cy="92" r="11" fill="#024273" /><circle cx="9" cy="93" r="16" fill="#79de21" /><circle cx="56" cy="54" r="9" fill="#27e5f3" /><circle cx="23" cy="67" r="16" fill="#52de84" /><circle cx="67" cy="50" r="18" fill="#8c1d92" /><circle cx="2" cy="31" r="20" fill="#858945" /><circle cx="29" cy="59" r="16" fill="#95d44a" /><circle cx="82" cy="11" r="10" fill="#4ccf83" /><circle cx="17" cy="26" r="7" fill="#9c06be" /><circle cx="95" cy="51" r="17" fill="#5c1b41" /><circle cx="23" cy="45" r="20" fill="#f0afd8" /><circle cx="81" cy="64" r="6" fill="#ec8dc8" /><circle cx="30" cy="83" r="17" fill="#8dc3e5" /><circle cx="67" cy="71" r="9" fill="#680bc5" /><circle cx="82" cy="59" r="14" fill="#5dd360" /><circle cx="52" cy="4" r="11" fill="#3c8da4" /><circle cx="30" cy="46" r="15" fill="#9ec867" /><circle cx="36" cy="28" r="8" fill="#5ce324" /><circle cx="93" cy="95" r="16" fill="#f79d09" /><circle cx="67" cy="65" r="5" fill="#1ca7a7" /><circle cx="48" cy="57" r="11" fill="#43e906" /><circle cx="29" cy="14" r="6" fill="#b830d1" /><circle cx="97" cy="81" r="15" fill="#abec6d" /><circle cx="16" cy="42" r="9" fill="#94e7ad" /><circle cx="2" cy="20" r="14" fill="#a4e2ad" /><circle cx="55" cy="35" r="7" fill="#3efe18" /><circle cx="14" cy="49" r="20" fill="#b33c1f" /><circle cx="98" cy="95" r="17" fill="#2f3a28" /><circle cx="9" cy="96" r="12" fill="#22a63e" /><circle cx="66" cy="29" r="15" fill="#25b51e" /><circle cx="74" cy="61" r="16" fill="#1b4f38" /><circle cx="25" cy="41" r="11" fill="#1fdfb0" /><circle cx="74" cy="36" r="6" fill="#79f675" /><circle cx="96" cy="24" r="20" fill="#00f799" /><circle cx="85" cy="66" r="5" fill="#afca89" /><circle cx="56" cy="83" r="5" fill="#68773c" /><circle cx="66" cy="84" r="6" fill="#affc24" /><circle cx="85" cy="95" r="10" fill="#ed51a9" /><circle cx="53" cy="55" r="15" fill="#0d55da" /><circle cx="32" cy="91" r="12" fill="#8e2307" /><circle cx="67" cy="4" r="18" fill="#a01549" /><circle cx="34" cy="16" r="19" fill="#b47115" /><circle cx="73" cy="81" r="16" fill="#7db01c" /><circle cx="52" cy="28" r="10" fill="#dd2940" /><circle cx="79" cy="88" r="19" fill="#55464e" /><circle cx="1" cy="37" r="18" fill="#e49698" /><circle cx="40" cy="99" r="18" fill="#34a476" /><circle cx="57" cy="22" r="18" fill="#ad26bd" /><circle cx="73" cy="29" r="5" fill="#de16d5" /><circle cx="7" cy="81" r="20" fill="#41800f" /><circle cx="98" cy="55" r="14" fill="#89f812" /><circle cx="62" cy="8" r="19" fill="#ea8aa1" /><circle cx="79" cy="70" r="16" fill="#0c3c1e" /><circle cx="30" cy="98" r="13" fill="#ace73a" /><circle cx="83" cy="33" r="11" fill="#c87b42" /><circle cx="47" cy="5" r="14" fill="#53f668" /><circle cx="82" cy="18" r="9" fill="#619c7d" /><circle cx="99" cy="40" r="20" fill="#7975cf" /><circle cx="95" cy="43" r="14" fill="#ac2110" /><circle cx="87" cy="23" r="12" fill="#309130" /><circle cx="99" cy="46" r="7" fill="#310577" /><circle cx="4" cy="28" r="17" fill="#414e34" /><circle cx="6" cy="3" r="5" fill="#2c1a1c" /><circle cx="86" cy="31" r="10" fill="#01e257" /><circle cx="25" cy="94" r="18" fill="#b211d7" /><circle cx="56" cy="56" r="16" fill="#7429e2" /><circle cx="90" cy="53" r="8" fill="#296d8b" /><circle cx="75" cy="90" r="10" fill="#099b28" /><circle cx="29" cy="99" r="9" fill="#51ed6c" /><circle cx="58" cy="19" r="17" fill="#e15496" /><circle cx="73" cy="7" r="15" fill="#47e5c8" /><circle cx="66" cy="13" r="9" fill="#a6eb10" /><circle cx="74" cy="95" r="20" fill="#f9d168" /><circle cx="36" cy="2" r="15" fill="#b54a86" /><circle cx="10" cy="20" r="6" fill="#17fe99" /><circle cx="6" cy="53" r="9" fill="#b0bf83" /><circle cx="48" cy="46" r="16" fill="#9008f7" /><circle cx="51" cy="13" r="8" fill="#428ee9" /><circle cx="65" cy="1" r="12" fill="#aeb798" /><circle cx="70" cy="41" r="15" fill="#78ca9c" /><circle cx="57" cy="1" r="19" fill="#651281" /><circle cx="12" cy="11" r="17" fill="#7ce4ec" /><circle cx="38" cy="16" r="12" fill="#47eae3" /><circle cx="20" cy="3" r="17" fill="#dc29c8" /><circle cx="39" cy="72" r="6" fill="#cecb21" /><circle cx="61" cy="51" r="16" fill="#09ff2f" /><circle cx="52" cy="75" r="9" fill="#c4aad0" /><circle cx="39" cy="90" r="17" fill="#ec1358" /><circle cx="98" cy="55" r="16" fill="#4d81ab" /><circle cx="32" cy="85" r="18" fill="#98ca8f" /><circle cx="4" cy="40" r="12" fill="#76a213" /><circle cx="96" cy="52" r="17" fill="#443237" /><circle cx="65" cy="28" r="11" fill="#0c98c5" /><circle cx="14" cy="25" r="10" fill="#0407e6" /><circle cx="25" cy="16" r="12" fill="#195937" /><circle cx="87" cy="78" r="11" fill="#77de75" /><circle cx="53" cy="28" r="15" fill="#3a326d" /><circle cx="92" cy="100" r="11" fill="#a2128f" /><circle cx="47" cy="29" r="13" fill="#0f088d" /><circle cx="38" cy="21" r="19" fill="#1ad976" /><circle cx="88" cy="34" r="15" fill="#f4a650" /><circle cx="48" cy="82" r="11" fill="#eb8548" /><circle cx="51" cy="83" r="11" fill="#86b749" /><circle cx="33" cy="48" r="9" fill="#107415" /><circle cx="7" cy="25" r="7" fill="#493351" /><circle cx="56" cy="90" r="10" fill="#2c8ac9" /><circle cx="34" cy="96" r="9" fill="#95469b" /><circle cx="55" cy="50" r="13" fill="#af774b" /><circle cx="12" cy="46" r="8" fill="#fbe713" /><circle cx="0" cy="15" r="20" fill="#299d67" /><circle cx="29" cy="24" r="10" fill="#cab064" /><circle cx="54" cy="51" r="16" fill="#9255f1" /><circle cx="59" cy="39" r="10" fill="#cee206" /><circle cx="97" cy="2" r="7" fill="#921093" /><circle cx="34" cy="55" r="11" fill="#83538c" /><circle cx="33" cy="62" r="6" fill="#981b64" /><circle cx="20" cy="98" r="5" fill="#70af47" /><circle cx="75" cy="84" r="15" fill="#29aac5" /><circle cx="91" cy="30" r="13" fill="#399198" /><circle cx="52" cy="76" r="8" fill="#1c52e1" /><circle cx="2" cy="39" r="8" fill="#a100f5" /><circle cx="82" cy="38" r="11" fill="#514122" /><circle cx="1" cy="10" r="7" fill="#e5e77f" /><circle cx="78" cy="90" r="18" fill="#d412ab" /><circle cx="53" cy="52" r="5" fill="#6308c4" /><circle cx="69" cy="32" r="12" fill="#73ccde" /><circle cx="88" cy="36" r="10" fill="#cd075e" /><circle cx="91" cy="67" r="8" fill="#4a7af1" /><circle cx="28" cy="18" r="17" fill="#5e560f" /><circle cx="18" cy="25" r="12" fill="#bb314b" /><circle cx="77" cy="36" r="10" fill="#7f670d" /><circle cx="58" cy="67" r="11" fill="#32b451" /><circle cx="34" cy="22" r="5" fill="#119015" /><circle cx="61" cy="88" r="9" fill="#426433" /><circle cx="89" cy="75" r="18" fill="#47dfbc" /><circle cx="99" cy="67" r="5" fill="#38fb12" /><circle cx="96" cy="74" r="9" fill="#315acf" /><circle cx="42" cy="0" r="7" fill="#6a613a" /><circle cx="74" cy="43" r="15" fill="#07af6c" /><circle cx="11" cy="51" r="8" fill="#52b9fb" /><circle cx="52" cy="61" r="9" fill="#eb5072" /><circle cx="56" cy="33" r="20" fill="#8456a7" /><circle cx="64" cy="98" r="18" fill="#ab8ed2" /><circle cx="92" cy="23" r="6" fill="#1f1c59" /><circle cx="86" cy="73" r="17" fill="#5270e2" /><circle cx="2" cy="50" r="7" fill="#ae74b4" /><circle cx="55" cy="40" r="12" fill="#2a7bfb" /><circle cx="29" cy="26" r="6" fill="#d63265" /><circle cx="56" cy="3" r="10" fill="#d6e149" /><circle cx="52" cy="6" r="7" fill="#080fa6" /><circle cx="33" cy="44" r="12" fill="#b44615" /><circle cx="40" cy="7" r="15" fill="#314447" /><circle cx="4" cy="17" r="10" fill="#88ea83" /><circle cx="36" cy="55" r="20" fill="#3d2935" /><circle cx="16" cy="55" r="11" fill="#02ee2f" /><circle cx="61" cy="16" r="8" fill="#ed4a48" /><circle cx="52" cy="59" r="13" fill="#e52cba" /><circle cx="1" cy="27" r="10" fill="#af0560" /><circle cx="78" cy="95" r="18" fill="#63c5d5" /><circle cx="43" cy="67" r="7" fill="#ae0f82" /><circle cx="4" cy="31" r="8" fill="#6607f5" /><circle cx="16" cy="59" r="13" fill="#6d1d38" /><circle cx="65" cy="39" r="19" fill="#76f6cf" /><circle cx="8" cy="64" r="7" fill="#eb001b" /><circle cx="83" cy="63" r="8" fill="#7147ab" /><circle cx="13" cy="17" r="6" fill="#2d873d" /><circle cx="90" cy="34" r="19" fill="#de53d7" /><circle cx="28" cy="82" r="9" fill="#96197d" /><circle cx="72" cy="4" r="9" fill="#5c6883" /><circle cx="91" cy="28" r="8" fill="#9b251b" /></svg>