<svg xmlns="http://www.w3.org/2000/svg" width="100" height="100"><circle cx="87" cy="55" r="8" fill="#85b238" /><circle cx="82" cy="49" r="7" fill="#d41ff9" /><circle cx="17" cy="76" r="19" fill="#58132b" /><circle cx="33" cy="24" r="12" fill="#f6d6a6" /><circle cx="79" cy="14" r="18" fill="#2c557c" /><circle cx="12" cy="69" r="9" fill="#b3d524" /><circle cx="0" cy="76" r="18" fill="#4af913" /><circle cx="94" cy="65" r="14" fill="#d5a49c" /><circle cx="79" cy="19" r="14" fill="#20bb79" /><circle cx="88" cy="6" r="11" fill="#159962" /><circle cx="86" cy="63" r="7" fill="#443b42" /><circle cx="30" cy="31" r="11" fill="#7fdb73" /><circle cx="52" cy="83" r="11" fill="#6e80e9" /><circle cx="91" cy="40" r="18" fill="#6eea2a" /><circle cx="37" cy="33" r="16" fill="#e5e25b" /><circle cx="5" cy="49" r="11" fill="#9fa124" /><circle cx="73" cy="3" r="15" fill="#5d18b5" /><circle cx="55" cy="19" r="15" fill="#8ee453" /><circle cx="75" cy="29" r="11" fill="#21e6a8" /><circle cx="21" cy="100" r="15" fill="#47286d" /><circle cx="70" cy="2" r="14" fill="#cecd96" /><circle cx="27" cy="92" r="18" fill="#6fc8cc" /><circle cx="79" cy="82" r="13" fill="#f01ebd" /><circle cx="5" cy="26" r="16" fill="#1426f1" /><circle cx="0" cy="65" r="15" fill="#8f28a0" /><circle cx="66" cy="0" r="7" fill="#ba7899" /><circle cx="40" cy="62" r="7" fill="#8bd9fb" /><circle cx="98" cy="21" r="20" fill="#77cedd" /><circle cx="63" cy="65" r="8" fill="#5a8a5a" /><circle cx="83" cy="4" r="13" fill="#78a035" /><circle cx="31" cy="34" r="7" fill="#bd2b7a" /><circle cx="96" cy="81" r="17" fill="#735e5b" /><circle cx="49" cy="0" r="11" fill="#75f7ba" /><circle cx="90" cy="50" r="14" fill="#993d1f" /><circle cx="80" cy="89" r="8" fill="#35d5f9" /><circle cx="8" cy="83" r="5" fill="#a3544c" /><circle cx="99" cy="96" r="17" fill="#bc0987" /><circle cx="84" cy="69" r="13" fill="#f80443" /><circle cx="90" cy="88" r="13" fill="#1347f7" /><circle cx="50" cy="47" r="15" fill="#f64a5e" /><circle cx="30" cy="36" r="7" fill="#92cd94" /><circle cx="65" cy="20" r="17" fill="#a86d49" /><circle cx="34" cy="41" r="13" fill="#627650" /><circle cx="41" cy="59" r="6" fill="#e4dc74" /><circle cx="1" cy="58" r="8" fill="#1968ae" /><circle cx="30" cy="35" r="8" fill="#b74378" /><circle cx="42" cy="30" r="12" fill="#c01bc6" /><circle cx="10" cy="6" r="7" fill="#a45b6e" /><circle cx="6" cy="37" r="11" fill="#141990" /><circle cx="50" cy="47" r="9" fill="#cca2ea" /><circle cx="43" cy="71" r="7" fill="#2a280e" /><circle cx="93" cy="36" r="8" fill="#8bbfca" /><circle cx="19" cy="92" r="17" fill="#65cdff" /><circle cx="68" cy="8" r="7" fill="#616118" /><circle cx="57" cy="9" r="10" fill="#447eb3" /><circle cx="8" cy="16" r="15" fill="#6488bf" /><circle cx="31" cy="18" r="19" fill="#533044" /><circle cx="53" cy="21" r="19" fill="#b847ff" /><circle cx="11" cy="100" r="6" fill="#0d7373" /><circle cx="63" cy="83" r="7" fill="#12afb8" /><circle cx="98" cy="47" r="11" fill="#57943d" /><circle cx="91" cy="61" r="16" fill="#151552" /><circle cx="9" cy="67" r="14" fill="#a2c78a" /><circle cx="58" cy="67" r="15" fill="#8482ed" /><circle cx="68" cy="35" r="5" fill="#a1e446" /><circle cx="65" cy="42" r="8" fill="#e793dd" /><circle cx="63" cy="59" r="10" fill="#fabe6b" /><circle cx="75" cy="47" r="15" fill="#958cae" /><circle cx="33" cy="46" r="18" fill="#066c33" /><circle cx="43" cy="31" r="20" fill="#91d9c5" /><circle cx="48" cy="80" r="15" fill="#6e5647" /><circle cx="53" cy="98" r="15" fill="#ec42dd" /><circle cx="12" cy="21" r="16" fill="#570c59" /><circle cx="86" cy="46" r="12" fill="#bf77d7" /><circle cx="12" cy="78" r="8" fill="#4da4bd" /><circle cx="56" cy="35" r="10" fill="#f6b8c9" /><circle cx="61" cy="37" r="17" fill="#51a956" /><circle cx="47" cy="78" r="11" fill="#85f9b8" /><circle cx="84" cy="84" r="11" fill="#e94346" /><circle cx="3" cy="60" r="8" fill="#78f479" /><circle cx="32" cy="52" r="15" fill="#681034" /><circle cx="75" cy="38" r="19" fill="#d583ad" /><circle cx="43" cy="0" r="10" fill="#d34a1f" /><circle cx="1" cy="76" r="7" fill="#d8848a" /><circle cx="99" cy="84" r="9" fill="#4c683a" /><circle cx="99" cy="61" r="13" fill="#4609b9" /><circle cx="44" cy="10" r="19" fill="#a89d5f" /><circle cx="84" cy="59" r="6" fill="#bb4ebc" /><circle cx="94" cy="7" r="17" fill="#fe14e7" /><circle cx="92" cy="22" r="18" fill="#78f33e" /><circle cx="28" cy="13" r="12" fill="#54443c" /><circle cx="40" cy="34" r="8" fill="#ab8f77" /><circle cx="24" cy="48" r="14" fill="#3453c3" /><circle cx="7" cy="92" r="6" fill="#8d39fc" /><circle cx="44" cy="62" r="7" fill="#a8d513" /><circle cx="19" cy="54" r="20" fill="#470fc9" /><circle cx="44" cy="5" r="6" fill="#3f4de2" /><circle cx="84" cy="98" r="18" fill="#ae4a16" /><circle cx="22" cy="36" r="18" fill="#dc3a7d" /><circle cx="25" cy="12" r="17" fill="#26053c" /><circle cx="26" cy="61" r="14" fill="#7b4d77" /><circle cx="48" cy="57" r="10" fill="#84882d" /><circle cx="29" cy="96" r="17" fill="#3771ec" /><circle cx="43" cy="41" r="14" fill="#97f4ea" /><circle cx="8" cy="95" r="18" fill="#e0a8cc" /><circle cx="88" cy="78" r="12" fill="#ba0095" /><circle cx="20" cy="91" r="6" fill="#26d7f2" /></svg>