<svg xmlns="http://www.w3.org/2000/svg" width="100" height="100"><circle cx="40" cy="10" r="18" fill="#85184b" /><circle cx="45" cy="90" r="8" fill="#ef115b" /><circle cx="18" cy="96" r="13" fill="#658eec" /><circle cx="37" cy="93" r="17" fill="#e476d5" /><circle cx="11" cy="35" r="9" fill="#b5d33a" /><circle cx="8" cy="93" r="5" fill="#753dcd" /><circle cx="81" cy="36" r="11" fill="#20b624" /><circle cx="19" cy="62" r="12" fill="#4d92a2" /><circle cx="90" cy="6" r="6" fill="#189f01" /><circle cx="46" cy="86" r="7" fill="#cbb74c" /><circle cx="33" cy="68" r="12" fill="#6c50d4" /><circle cx="89" cy="64" r="18" fill="#9fa7a4" /><circle cx="57" cy="20" r="13" fill="#8a4a1a" /><circle cx="36" cy="56" r="19" fill="#895c8c" /><circle cx="5" cy="25" r="9" fill="#b2f84f" /><circle cx="77" cy="43" r="15" fill="#09f14f" /><circle cx="31" cy="50" r="13" fill="#bada51" /><circle cx="32" cy="91" r="20" fill="#1c4ef3" /><circle cx="24" cy="41" r="14" fill="#b4370b" /><circle cx="61" cy="55" r="16" fill="#1bab7c" /><circle cx="18" cy="63" r="19" fill="#d5ab33" /><circle cx="21" cy="79" r="10" fill="#1b74b4" /><circle cx="56" cy="99" r="18" fill="#924280" /><circle cx="97" cy="84" r="6" fill="#9dcf04" /><circle cx="35" cy="58" r="6" fill="#0f9ff4" /><circle cx="12" cy="8" r="18" fill="#073b26" /><circle cx="50" cy="64" r="13" fill="#e288f1" /><circle cx="23" cy="35" r="13" fill="#9e27f6" /><circle cx="80" cy="22" r="13" fill="#07a1b5" /><circle cx="0" cy="35" r="10" fill="#7af020" /><circle cx="44" cy="97" r="10" fill="#2918a5" /><circle cx="45" cy="94" r="10" fill="#a1b8af" /><circle cx="66" cy="52" r="18" fill="#d3304f" /><circle cx="56" cy="1" r="15" fill="#d34138" /><circle cx="72" cy="22" r="6" fill="#0d2c65" /><circle cx="78" cy="20" r="20" fill="#b925e3" /><circle cx="74" cy="91" r="16" fill="#d748c4" /><circle cx="50" cy="68" r="8" fill="#597bba" /><circle cx="46" cy="31" r="9" fill="#651cf1" /><circle cx="7" cy="81" r="13" fill="#d0eebb" /><circle cx="37" cy="67" r="8" fill="#7082eb" /><circle cx="21" cy="84" r="7" fill="#79eb8d" /><circle cx="78" cy="82" r="16" fill="#cb426c" /><circle cx="19" cy="16" r="5" fill="#4a460c" /><circle cx="65" cy="6" r="17" fill="#6ae610" /><circle cx="5" cy="90" r="10" fill="#cc17b6" /><circle cx="5" cy="6" r="10" fill="#b94289" /><circle cx="42" cy="92" r="8" fill="#c82648" /><circle cx="5" cy="69" r="14" fill="#17f2af" /><circle cx="91" cy="77" r="19" fill="#74124f" /><circle cx="90" cy="68" r="6" fill="#cef6c6" /><circle cx="3" cy="64" r="12" fill="#bc7f8b" /><circle cx="70" cy="99" r="5" fill="#fc3374" /><circle cx="89" cy="12" r="5" fill="#6333b7" /><circle cx="60" cy="31" r="16" fill="#d03b6a" /><circle cx="38" cy="25" r="11" fill="#00351d" /><circle cx="47" cy="65" r="15" fill="#57265e" /><circle cx="81" cy="92" r="19" fill="#cd8eae" /><circle cx="3" cy="27" r="7" fill="#f9d453" /><circle cx="42" cy="79" r="19" fill="#92d4c5" /><circle cx="72" cy="31" r="6" fill="#4659c3" /><circle cx="79" cy="21" r="10" fill="#0808d7" /><circle cx="16" cy="22" r="13" fill="#0ba2f1" /><circle cx="92" cy="78" r="18" fill="#5b07a7" /><circle cx="28" cy="49" r="11" fill="#77de23" /><circle cx="64" cy="68" r="5" fill="#718282" /><circle cx="69" cy="40" r="14" fill="#e0a3e7" /><circle cx="92" cy="86" r="13" fill="#ecc17e" /><circle cx="94" cy="89" r="17" fill="#7149cf" /><circle cx="19" cy="87" r="7" fill="#178e16" /><circle cx="14" cy="92" r="20" fill="#c8042d" /><circle cx="16" cy="31" r="20" fill="#867a1f" /><circle cx="84" cy="4" r="14" fill="#6a1530" /><circle cx="7" cy="36" r="19" fill="#1a4db1" /><circle cx="78" cy="84" r="15" fill="#4f9170" /><circle cx="28" cy="54" r="8" fill="#fe16a6" /><circle cx="24" cy="82" r="11" fill="#160e19" /><circle cx="94" cy="47" r="12" fill="#dd82ba" /><circle cx="3" cy="35" r="7" fill="#7affc1" /><circle cx="60" cy="66" r="5" fill="#3a17be" /><circle cx="71" cy="40" r="20" fill="#e5f95a" /><circle cx="23" cy="54" r="12" fill="#7dd6b0" /><circle cx="50" cy="29" r="17" fill="#536eb6" /><circle cx="75" cy="18" r="14" fill="#4f071d" /><circle cx="67" cy="38" r="9" fill="#b60bd8" /><circle cx="27" cy="63" r="9" fill="#c97bf8" /><circle cx="29" cy="25" r="7" fill="#90358f" /><circle cx="89" cy="92" r="13" fill="#2bac0b" /><circle cx="21" cy="63" r="11" fill="#29959c" /><circle cx="66" cy="18" r="17" fill="#b1d7e8" /><circle cx="18" cy="70" r="12" fill="#f8190b" /><circle cx="9" cy="12" r="7" fill="#ed12f1" /><circle cx="42" cy="20" r="15" fill="#851f98" /><circle cx="82" cy="18" r="20" fill="#1b7f21" /><circle cx="55" cy="67" r="10" fill="#4f5db7" /><circle cx="89" cy="21" r="6" fill="#40e878" /><circle cx="61" cy="50" r="20" fill="#4663da" /><circle cx="66" cy="29" r="15" fill="#b0ef83" /><circle cx="70" cy="3" r="11" fill="#3f9bd2" /><circle cx="8" cy="70" r="5" fill="#883769" /><circle cx="2" cy="70" r="12" fill="#5bb75f" /><circle cx="33" cy="55" r="13" fill="#72b5c2" /><circle cx="77" cy="44" r="9" fill="#e081d2" /><circle cx="48" cy="88" r="8" fill="#2b91af" /><circle cx="45" cy="4" r="6" fill="#aa9878" /><circle cx="7" cy="5" r="13" fill="#0227e9" /><circle cx="21" cy="30" r="5" fill="#3ce714" /><circle cx="33" cy="93" r="10" fill="#ad72c7" /><circle cx="63" cy="48" r="13" fill="#11008a" /><circle cx="4" cy="31" r="20" fill="#af05b5" /><circle cx="34" cy="16" r="14" fill="#9c2974" /><circle cx="65" cy="90" r="16" fill="#a40438" /><circle cx="50" cy="29" r="13" fill="#4a7e35" /><circle cx="8" cy="15" r="18" fill="#ea95c1" /><circle cx="33" cy="7" r="17" fill="#84aefa" /><circle cx="63" cy="39" r="7" fill="#f13459" /><circle cx="96" cy="86" r="11" fill="#ff15f4" /><circle cx="83" cy="30" r="16" fill="#b6b20e" /><circle cx="24" cy="73" r="18" fill="#bb54be" /><circle cx="99" cy="0" r="14" fill="#8a0275" /><circle cx="73" cy="21" r="6" fill="#2b9606" /><circle cx="16" cy="94" r="13" fill="#340a05" /><circle cx="38" cy="93" r="12" fill="#3ba812" /><circle cx="100" cy="59" r="16" fill="#f8a52f" /><circle cx="37" cy="19" r="7" fill="#614a32" /><circle cx="96" cy="61" r="6" fill="#1484de" /><circle cx="0" cy="93" r="8" fill="#ef1d0b" /><circle cx="49" cy="12" r="10" fill="#f98a66" /><circle cx="4" cy="4" r="19" fill="#7386d1" /><circle cx="26" cy="0" r="10" fill="#9ace9f" /><circle cx="26" cy="2" r="7" fill="#584ab6" /><circle cx="63" cy="89" r="8" fill="#be7c6c" /><circle cx="100" cy="68" r="10" fill="#18c1ce" /><circle cx="43" cy="79" r="10" fill="#f82815" /><circle cx="83" cy="41" r="7" fill="#3a5b28" /><circle cx="46" cy="60" r="7" fill="#625181" /><circle cx="89" cy="61" r="9" fill="#23ef3a" /><circle cx="34" cy="32" r="9" fill="#caed1d" /><circle cx="8" cy="58" r="8" fill="#6454a1" /><circle cx="12" cy="13" r="7" fill="#bbab44" /><circle cx="10" cy="30" r="12" fill="#f01b74" /><circle cx="73" cy="36" r="15" fill="#9c0b1d" /><circle cx="42" cy="71" r="17" fill="#548a4d" /><circle cx="37" cy="40" r="12" fill="#f97b7d" /><circle cx="15" cy="83" r="7" fill="#e3b5f1" /><circle cx="93" cy="83" r="18" fill="#44d620" /><circle cx="25" cy="84" r="12" fill="#8e4915" /><circle cx="41" cy="73" r="11" fill="#a817ab" /><circle cx="57" cy="2" r="11" fill="#fcff31" /><circle cx="43" cy="22" r="12" fill="#2269da" /><circle cx="20" cy="49" r="5" fill="#022915" /><circle cx="55" cy="54" r="13" fill="#e58562" /><circle cx="93" cy="10" r="7" fill="#68c77c" /><circle cx="37" cy="95" r="5" fill="#3c52fd" /><circle cx="98" cy="48" r="10" fill="#3617f9" /><circle cx="62" cy="17" r="5" fill="#a4e0cb" /><circle cx="39" cy="55" r="11" fill="#162536" /><circle cx="93" cy="44" r="20" fill="#409316" /><circle cx="60" cy="30" r="9" fill="#dc2294" /><circle cx="54" cy="80" r="14" fill="#94c5c8" /><circle cx="21" cy="75" r="20" fill="#c78eb5" /><circle cx="65" cy="76" r="8" fill="#5adb84" /><circle cx="96" cy="80" r="11" fill="#4bfdcf" /><circle cx="6" cy="6" r="16" fill="#0c28f2" /><circle cx="66" cy="78" r="15" fill="#9bf4f6" /><circle cx="61" cy="85" r="19" fill="#3f83e6" /><circle cx="90" cy="89" r="5" fill="#5ae732" /><circle cx="48" cy="77" r="6" fill="#ac01eb" /><circle cx="51" cy="27" r="5" fill="#801752" /><circle cx="65" cy="24" r="12" fill="#6fa8f5" /><circle cx="76" cy="79" r="11" fill="#6d49c3" /><circle cx="56" cy="16" r="5" fill="#2ee0f7" /><circle cx="32" cy="2" r="12" fill="#95b8d4" /><circle cx="49" cy="20" r="19" fill="#66bf82" /><circle cx="43" cy="93" r="5" fill="#6632c7" /><circle cx="28" cy="74" r="11" fill="#283858" /><circle cx="22" cy="49" r="10" fill="#acc2bf" /><circle cx="96" cy="52" r="12" fill="#a7c4d1" /><circle cx="89" cy="46" r="14" fill="#f53aae" /><circle cx="28" cy="58" r="19" fill="#b152fa" /><circle cx="60" cy="35" r="17" fill="#8cf489" /><circle cx="26" cy="2" r="12" fill="#e613fd" /><circle cx="95" cy="97" r="13" fill="#f750aa" /><circle cx="75" cy="74" r="6" fill="#6cf7d3" /><circle cx="72" cy="56" r="11" fill="#be4116" /><circle cx="46" cy="36" r="15" fill="#c9f790" /><circle cx="14" cy="45" r="17" fill="#c91e10" /><circle cx="48" cy="90" r="5" fill="#bb4445" /><circle cx="13" cy="52" r="16" fill="#d19b3c" /><circle cx="16" cy="96" r="15" fill="#6df774" /><circle cx="24" cy="59" r="20" fill="#cdcc8c" /><circle cx="17" cy="89" r="16" fill="#016bda" /><circle cx="43" cy="21" r="11" fill="#9a6eaf" /><circle cx="69" cy="75" r="18" fill="#97b9af" /><circle cx="89" cy="41" r="5" fill="#c67d8b" /><circle cx="92" cy="4" r="8" fill="#1686d8" /><circle cx="15" cy="16" r="8" fill="#952937" /><circle cx="99" cy="33" r="8" fill="#d0157f" /><circle cx="88" cy="21" r="15" fill="#8f89fe" /><circle cx="38" cy="98" r="7" fill="#5a1b35" /><circle cx="9" cy="72" r="9" fill="#5c7e17" /><circle cx="100" cy="7" r="15" fill="#641dbd" /><circle cx="79" cy="14" r="18" fill="#31c716" /><circle cx="73" cy="22" r="5" fill="#90951a" /><circle cx="72" cy="54" r="14" fill="#94dc88" /><circle cx="67" cy="82" r="12" fill="#0abe0f" /><circle cx="53" cy="1" r="16" fill="#423bd3" /><circle cx="2" cy="56" r="9" fill="#6bcf51" /><circle cx="93" cy="65" r="17" fill="#3c2e42" /><circle cx="45" cy="3" r="13" fill="#146bf8" /><circle cx="57" cy="100" r="9" fill="#3b62ac" /><circle cx="82" cy="14" r="18" fill="#a9a7b6" /><circle cx="68" cy="68" r="13" fill="#b4b6c0" /><circle cx="75" cy="3" r="16" fill="#7c8368" /><circle cx="1" cy="95" r="11" fill="#202276" /></svg>