<svg xmlns="http://www.w3.org/2000/svg" width="100" height="100"><circle cx="1" cy="37" r="8" fill="#b1d0a8" /><circle cx="61" cy="76" r="18" fill="#03abf7" /><circle cx="56" cy="2" r="12" fill="#2bd4af" /><circle cx="3" cy="79" r="10" fill="#502065" /><circle cx="90" cy="37" r="5" fill="#1b38f4" /><circle cx="23" cy="90" r="7" fill="#0faba7" /><circle cx="7" cy="29" r="12" fill="#2f043e" /><circle cx="94" cy="99" r="16" fill="#5d658a" /><circle cx="71" cy="41" r="8" fill="#19be9f" /><circle cx="7" cy="44" r="7" fill="#31a222" /><circle cx="2" cy="23" r="16" fill="#de0aba" /><circle cx="82" cy="0" r="8" fill="#911e78" /><circle cx="92" cy="47" r="8" fill="#a292db" /><circle cx="18" cy="77" r="11" fill="#a61731" /><circle cx="100" cy="19" r="15" fill="#0eb259" /><circle cx="33" cy="98" r="18" fill="#549ce7" /><circle cx="27" cy="100" r="12" fill="#724c12" /><circle cx="82" cy="66" r="19" fill="#3cce04" /><circle cx="63" cy="5" r="5" fill="#442ed7" /><circle cx="35" cy="99" r="15" fill="#aa07db" /><circle cx="23" cy="37" r="17" fill="#67e0c7" /><circle cx="36" cy="80" r="6" fill="#8314e5" /><circle cx="17" cy="19" r="11" fill="#e9ddcb" /><circle cx="26" cy="68" r="17" fill="#efc8b2" /><circle cx="69" cy="8" r="17" fill="#78815c" /><circle cx="63" cy="50" r="16" fill="#8bc805" /><circle cx="43" cy="25" r="16" fill="#b78510" /><circle cx="92" cy="67" r="6" fill="#bd7b51" /><circle cx="99" cy="69" r="5" fill="#f06e11" /><circle cx="60" cy="87" r="14" fill="#98dd95" /><circle cx="50" cy="57" r="5" fill="#405b31" /><circle cx="54" cy="95" r="7" fill="#8677a9" /><circle cx="91" cy="18" r="15" fill="#9c40e5" /><circle cx="67" cy="60" r="8" fill="#d541f7" /><circle cx="11" cy="45" r="20" fill="#4aa7ff" /><circle cx="75" cy="25" r="14" fill="#ecfbf4" /><circle cx="1" cy="35" r="19" fill="#ca8a89" /><circle cx="66" cy="2" r="18" fill="#cf6c3c" /><circle cx="7" cy="64" r="15" fill="#d58bd0" /><circle cx="55" cy="72" r="8" fill="#113058" /><circle cx="74" cy="31" r="8" fill="#f0a247" /><circle cx="34" cy="70" r="9" fill="#fb6bbf" /><circle cx="17" cy="24" r="12" fill="#1ca39a" /><circle cx="22" cy="24" r="16" fill="#0c9bb6" /><circle cx="56" cy="77" r="8" fill="#a15745" /><circle cx="44" cy="75" r="7" fill="#91a547" /><circle cx="43" cy="83" r="17" fill="#2c9140" /><circle cx="50" cy="15" r="10" fill="#9d9fe3" /><circle cx="45" cy="82" r="13" fill="#42bc8a" /><circle cx="88" cy="24" r="8" fill="#3b8d97" /><circle cx="10" cy="48" r="17" fill="#76e752" /><circle cx="15" cy="56" r="5" fill="#37bb64" /><circle cx="100" cy="9" r="6" fill="#83c595" /><circle cx="53" cy="64" r="10" fill="#3cadac" /><circle cx="68" cy="82" r="11" fill="#9fd387" /><circle cx="59" cy="85" r="7" fill="#8ddd8c" /><circle cx="73" cy="1" r="5" fill="#62d2ae" /><circle cx="69" cy="96" r="20" fill="#f89139" /><circle cx="4" cy="17" r="16" fill="#412e30" /><circle cx="91" cy="95" r="15" fill="#a72f56" /><circle cx="65" cy="88" r="11" fill="#6d55f0" /><circle cx="86" cy="14" r="8" fill="#ce9a08" /><circle cx="24" cy="48" r="8" fill="#961eb7" /><circle cx="48" cy="100" r="5" fill="#8c0483" /><circle cx="74" cy="50" r="8" fill="#cbec88" /><circle cx="38" cy="20" r="19" fill="#031658" /><circle cx="60" cy="15" r="19" fill="#0cf4d1" /><circle cx="99" cy="61" r="12" fill="#24cdf9" /><circle cx="98" cy="62" r="14" fill="#231f09" /><circle cx="29" cy="39" r="16" fill="#a8f126" /><circle cx="55" cy="22" r="15" fill="#897795" /><circle cx="87" cy="50" r="8" fill="#f86b0c" /><circle cx="71" cy="32" r="20" fill="#771031" /><circle cx="25" cy="0" r="15" fill="#2e6648" /><circle cx="22" cy="71" r="14" fill="#76d002" /><circle cx="77" cy="54" r="13" fill="#53ee18" /><circle cx="80" cy="73" r="15" fill="#8d446d" /><circle cx="55" cy="53" r="16" fill="#66c702" /><circle cx="36" cy="1" r="20" fill="#69980d" /><circle cx="56" cy="34" r="5" fill="#a166ab" /><circle cx="75" cy="74" r="20" fill="#a79af6" /><circle cx="90" cy="2" r="7" fill="#cfefef" /><circle cx="83" cy="83" r="12" fill="#f96873" /><circle cx="64" cy="85" r="15" fill="#3d9f70" /><circle cx="78" cy="47" r="10" fill="#44a911" /><circle cx="45" cy="78" r="9" fill="#bd459d" /><circle cx="26" cy="45" r="14" fill="#b1cb29" /><circle cx="16" cy="22" r="7" fill="#ed3445" /><circle cx="9" cy="23" r="16" fill="#d10d93" /><circle cx="0" cy="37" r="9" fill="#40c876" /><circle cx="99" cy="17" r="20" fill="#8c57f9" /><circle cx="100" cy="79" r="9" fill="#11e684" /><circle cx="97" cy="94" r="14" fill="#38a343" /><circle cx="2" cy="46" r="8" fill="#25b2d9" /><circle cx="50" cy="12" r="14" fill="#c45d69" /><circle cx="22" cy="85" r="9" fill="#8c284b" /><circle cx="46" cy="9" r="18" fill="#707220" /><circle cx="18" cy="52" r="8" fill="#e02592" /><circle cx="8" cy="32" r="14" fill="#de294a" /><circle cx="34" cy="1" r="15" fill="#6dee5a" /><circle cx="12" cy="10" r="15" fill="#662cf4" /><circle cx="53" cy="92" r="6" fill="#170dae" /><circle cx="38" cy="99" r="12" fill="#975186" /><circle cx="73" cy="25" r="8" fill="#94691e" /><circle cx="70" cy="64" r="19" fill="#4ea960" /><circle cx="62" cy="96" r="12" fill="#f1ec5c" /><circle cx="55" cy="12" r="15" fill="#d3b35e" /><circle cx="29" cy="45" r="7" fill="#3098de" /><circle cx="80" cy="74" r="19" fill="#90d50f" /><circle cx="71" cy="70" r="5" fill="#fa03bb" /><circle cx="13" cy="5" r="16" fill="#8ba20e" /><circle cx="20" cy="14" r="15" fill="#9d500d" /><circle cx="24" cy="52" r="16" fill="#3d1bdf" /><circle cx="33" cy="85" r="13" fill="#2627ce" /><circle cx="16" cy="63" r="14" fill="#04a394" /><circle cx="21" cy="20" r="12" fill="#9847b4" /><circle cx="86" cy="13" r="10" fill="#e3be88" /><circle cx="64" cy="73" r="7" fill="#eba59a" /><circle cx="55" cy="3" r="14" fill="#ea5888" /><circle cx="38" cy="91" r="15" fill="#d4f86f" /><circle cx="99" cy="25" r="7" fill="#de28fd" /><circle cx="59" cy="9" r="14" fill="#eac7e1" /><circle cx="70" cy="22" r="13" fill="#ee4c93" /><circle cx="6" cy="26" r="20" fill="#25aba8" /><circle cx="14" cy="71" r="12" fill="#9eeb25" /><circle cx="73" cy="24" r="13" fill="#2e6c70" /><circle cx="68" cy="46" r="8" fill="#f7c2ff" /><circle cx="9" cy="79" r="20" fill="#7bc9b3" /><circle cx="44" cy="62" r="9" fill="#65a575" /><circle cx="95" cy="100" r="12" fill="#2d7653" /><circle cx="3" cy="47" r="18" fill="#82431d" /><circle cx="10" cy="59" r="9" fill="#526810" /><circle cx="98" cy="56" r="5" fill="#b23a3f" /><circle cx="69" cy="81" r="8" fill="#423331" /><circle cx="97" cy="95" r="8" fill="#d16461" /><circle cx="14" cy="30" r="10" fill="#34bfc9" /><circle cx="11" cy="98" r="7" fill="#147c0d" /><circle cx="44" cy="1" r="11" fill="#1c942c" /><circle cx="71" cy="32" r="7" fill="#107292" /><circle cx="32" cy="29" r="5" fill="#dfc840" /><circle cx="69" cy="99" r="10" fill="#d34e16" /><circle cx="80" cy="86" r="14" fill="#de36ac" /><circle cx="1" cy="70" r="14" fill="#3f7ac7" /><circle cx="9" cy="70" r="10" fill="#47685a" /><circle cx="62" cy="77" r="7" fill="#cd8172" /><circle cx="96" cy="46" r="9" fill="#0dd683" /><circle cx="13" cy="89" r="11" fill="#bafa8f" /><circle cx="12" cy="68" r="14" fill="#1e9aa4" /><circle cx="2" cy="13" r="18" fill="#0d1cc6" /><circle cx="44" cy="21" r="19" fill="#13ad1c" /><circle cx="42" cy="3" r="13" fill="#98e261" /><circle cx="49" cy="22" r="12" fill="#83712f" /><circle cx="6" cy="0" r="9" fill="#d89351" /><circle cx="70" cy="60" r="15" fill="#da817e" /><circle cx="23" cy="57" r="6" fill="#797513" /><circle cx="63" cy="37" r="15" fill="#9996d0" /><circle cx="65" cy="99" r="5" fill="#f8220c" /><circle cx="14" cy="72" r="13" fill="#67f21a" /><circle cx="9" cy="72" r="8" fill="#3d5c07" /><circle cx="66" cy="87" r="6" fill="#27eb5a" /><circle cx="37" cy="95" r="18" fill="#9fc564" /><circle cx="96" cy="47" r="9" fill="#aa5d49" /><circle cx="93" cy="42" r="19" fill="#74e477" /><circle cx="83" cy="73" r="17" fill="#57623a" /><circle cx="14" cy="38" r="6" fill="#9fad6e" /><circle cx="90" cy="45" r="10" fill="#399f7a" /><circle cx="18" cy="3" r="8" fill="#d61e18" /><circle cx="16" cy="86" r="18" fill="#ae15df" /><circle cx="6" cy="84" r="15" fill="#54d0f9" /><circle cx="80" cy="54" r="14" fill="#a8b59c" /><circle cx="44" cy="86" r="19" fill="#e1ebfb" /><circle cx="96" cy="22" r="10" fill="#01f8a0" /><circle cx="4" cy="81" r="5" fill="#4802ef" /><circle cx="45" cy="99" r="20" fill="#eab20e" /><circle cx="27" cy="53" r="13" fill="#b76b11" /><circle cx="92" cy="75" r="15" fill="#2a47ae" /><circle cx="75" cy="80" r="12" fill="#244ca2" /><circle cx="11" cy="7" r="19" fill="#64503d" /><circle cx="48" cy="33" r="11" fill="#ba8b0a" /><circle cx="61" cy="65" r="5" fill="#8b9280" /><circle cx="67" cy="66" r="6" fill="#7153cc" /><circle cx="91" cy="82" r="18" fill="#dc7168" /><circle cx="92" cy="60" r="6" fill="#942e30" /><circle cx="28" cy="40" r="20" fill="#a06745" /><circle cx="43" cy="21" r="8" fill="#5289ba" /><circle cx="43" cy="56" r="8" fill="#a24393" /><circle cx="44" cy="76" r="13" fill="#2ae507" /><circle cx="54" cy="92" r="12" fill="#97a019" /><circle cx="9" cy="28" r="15" fill="#809e7e" /><circle cx="91" cy="31" r="19" fill="#30bf34" /><circle cx="89" cy="5" r="16" fill="#e1bc85" /><circle cx="20" cy="9" r="8" fill="#d667ad" /><circle cx="71" cy="32" r="15" fill="#9b3bf8" /><circle cx="36" cy="37" r="16" fill="#6cfeaa" /><circle cx="27" cy="27" r="20" fill="#792cc7" /><circle cx="8" cy="48" r="19" fill="#ab8466" /><circle cx="49" cy="99" r="5" fill="#7d4f57" /><circle cx="99" cy="68" r="6" fill="#3de2e0" /><circle cx="11" cy="97" r="11" fill="#84fa0c" /><circle cx="87" cy="92" r="17" fill="#6f82f4" /><circle cx="90" cy="9" r="15" fill="#318f68" /><circle cx="68" cy="71" r="10" fill="#194a88" /><circle cx="19" cy="25" r="5" fill="#23b33c" /><circle cx="84" cy="72" r="18" fill="#5c00f3" /><circle cx="21" cy="50" r="19" fill="#6d5553" /><circle cx="88" cy="9" r="8" fill="#17899e" /><circle cx="67" cy="43" r="10" fill="#e93ed2" /><circle cx="12" cy="54" r="6" fill="#2d4164" /><circle cx="12" cy="21" r="9" fill="#7c8782" /><circle cx="82" cy="74" r="9" fill="#f6b96e" /><circle cx="45" cy="71" r="10" fill="#836e98" /><circle cx="65" cy="57" r="14" fill="#06b07c" /><circle cx="88" cy="26" r="7" fill="#8494b8" /><circle cx="99" cy="35" r="19" fill="#0ac1e4" /><circle cx="31" cy="90" r="6" fill="#fb6487" /><circle cx="59" cy="16" r="14" fill="#2abf3a" /><circle cx="97" cy="40" r="9" fill="#74609d" /><circle cx="26" cy="89" r="6" fill="#1394bf" /><circle cx="29" cy="35" r="5" fill="#00c4b8" /><circle cx="87" cy="48" r="20" fill="#702f89" /><circle cx="93" cy="21" r="14" fill="#796af4" /><circle cx="39" cy="16" r="9" fill="#f31c4e" /><circle cx="7" cy="36" r="13" fill="#0ceede" /><circle cx="48" cy="48" r="14" fill="#48b4dc" /><circle cx="14" cy="71" r="11" fill="#15b2a2" /><circle cx="67" cy="9" r="20" fill="#ed6666" /><circle cx="16" cy="82" r="10" fill="#e90b0b" /><circle cx="1" cy="95" r="6" fill="#1b81db" /><circle cx="100" cy="23" r="12" fill="#42dbdb" /><circle cx="35" cy="6" r="15" fill="#9cef79" /><circle cx="95" cy="37" r="14" fill="#6cc0cf" /><circle cx="23" cy="24" r="5" fill="#90ac24" /><circle cx="33" cy="96" r="16" fill="#add647" /><circle cx="38" cy="32" r="9" fill="#aab4ed" /><circle cx="18" cy="55" r="12" fill="#2fdf0e" /><circle cx="86" cy="6" r="8" fill="#2f8992" /><circle cx="55" cy="60" r="8" fill="#38f332" /><circle cx="37" cy="20" r="14" fill="#f168ac" /><circle cx="79" cy="85" r="9" fill="#b9fd4d" /><circle cx="8" cy="65" r="19" fill="#140612" /><circle cx="77" cy="32" r="16" fill="#7ee605" /><circle cx="27" cy="9" r="5" fill="#354dc6" /><circle cx="52" cy="75" r="11" fill="#40eccf" /><circle cx="64" cy="16" r="15" fill="#5ef0a9" /><circle cx="100" cy="49" r="16" fill="#b74647" /><circle cx="60" cy="24" r="5" fill="#53f917" /><circle cx="13" cy="16" r="6" fill="#2e5b2d" /><circle cx="28" cy="34" r="5" fill="#dfc7af" /><circle cx="93" cy="82" r="18" fill="#4fc07d" /><circle cx="45" cy="81" r="7" fill="#a0fb85" /><circle cx="16" cy="58" r="13" fill="#921317" /><circle cx="65" cy="73" r="19" fill="#24642d" /><circle cx="70" cy="15" r="9" fill="#e583d9" /><circle cx="79" cy="44" r="14" fill="#1c5d9f" /><circle cx="98" cy="20" r="5" fill="#2efad3" /><circle cx="81" cy="2" r="11" fill="#ecba7e" /><circle cx="33" cy="25" r="17" fill="#423899" /><circle cx="89" cy="12" r="7" fill="#a17ac1" /><circle cx="57" cy="14" r="5" fill="#efdc3d" /><circle cx="24" cy="90" r="12" fill="#2b97a9" /><circle cx="43" cy="99" r="12" fill="#671d0f" /><circle cx="42" cy="66" r="13" fill="#eb3f8e" /><circle cx="51" cy="26" r="19" fill="#aa1837" /><circle cx="29" cy="65" r="16" fill="#45009f" /><circle cx="14" cy="6" r="8" fill="#1e5b40" /><circle cx="49" cy="21" r="13" fill="#c7f665" /><circle cx="99" cy="99" r="12" fill="#c76107" /><circle cx="86" cy="48" r="13" fill="#edf378" /><circle cx="35" cy="78" r="15" fill="#eaa68c" /><circle cx="91" cy="52" r="12" fill="#ad32bd" /><circle cx="23" cy="16" r="16" fill="#fdf552" /><circle cx="8" cy="33" r="15" fill="#c70971" /><circle cx="99" cy="11" r="19" fill="#7a917a" /><circle cx="98" cy="16" r="18" fill="#9610f2" /><circle cx="28" cy="100" r="12" fill="#4067af" /><circle cx="3" cy="45" r="9" fill="#e78ef0" /><circle cx="76" cy="7" r="19" fill="#22b63e" /><circle cx="34" cy="53" r="15" fill="#468e1d" /><circle cx="26" cy="55" r="11" fill="#ab6eca" /><circle cx="55" cy="34" r="16" fill="#8a9231" /><circle cx="21" cy="24" r="16" fill="#e37dea" /><circle cx="19" cy="34" r="20" fill="#5d1e9d" /><circle cx="61" cy="38" r="7" fill="#20f17a" /><circle cx="42" cy="76" r="8" fill="#e58025" /><circle cx="62" cy="24" r="10" fill="#a0111c" /><circle cx="69" cy="44" r="9" fill="#0dcccf" /><circle cx="62" cy="70" r="15" fill="#7ff8a3" /><circle cx="39" cy="37" r="10" fill="#5ec8db" /><circle cx="74" cy="31" r="17" fill="#7a2904" /><circle cx="91" cy="19" r="19" fill="#db4ed5" /><circle cx="91" cy="50" r="16" fill="#c49494" /><circle cx="58" cy="47" r="16" fill="#36842d" /><circle cx="6" cy="46" r="9" fill="#44ff87" /><circle cx="57" cy="55" r="19" fill="#40f5f2" /><circle cx="48" cy="84" r="7" fill="#f012af" /><circle cx="22" cy="53" r="5" fill="#9e95c1" /><circle cx="34" cy="42" r="15" fill="#a4f11a" /><circle cx="63" cy="47" r="6" fill="#b7694c" /><circle cx="58" cy="89" r="11" fill="#bb7bf0" /><circle cx="66" cy="67" r="7" fill="#eb722b" /><circle cx="50" cy="80" r="11" fill="#6b9d10" /><circle cx="35" cy="55" r="7" fill="#63ced8" /><circle cx="97" cy="61" r="15" fill="#4c936c" /><circle cx="92" cy="68" r="13" fill="#b43e48" /><circle cx="11" cy="21" r="6" fill="#7ade0f" /><circle cx="61" cy="43" r="20" fill="#52bf43" /><circle cx="57" cy="92" r="12" fill="#cdcffa" /><circle cx="2" cy="84" r="12" fill="#797742" /><circle cx="81" cy="14" r="20" fill="#e4fdbf" /><circle cx="7" cy="40" r="16" fill="#0382d2" /><circle cx="97" cy="44" r="11" fill="#ce208f" /><circle cx="20" cy="78" r="10" fill="#46e9c7" /><circle cx="25" cy="15" r="12" fill="#db1bf4" /><circle cx="6" cy="42" r="18" fill="#7b0dc6" /><circle cx="37" cy="3" r="6" fill="#9a5fb2" /><circle cx="89" cy="44" r="11" fill="#471935" /><circle cx="58" cy="98" r="8" fill="#e14521" /><circle cx="39" cy="11" r="11" fill="#a91b79" /><circle cx="65" cy="43" r="16" fill="#fb1695" /><circle cx="37" cy="33" r="9" fill="#293ba7" /><circle cx="65" cy="11" r="6" fill="#d38a0f" /><circle cx="87" cy="62" r="9" fill="#664953" /><circle cx="99" cy="27" r="9" fill="#e221e2" /><circle cx="52" cy="67" r="5" fill="#bb140f" /><circle cx="33" cy="81" r="13" fill="#241b9f" /><circle cx="37" cy="55" r="12" fill="#d93926" /><circle cx="60" cy="25" r="18" fill="#ab7060" /><circle cx="63" cy="52" r="20" fill="#f88afe" /><circle cx="86" cy="17" r="9" fill="#51a58d" /><circle cx="54" cy="63" r="9" fill="#c1ff4f" /><circle cx="58" cy="24" r="14" fill="#094f21" /><circle cx="0" cy="97" r="14" fill="#8ba6c6" /><circle cx="60" cy="53" r="18" fill="#5c0335" /><circle cx="71" cy="46" r="14" fill="#7d0939" /><circle cx="30" cy="40" r="11" fill="#d956b4" /><circle cx="46" cy="83" r="8" fill="#3cdcc3" /><circle cx="14" cy="12" r="5" fill="#b61fc0" /><circle cx="54" cy="50" r="16" fill="#3a1fea" /><circle cx="51" cy="21" r="17" fill="#9f3afc" /><circle cx="20" cy="18" r="7" fill="#6d89f8" /><circle cx="57" cy="41" r="11" fill="#f3bad2" /><circle cx="21" cy="25" r="11" fill="#f6e403" /><circle cx="25" cy="78" r="6" fill="#bb63a1" /><circle cx="51" cy="5" r="12" fill="#ae044c" /><circle cx="99" cy="46" r="10" fill="#07cd8b" /><circle cx="19" cy="48" r="6" fill="#8b3133" /><circle cx="42" cy="37" r="13" fill="#66682d" /><circle cx="19" cy="26" r="17" fill="#63a041" /><circle cx="9" cy="1" r="7" fill="#8db729" /><circle cx="17" cy="50" r="5" fill="#95dce0" /><circle cx="66" cy="60" r="13" fill="#b07bd4" /><circle cx="3" cy="58" r="12" fill="#e9cc9c" /><circle cx="72" cy="5" r="10" fill="#59d7dc" /><circle cx="100" cy="96" r="19" fill="#3b6fb5" /><circle cx="71" cy="62" r="5" fill="#4a6eb3" /><circle cx="43" cy="60" r="18" fill="#385ff5" /><circle cx="32" cy="15" r="5" fill="#835d06" /><circle cx="100" cy="44" r="17" fill="#5ab0dd" /><circle cx="73" cy="72" r="10" fill="#6d7987" /><circle cx="44" cy="94" r="16" fill="#8652ac" /><circle cx="52" cy="17" r="17" fill="#9bb69f" /><circle cx="94" cy="76" r="10" fill="#abcf5d" /><circle cx="52" cy="69" r="18" fill="#6fa799" /><circle cx="86" cy="6" r="20" fill="#bda4c7" /><circle cx="48" cy="53" r="16" fill="#a899c0" /><circle cx="71" cy="0" r="17" fill="#44dffa" /><circle cx="100" cy="11" r="16" fill="#aa050b" /><circle cx="7" cy="61" r="17" fill="#b706ed" /><circle cx="54" cy="77" r="18" fill="#2d060f" /><circle cx="12" cy="87" r="12" fill="#c1d05a" /><circle cx="2" cy="35" r="8" fill="#69252c" /><circle cx="48" cy="2" r="9" fill="#42521c" /><circle cx="52" cy="99" r="7" fill="#f562d2" /><circle cx="45" cy="76" r="13" fill="#236ef8" /><circle cx="78" cy="89" r="16" fill="#944a9a" /><circle cx="90" cy="48" r="17" fill="#403304" /><circle cx="84" cy="78" r="7" fill="#6e5cd1" /><circle cx="41" cy="27" r="16" fill="#ca943d" /><circle cx="21" cy="92" r="19" fill="#a9fa71" /><circle cx="48" cy="85" r="17" fill="#25358f" /><circle cx="8" cy="74" r="13" fill="#4b5d7c" /><circle cx="100" cy="37" r="7" fill="#3f2905" /><circle cx="75" cy="32" r="5" fill="#d59611" /><circle cx="77" cy="77" r="8" fill="#df730d" /><circle cx="13" cy="24" r="5" fill="#1a1915" /><circle cx="3" cy="22" r="17" fill="#bb8af7" /><circle cx="86" cy="26" r="10" fill="#149bec" /><circle cx="39" cy="94" r="13" fill="#4e6d16" /><circle cx="43" cy="49" r="14" fill="#92dec5" /><circle cx="27" cy="80" r="5" fill="#e43c82" /><circle cx="68" cy="62" r="8" fill="#b71816" /><circle cx="20" cy="30" r="14" fill="#b65110" /><circle cx="44" cy="21" r="19" fill="#e7fcfa" /><circle cx="6" cy="80" r="17" fill="#f4a152" /><circle cx="27" cy="8" r="10" fill="#5f1017" /><circle cx="91" cy="11" r="12" fill="#fb2c91" /><circle cx="46" cy="19" r="8" fill="#9061f1" /><circle cx="9" cy="48" r="5" fill="#92c92c" /><circle cx="87" cy="10" r="11" fill="#7604f5" /><circle cx="86" cy="27" r="13" fill="#82ff51" /><circle cx="42" cy="11" r="20" fill="#a25059" /><circle cx="73" cy="64" r="13" fill="#e5b13c" /><circle cx="49" cy="3" r="15" fill="#13913c" /><circle cx="57" cy="67" r="12" fill="#d65222" /><circle cx="32" cy="56" r="9" fill="#1c6525" /><circle cx="73" cy="18" r="18" fill="#8e8db4" /><circle cx="59" cy="91" r="6" fill="#2626dd" /><circle cx="45" cy="57" r="15" fill="#8060b9" /><circle cx="20" cy="18" r="9" fill="#57f8f5" /><circle cx="17" cy="32" r="6" fill="#50685c" /><circle cx="86" cy="59" r="5" fill="#5b2c81" /><circle cx="91" cy="22" r="15" fill="#b39a3e" /><circle cx="89" cy="23" r="9" fill="#c5984f" /><circle cx="63" cy="5" r="19" fill="#237835" /><circle cx="83" cy="0" r="12" fill="#e3af93" /><circle cx="54" cy="75" r="16" fill="#41f853" /><circle cx="14" cy="15" r="20" fill="#04061a" /><circle cx="34" cy="91" r="5" fill="#f361ea" /><circle cx="75" cy="67" r="16" fill="#dbcc91" /><circle cx="47" cy="47" r="20" fill="#6bee18" /><circle cx="1" cy="22" r="12" fill="#c98a8e" /><circle cx="40" cy="40" r="7" fill="#d94065" /><circle cx="100" cy="82" r="10" fill="#3edc1c" /><circle cx="24" cy="97" r="19" fill="#e96691" /><circle cx="80" cy="43" r="7" fill="#3700f9" /><circle cx="5" cy="98" r="18" fill="#f78d0a" /><circle cx="90" cy="92" r="14" fill="#a28243" /><circle cx="80" cy="33" r="8" fill="#2d14a8" /><circle cx="80" cy="26" r="5" fill="#971e3f" /><circle cx="63" cy="40" r="12" fill="#a41645" /><circle cx="94" cy="65" r="14" fill="#67b0eb" /><circle cx="87" cy="68" r="17" fill="#67f5ef" /><circle cx="23" cy="12" r="6" fill="#e3ff13" /><circle cx="89" cy="11" r="18" fill="#2067ca" /><circle cx="93" cy="29" r="12" fill="#63529d" /><circle cx="99" cy="41" r="9" fill="#e05b90" /><circle cx="64" cy="27" r="6" fill="#5f4ebc" /><circle cx="75" cy="40" r="5" fill="#a6c9c5" /><circle cx="29" cy="18" r="18" fill="#08965f" /><circle cx="21" cy="10" r="11" fill="#02d47a" /><circle cx="56" cy="58" r="9" fill="#75079d" /><circle cx="49" cy="62" r="17" fill="#c55e32" /><circle cx="63" cy="30" r="16" fill="#516310" /><circle cx="100" cy="48" r="13" fill="#8f4a08" /><circle cx="41" cy="79" r="6" fill="#e0e9a5" /><circle cx="86" cy="52" r="17" fill="#161f66" /><circle cx="26" cy="5" r="18" fill="#da0148" /><circle cx="63" cy="24" r="9" fill="#95996f" /><circle cx="23" cy="92" r="11" fill="#a422ce" /><circle cx="22" cy="38" r="17" fill="#84062d" /><circle cx="79" cy="14" r="20" fill="#7676ac" /><circle cx="48" cy="68" r="13" fill="#f6a51f" /><circle cx="44" cy="12" r="10" fill="#a15e44" /><circle cx="56" cy="27" r="8" fill="#138663" /><circle cx="56" cy="24" r="18" fill="#237518" /><circle cx="60" cy="7" r="18" fill="#2f2794" /><circle cx="64" cy="12" r="10" fill="#d0c817" /><circle cx="22" cy="26" r="11" fill="#0f4f49" /><circle cx="44" cy="65" r="12" fill="#c5eb68" /><circle cx="83" cy="68" r="7" fill="#aeea93" /><circle cx="69" cy="29" r="20" fill="#3b241b" /><circle cx="71" cy="43" r="14" fill="#39e37e" /><circle cx="36" cy="54" r="17" fill="#6359a6" /><circle cx="8" cy="72" r="15" fill="#3c13f1" /><circle cx="75" cy="50" r="9" fill="#275d8c" /><circle cx="56" cy="58" r="5" fill="#545e61" /><circle cx="52" cy="77" r="8" fill="#3ede8a" /><circle cx="31" cy="40" r="11" fill="#67a820" /><circle cx="72" cy="39" r="5" fill="#6c87b9" /><circle cx="40" cy="46" r="11" fill="#9e2ae6" /><circle cx="75" cy="43" r="19" fill="#430003" /><circle cx="1" cy="10" r="11" fill="#587223" /><circle cx="54" cy="83" r="5" fill="#b08f80" /><circle cx="40" cy="94" r="13" fill="#b5eb4b" /><circle cx="81" cy="71" r="8" fill="#1ce57e" /><circle cx="86" cy="48" r="18" fill="#1c168b" /><circle cx="57" cy="5" r="13" fill="#d1bf63" /><circle cx="25" cy="76" r="11" fill="#a76008" /><circle cx="16" cy="18" r="20" fill="#e60494" /><circle cx="63" cy="50" r="20" fill="#5b2274" /><circle cx="18" cy="8" r="16" fill="#87a2a8" /><circle cx="93" cy="74" r="5" fill="#a245d9" /><circle cx="88" cy="28" r="20" fill="#683410" /><circle cx="34" cy="92" r="16" fill="#3bd4f4" /><circle cx="74" cy="5" r="6" fill="#fef00a" /><circle cx="61" cy="62" r="10" fill="#cadf9c" /><circle cx="98" cy="72" r="10" fill="#8cf1fb" /><circle cx="77" cy="19" r="8" fill="#3c16e2" /><circle cx="29" cy="63" r="8" fill="#82a46f" /><circle cx="62" cy="15" r="20" fill="#2deaa1" /><circle cx="48" cy="32" r="9" fill="#cef9bb" /><circle cx="49" cy="21" r="5" fill="#2854d2" /><circle cx="72" cy="15" r="9" fill="#25011b" /><circle cx="6" cy="59" r="5" fill="#84784b" /><circle cx="37" cy="93" r="17" fill="#1ef5dd" /><circle cx="86" cy="35" r="8" fill="#cccf33" /><circle cx="31" cy="80" r="5" fill="#c519f1" /><circle cx="83" cy="31" r="16" fill="#2888b9" /><circle cx="68" cy="59" r="15" fill="#f2da06" /><circle cx="63" cy="100" r="20" fill="#d2e54e" /><circle cx="23" cy="85" r="6" fill="#8e172c" /><circle cx="98" cy="36" r="20" fill="#f9dbd0" /><circle cx="44" cy="50" r="10" fill="#cf9c8a" /><circle cx="33" cy="4" r="19" fill="#de7b6d" /><circle cx="49" cy="86" r="13" fill="#77271b" /><circle cx="52" cy="10" r="14" fill="#6494c1" /><circle cx="87" cy="31" r="16" fill="#84051b" /><circle cx="74" cy="48" r="7" fill="#6852f2" /><circle cx="80" cy="28" r="19" fill="#63540b" /><circle cx="76" cy="35" r="11" fill="#4c1e05" /><circle cx="70" cy="18" r="17" fill="#7fad33" /><circle cx="83" cy="2" r="12" fill="#d86175" /><circle cx="46" cy="36" r="14" fill="#b1d162" /><circle cx="88" cy="69" r="10" fill="#f2a458" /><circle cx="71" cy="12" r="10" fill="#fe0566" /><circle cx="93" cy="75" r="14" fill="#57f46b" /><circle cx="82" cy="19" r="5" fill="#555f9d" /><circle cx="65" cy="90" r="9" fill="#efb18a" /><circle cx="7" cy="1" r="9" fill="#ab1f4f" /><circle cx="74" cy="85" r="13" fill="#aed5cd" /><circle cx="48" cy="39" r="8" fill="#e059dd" /><circle cx="26" cy="70" r="16" fill="#9acca4" /><circle cx="65" cy="36" r="10" fill="#fbfd18" /><circle cx="23" cy="84" r="13" fill="#38ff51" /><circle cx="93" cy="9" r="6" fill="#351512" /><circle cx="32" cy="44" r="5" fill="#286425" /><circle cx="45" cy="70" r="7" fill="#6ad0cb" /><circle cx="92" cy="98" r="17" fill="#6fa111" /><circle cx="17" cy="75" r="10" fill="#f51f64" /><circle cx="30" cy="53" r="14" fill="#c4e2f1" /><circle cx="74" cy="16" r="8" fill="#8c5702" /><circle cx="65" cy="10" r="10" fill="#5d42c5" /><circle cx="50" cy="40" r="6" fill="#59781b" /><circle cx="53" cy="96" r="7" fill="#d84b5d" /><circle cx="58" cy="19" r="9" fill="#366f84" /><circle cx="6" cy="17" r="6" fill="#94dc02" /><circle cx="98" cy="59" r="5" fill="#2c4bd3" /><circle cx="71" cy="61" r="7" fill="#606951" /><circle cx="96" cy="22" r="8" fill="#93cdfd" /><circle cx="5" cy="42" r="17" fill="#e49700" /><circle cx="13" cy="37" r="15" fill="#c26ed6" /><circle cx="81" cy="38" r="8" fill="#9fb471" /><circle cx="3" cy="85" r="6" fill="#8538d1" /><circle cx="95" cy="38" r="9" fill="#da7570" /><circle cx="67" cy="85" r="9" fill="#3f1883" /><circle cx="100" cy="84" r="5" fill="#a46d39" /><circle cx="74" cy="51" r="15" fill="#a04a47" /><circle cx="92" cy="59" r="15" fill="#fd38a0" /><circle cx="37" cy="67" r="7" fill="#04f72d" /><circle cx="95" cy="60" r="14" fill="#b3f3d8" /><circle cx="45" cy="30" r="7" fill="#009944" /><circle cx="6" cy="49" r="11" fill="#871393" /><circle cx="90" cy="0" r="11" fill="#84eaca" /><circle cx="74" cy="32" r="6" fill="#d5d78e" /><circle cx="88" cy="33" r="5" fill="#82497c" /><circle cx="20" cy="49" r="14" fill="#c9eb47" /><circle cx="45" cy="20" r="8" fill="#61bade" /><circle cx="93" cy="16" r="10" fill="#2ecab6" /><circle cx="13" cy="55" r="15" fill="#f030cb" /><circle cx="62" cy="49" r="6" fill="#c706cf" /><circle cx="52" cy="40" r="9" fill="#2de224" /><circle cx="56" cy="4" r="8" fill="#959a93" /><circle cx="48" cy="36" r="17" fill="#66cd8a" /><circle cx="17" cy="9" r="9" fill="#fae0ed" /><circle cx="16" cy="8" r="7" fill="#d19017" /><circle cx="10" cy="7" r="16" fill="#197497" /><circle cx="60" cy="12" r="19" fill="#56a714" /><circle cx="61" cy="84" r="17" fill="#95f724" /><circle cx="71" cy="64" r="10" fill="#36a735" /><circle cx="82" cy="23" r="20" fill="#29f223" /><circle cx="35" cy="24" r="12" fill="#48ce74" /><circle cx="92" cy="15" r="20" fill="#fa424e" /><circle cx="94" cy="41" r="7" fill="#03c15f" /><circle cx="75" cy="70" r="13" fill="#330dbc" /><circle cx="3" cy="79" r="6" fill="#929679" /><circle cx="57" cy="14" r="9" fill="#6df1dd" /><circle cx="53" cy="91" r="16" fill="#45f19c" /><circle cx="79" cy="80" r="9" fill="#333ebc" /><circle cx="9" cy="73" r="14" fill="#163447" /><circle cx="17" cy="34" r="5" fill="#e1078f" /><circle cx="94" cy="63" r="10" fill="#480b8d" /><circle cx="69" cy="79" r="9" fill="#d4070e" /><circle cx="74" cy="35" r="17" fill="#874d1c" /><circle cx="91" cy="46" r="17" fill="#5352d0" /><circle cx="66" cy="22" r="14" fill="#869419" /><circle cx="82" cy="75" r="9" fill="#cdb71d" /><circle cx="89" cy="48" r="20" fill="#5ffe38" /><circle cx="38" cy="24" r="16" fill="#71b303" /><circle cx="20" cy="8" r="13" fill="#dd028f" /><circle cx="31" cy="52" r="8" fill="#a0bcfc" /><circle cx="43" cy="19" r="16" fill="#31ae7f" /><circle cx="2" cy="55" r="20" fill="#f1ed63" /><circle cx="71" cy="8" r="14" fill="#4bbaf8" /><circle cx="80" cy="8" r="19" fill="#dfebb7" /><circle cx="90" cy="89" r="11" fill="#f007e1" /><circle cx="51" cy="96" r="10" fill="#ed068d" /><circle cx="82" cy="31" r="18" fill="#a6d9b2" /><circle cx="20" cy="25" r="7" fill="#8dee3d" /><circle cx="98" cy="16" r="17" fill="#864574" /><circle cx="22" cy="77" r="9" fill="#7db5a6" /><circle cx="90" cy="42" r="17" fill="#da8970" /><circle cx="64" cy="28" r="13" fill="#ddad16" /><circle cx="91" cy="86" r="20" fill="#97ff65" /><circle cx="76" cy="1" r="5" fill="#dbe342" /><circle cx="81" cy="7" r="5" fill="#74b2f9" /><circle cx="64" cy="22" r="16" fill="#88281a" /><circle cx="51" cy="51" r="13" fill="#f9476b" /><circle cx="65" cy="20" r="7" fill="#87b46c" /><circle cx="51" cy="14" r="18" fill="#aa9519" /><circle cx="9" cy="34" r="7" fill="#ce1e42" /><circle cx="60" cy="40" r="19" fill="#a64ca5" /><circle cx="66" cy="36" r="17" fill="#c96adc" /><circle cx="42" cy="25" r="9" fill="#a51811" /><circle cx="20" cy="56" r="19" fill="#ce76cf" /><circle cx="6" cy="41" r="7" fill="#c5590e" /><circle cx="63" cy="28" r="15" fill="#49f685" /><circle cx="79" cy="96" r="6" fill="#999203" /><circle cx="45" cy="79" r="13" fill="#de2653" /><circle cx="33" cy="73" r="16" fill="#f52926" /><circle cx="72" cy="11" r="6" fill="#3989e6" /><circle cx="66" cy="83" r="6" fill="#b81cd4" /><circle cx="92" cy="49" r="12" fill="#bf6cf5" /><circle cx="9" cy="78" r="12" fill="#93932f" /><circle cx="4" cy="11" r="12" fill="#593383" /><circle cx="54" cy="34" r="15" fill="#13334b" /><circle cx="54" cy="89" r="19" fill="#81de48" /><circle cx="79" cy="13" r="12" fill="#1fdc3c" /><circle cx="42" cy="85" r="20" fill="#084623" /><circle cx="39" cy="41" r="16" fill="#0347c5" /><circle cx="73" cy="18" r="12" fill="#9787b0" /><circle cx="97" cy="2" r="15" fill="#041441" /><circle cx="65" cy="24" r="20" fill="#3006ca" /><circle cx="70" cy="57" r="19" fill="#ab1494" /><circle cx="86" cy="20" r="15" fill="#50110a" /><circle cx="56" cy="52" r="18" fill="#733995" /><circle cx="10" cy="90" r="13" fill="#c49f2b" /><circle cx="84" cy="35" r="8" fill="#3cc298" /><circle cx="44" cy="28" r="7" fill="#5515b1" /><circle cx="19" cy="46" r="19" fill="#81dae0" /><circle cx="80" cy="62" r="13" fill="#34048e" /><circle cx="84" cy="31" r="5" fill="#e7adc7" /><circle cx="18" cy="26" r="14" fill="#9a7391" /><circle cx="24" cy="12" r="6" fill="#7dbbe8" /><circle cx="67" cy="58" r="13" fill="#f34994" /><circle cx="80" cy="80" r="18" fill="#11f937" /><circle cx="80" cy="21" r="17" fill="#1cdf00" /><circle cx="54" cy="59" r="18" fill="#8b66d8" /><circle cx="7" cy="29" r="14" fill="#a787b7" /><circle cx="45" cy="18" r="16" fill="#096dc1" /><circle cx="70" cy="53" r="17" fill="#6256aa" /><circle cx="17" cy="91" r="20" fill="#9fea07" /><circle cx="85" cy="93" r="10" fill="#4d1acf" /><circle cx="48" cy="61" r="10" fill="#767458" /><circle cx="80" cy="77" r="18" fill="#ca81fe" /><circle cx="65" cy="8" r="17" fill="#7d238c" /><circle cx="48" cy="25" r="7" fill="#147c98" /><circle cx="11" cy="44" r="14" fill="#6d03ac" /><circle cx="20" cy="96" r="12" fill="#7e4616" /><circle cx="80" cy="26" r="8" fill="#b3cf6e" /><circle cx="19" cy="28" r="18" fill="#d2700a" /><circle cx="55" cy="58" r="6" fill="#e5db0e" /><circle cx="66" cy="100" r="15" fill="#b8df9c" /><circle cx="20" cy="100" r="9" fill="#127642" /><circle cx="95" cy="0" r="20" fill="#1511ed" /><circle cx="25" cy="94" r="16" fill="#27cd2d" /><circle cx="95" cy="10" r="10" fill="#19d359" /><circle cx="34" cy="6" r="14" fill="#e6975b" /><circle cx="42" cy="35" r="13" fill="#c0e1c7" /><circle cx="37" cy="72" r="20" fill="#b2032e" /><circle cx="7" cy="55" r="7" fill="#bc3e49" /><circle cx="4" cy="22" r="20" fill="#8e9688" /><circle cx="26" cy="22" r="14" fill="#088222" /><circle cx="29" cy="66" r="9" fill="#c032fe" /><circle cx="93" cy="18" r="13" fill="#807705" /><circle cx="53" cy="96" r="6" fill="#e735c5" /><circle cx="43" cy="42" r="20" fill="#29eb18" /><circle cx="74" cy="42" r="10" fill="#a479eb" /><circle cx="73" cy="45" r="16" fill="#63da60" /><circle cx="100" cy="72" r="6" fill="#c12af4" /><circle cx="44" cy="76" r="20" fill="#c7baf7" /><circle cx="93" cy="4" r="9" fill="#53030c" /><circle cx="43" cy="86" r="13" fill="#33ba4f" /><circle cx="39" cy="15" r="20" fill="#ee2c59" /><circle cx="31" cy="86" r="9" fill="#607ddb" /><circle cx="33" cy="74" r="15" fill="#4f524b" /><circle cx="40" cy="25" r="11" fill="#b7fbed" /><circle cx="82" cy="68" r="16" fill="#5c5832" /><circle cx="92" cy="40" r="20" fill="#c6aa8a" /><circle cx="93" cy="24" r="7" fill="#41993c" /><circle cx="16" cy="44" r="15" fill="#94c0eb" /><circle cx="26" cy="58" r="18" fill="#301473" /><circle cx="98" cy="78" r="17" fill="#2ee7ed" /><circle cx="56" cy="1" r="16" fill="#03eef5" /><circle cx="58" cy="18" r="9" fill="#fddd65" /><circle cx="52" cy="76" r="17" fill="#66174f" /><circle cx="27" cy="29" r="20" fill="#537549" /><circle cx="25" cy="19" r="6" fill="#411bcb" /><circle cx="91" cy="58" r="6" fill="#74f05e" /><circle cx="76" cy="62" r="10" fill="#7ae9b1" /><circle cx="41" cy="60" r="10" fill="#12d418" /><circle cx="0" cy="49" r="19" fill="#2f2957" /><circle cx="70" cy="92" r="5" fill="#c806b6" /><circle cx="3" cy="14" r="19" fill="#f36ae1" /><circle cx="51" cy="97" r="20" fill="#e340f6" /><circle cx="51" cy="74" r="16" fill="#953b2a" /><circle cx="26" cy="68" r="17" fill="#6583df" /><circle cx="26" cy="64" r="15" fill="#0e20ac" /><circle cx="15" cy="53" r="8" fill="#fb744f" /><circle cx="7" cy="1" r="12" fill="#7ae7d3" /><circle cx="87" cy="61" r="13" fill="#d2471c" /><circle cx="33" cy="2" r="17" fill="#c267ef" /><circle cx="60" cy="41" r="20" fill="#49915f" /><circle cx="82" cy="30" r="6" fill="#edd799" /><circle cx="91" cy="10" r="15" fill="#21b572" /><circle cx="51" cy="78" r="15" fill="#844773" /><circle cx="46" cy="79" r="5" fill="#e8a642" /><circle cx="45" cy="63" r="17" fill="#50f01d" /><circle cx="72" cy="63" r="7" fill="#6f426d" /><circle cx="98" cy="92" r="9" fill="#dcee74" /><circle cx="37" cy="48" r="14" fill="#8a51bb" /><circle cx="67" cy="95" r="17" fill="#aacbca" /><circle cx="14" cy="9" r="6" fill="#d53dda" /><circle cx="33" cy="39" r="11" fill="#7b3d19" /><circle cx="21" cy="54" r="15" fill="#6880d0" /><circle cx="29" cy="99" r="17" fill="#ad8c4c" /><circle cx="2" cy="23" r="18" fill="#7c694f" /><circle cx="61" cy="40" r="13" fill="#43077a" /><circle cx="49" cy="47" r="12" fill="#208ac3" /><circle cx="64" cy="12" r="14" fill="#eda82d" /><circle cx="43" cy="79" r="8" fill="#b68e86" /><circle cx="28" cy="1" r="8" fill="#3f591f" /><circle cx="58" cy="50" r="10" fill="#8de6e6" /><circle cx="1" cy="77" r="17" fill="#edfe95" /><circle cx="71" cy="33" r="12" fill="#3435b4" /><circle cx="32" cy="86" r="15" fill="#023a69" /><circle cx="81" cy="54" r="9" fill="#34380f" /><circle cx="72" cy="58" r="5" fill="#05e1c3" /><circle cx="7" cy="18" r="20" fill="#1250dc" /><circle cx="55" cy="44" r="9" fill="#da01cb" /><circle cx="58" cy="59" r="14" fill="#3d87d2" /><circle cx="98" cy="20" r="7" fill="#3f532d" /><circle cx="97" cy="11" r="16" fill="#2b949a" /><circle cx="47" cy="80" r="16" fill="#04eb06" /><circle cx="65" cy="48" r="10" fill="#86c0be" /><circle cx="20" cy="52" r="5" fill="#5e73b1" /><circle cx="14" cy="76" r="19" fill="#d560e1" /><circle cx="82" cy="3" r="10" fill="#6add5c" /><circle cx="48" cy="23" r="15" fill="#a02ea9" /><circle cx="97" cy="67" r="14" fill="#e7e20d" /><circle cx="95" cy="72" r="6" fill="#c9b468" /><circle cx="91" cy="27" r="13" fill="#6702c1" /><circle cx="14" cy="10" r="5" fill="#052d11" /><circle cx="37" cy="29" r="19" fill="#55d173" /><circle cx="16" cy="96" r="15" fill="#024fbd" /></svg>