<svg xmlns="http://www.w3.org/2000/svg" width="100" height="100"><circle cx="73" cy="27" r="19" fill="#545d97" /><circle cx="14" cy="43" r="9" fill="#98bec4" /><circle cx="81" cy="16" r="10" fill="#c9b9e3" /><circle cx="58" cy="85" r="12" fill="#6921dd" /><circle cx="92" cy="53" r="17" fill="#2cf26c" /><circle cx="92" cy="3" r="14" fill="#4dd3fe" /><circle cx="66" cy="22" r="9" fill="#0e3ce8" /><circle cx="26" cy="30" r="10" fill="#35a7b8" /><circle cx="65" cy="1" r="17" fill="#aa78dc" /><circle cx="23" cy="6" r="13" fill="#23106b" /><circle cx="67" cy="92" r="14" fill="#4375b4" /><circle cx="43" cy="16" r="15" fill="#8369d1" /><circle cx="20" cy="78" r="13" fill="#a3b82d" /><circle cx="8" cy="53" r="16" fill="#736b28" /><circle cx="2" cy="16" r="10" fill="#03b6f4" /><circle cx="63" cy="42" r="16" fill="#1ddf93" /><circle cx="68" cy="91" r="20" fill="#22b4a3" /><circle cx="67" cy="19" r="16" fill="#17b05d" /><circle cx="78" cy="26" r="14" fill="#d4acdb" /><circle cx="19" cy="69" r="7" fill="#3d8fa2" /><circle cx="12" cy="73" r="14" fill="#92a401" /><circle cx="34" cy="0" r="18" fill="#3b5f07" /><circle cx="42" cy="74" r="20" fill="#51e42d" /><circle cx="24" cy="10" r="15" fill="#7c4bac" /><circle cx="0" cy="62" r="16" fill="#26dc90" /><circle cx="38" cy="97" r="20" fill="#bfe34c" /><circle cx="56" cy="52" r="14" fill="#c84ca5" /><circle cx="5" cy="21" r="13" fill="#2e3c82" /><circle cx="82" cy="74" r="19" fill="#b2d9ca" /><circle cx="91" cy="6" r="12" fill="#45a672" /><circle cx="17" cy="8" r="8" fill="#b48d59" /><circle cx="59" cy="9" r="9" fill="#4c9dff" /><circle cx="18" cy="58" r="18" fill="#96f6a3" /><circle cx="45" cy="91" r="11" fill="#07f6c8" /><circle cx="15" cy="37" r="7" fill="#7903a8" /><circle cx="84" cy="7" r="8" fill="#703b71" /><circle cx="19" cy="20" r="16" fill="#4d4559" /><circle cx="74" cy="13" r="12" fill="#e12e91" /><circle cx="29" cy="21" r="20" fill="#6269d2" /><circle cx="98" cy="77" r="18" fill="#14d460" /><circle cx="42" cy="0" r="6" fill="#ed22af" /><circle cx="69" cy="47" r="20" fill="#ebe17e" /><circle cx="95" cy="50" r="18" fill="#680f23" /><circle cx="52" cy="64" r="14" fill="#10c2be" /><circle cx="74" cy="70" r="9" fill="#25b357" /><circle cx="37" cy="71" r="11" fill="#01c8a2" /><circle cx="26" cy="32" r="17" fill="#d1c448" /><circle cx="42" cy="25" r="17" fill="#df8899" /><circle cx="85" cy="21" r="10" fill="#556d54" /><circle cx="14" cy="96" r="8" fill="#d80f93" /><circle cx="5" cy="59" r="11" fill="#b7d8f4" /><circle cx="21" cy="90" r="13" fill="#72e790" /><circle cx="76" cy="88" r="5" fill="#ac8e34" /><circle cx="36" cy="89" r="13" fill="#072e53" /><circle cx="29" cy="62" r="20" fill="#9dd0be" /><circle cx="82" cy="82" r="9" fill="#dee8d8" /><circle cx="3" cy="94" r="15" fill="#899764" /><circle cx="69" cy="1" r="15" fill="#1f6d7c" /><circle cx="4" cy="39" r="18" fill="#131e44" /><circle cx="38" cy="49" r="14" fill="#b880ae" /><circle cx="35" cy="29" r="13" fill="#a07b16" /><circle cx="69" cy="49" r="15" fill="#c8fadb" /><circle cx="1" cy="13" r="19" fill="#7d1653" /><circle cx="46" cy="99" r="12" fill="#1da347" /><circle cx="91" cy="64" r="15" fill="#597c59" /><circle cx="68" cy="46" r="12" fill="#660d13" /><circle cx="85" cy="85" r="12" fill="#bc252e" /><circle cx="96" cy="25" r="18" fill="#0119dc" /><circle cx="14" cy="57" r="17" fill="#feebbc" /><circle cx="95" cy="45" r="6" fill="#9e7323" /><circle cx="76" cy="91" r="11" fill="#1a6e86" /><circle cx="10" cy="18" r="13" fill="#455958" /><circle cx="70" cy="23" r="17" fill="#e5c02f" /><circle cx="2" cy="71" r="11" fill="#921d86" /><circle cx="79" cy="24" r="13" fill="#0f99eb" /><circle cx="44" cy="14" r="8" fill="#77bd77" /><circle cx="55" cy="35" r="5" fill="#fec19f" /><circle cx="51" cy="21" r="20" fill="#d86c77" /><circle cx="18" cy="31" r="5" fill="#da5e09" /><circle cx="84" cy="55" r="19" fill="#68692e" /><circle cx="36" cy="65" r="16" fill="#1b5f5a" /><circle cx="22" cy="84" r="11" fill="#c40997" /><circle cx="5" cy="12" r="18" fill="#91fa34" /><circle cx="65" cy="26" r="9" fill="#4d454e" /><circle cx="58" cy="10" r="12" fill="#7222fd" /><circle cx="81" cy="10" r="15" fill="#84ea1e" /><circle cx="55" cy="77" r="19" fill="#e4cd40" /><circle cx="41" cy="21" r="14" fill="#63f373" /><circle cx="69" cy="17" r="12" fill="#f8d822" /><circle cx="25" cy="66" r="7" fill="#aca721" /><circle cx="27" cy="54" r="8" fill="#8197ee" /><circle cx="40" cy="35" r="8" fill="#f8f4da" /><circle cx="2" cy="44" r="17" fill="#aafc97" /><circle cx="43" cy="63" r="17" fill="#1c0d1c" /><circle cx="1" cy="67" r="14" fill="#9440e9" /><circle cx="58" cy="19" r="11" fill="#cc11b7" /><circle cx="43" cy="94" r="20" fill="#499bc4" /><circle cx="35" cy="51" r="18" fill="#4aa255" /><circle cx="12" cy="89" r="19" fill="#13b6d2" /><circle cx="70" cy="21" r="11" fill="#90be0e" /><circle cx="86" cy="89" r="12" fill="#a9a19b" /><circle cx="66" cy="83" r="12" fill="#cb9e6c" /><circle cx="85" cy="64" r="14" fill="#31a9d3" /><circle cx="93" cy="26" r="13" fill="#f2d7ca" /><circle cx="45" cy="100" r="13" fill="#79542d" /><circle cx="90" cy="52" r="17" fill="#fe36b6" /><circle cx="83" cy="69" r="9" fill="#4d94da" /><circle cx="6" cy="14" r="16" fill="#534f19" /><circle cx="38" cy="19" r="8" fill="#2724e7" /><circle cx="76" cy="81" r="5" fill="#01f949" /><circle cx="86" cy="89" r="6" fill="#855070" /><circle cx="27" cy="10" r="20" fill="#7898f4" /><circle cx="1" cy="4" r="6" fill="#f512e7" /><circle cx="9" cy="94" r="6" fill="#7ac455" /><circle cx="46" cy="4" r="20" fill="#d8ca54" /><circle cx="44" cy="7" r="7" fill="#f754ba" /><circle cx="19" cy="19" r="13" fill="#e107bc" /><circle cx="45" cy="29" r="16" fill="#5fc2dd" /><circle cx="13" cy="11" r="20" fill="#60364a" /><circle cx="41" cy="33" r="7" fill="#3869fb" /><circle cx="39" cy="73" r="11" fill="#128c52" /><circle cx="27" cy="75" r="18" fill="#e0cd5f" /><circle cx="76" cy="0" r="7" fill="#5d2e1c" /><circle cx="24" cy="52" r="7" fill="#bf9a59" /><circle cx="91" cy="47" r="5" fill="#c3f55b" /><circle cx="4" cy="61" r="18" fill="#739e2c" /><circle cx="67" cy="13" r="8" fill="#c4da00" /><circle cx="59" cy="44" r="12" fill="#de9a37" /><circle cx="34" cy="29" r="20" fill="#3c5b13" /><circle cx="3" cy="62" r="11" fill="#2918ea" /><circle cx="35" cy="89" r="7" fill="#b9b0be" /><circle cx="53" cy="82" r="9" fill="#bfc43d" /><circle cx="9" cy="57" r="19" fill="#b09c98" /><circle cx="4" cy="53" r="17" fill="#7be640" /><circle cx="20" cy="1" r="18" fill="#17dc60" /><circle cx="12" cy="50" r="20" fill="#ccff10" /><circle cx="4" cy="28" r="8" fill="#86ad5d" /><circle cx="83" cy="79" r="18" fill="#914e45" /><circle cx="68" cy="28" r="19" fill="#921b70" /><circle cx="71" cy="19" r="9" fill="#a34bca" /><circle cx="2" cy="88" r="13" fill="#4091b7" /><circle cx="98" cy="79" r="17" fill="#f7578a" /><circle cx="100" cy="69" r="15" fill="#420fb8" /><circle cx="15" cy="6" r="18" fill="#7eb70f" /><circle cx="68" cy="89" r="15" fill="#079827" /><circle cx="2" cy="69" r="16" fill="#0195f9" /><circle cx="27" cy="43" r="16" fill="#5ed11f" /><circle cx="78" cy="78" r="9" fill="#fe1b88" /><circle cx="68" cy="31" r="19" fill="#f65efb" /><circle cx="39" cy="17" r="18" fill="#c6d4ba" /><circle cx="17" cy="43" r="9" fill="#7422e1" /><circle cx="82" cy="63" r="7" fill="#8afb0c" /><circle cx="12" cy="7" r="9" fill="#223656" /><circle cx="22" cy="83" r="7" fill="#caa723" /><circle cx="17" cy="36" r="16" fill="#065701" /><circle cx="74" cy="3" r="12" fill="#a77cc6" /><circle cx="55" cy="60" r="12" fill="#3c3385" /><circle cx="37" cy="100" r="9" fill="#7a5270" /><circle cx="70" cy="61" r="19" fill="#571a32" /><circle cx="37" cy="97" r="13" fill="#1558d7" /><circle cx="46" cy="71" r="17" fill="#71ee27" /><circle cx="12" cy="82" r="20" fill="#613d70" /><circle cx="50" cy="14" r="13" fill="#8c0c2f" /><circle cx="53" cy="12" r="14" fill="#26203d" /><circle cx="1" cy="30" r="9" fill="#42eb5f" /><circle cx="100" cy="62" r="18" fill="#60cf2f" /><circle cx="61" cy="54" r="18" fill="#d69695" /><circle cx="45" cy="81" r="14" fill="#271084" /><circle cx="7" cy="65" r="13" fill="#e5cb73" /><circle cx="20" cy="51" r="13" fill="#cdc14e" /><circle cx="82" cy="68" r="12" fill="#1f75ac" /><circle cx="44" cy="85" r="8" fill="#49705d" /><circle cx="68" cy="83" r="15" fill="#fbfe8b" /><circle cx="66" cy="25" r="17" fill="#2238e4" /><circle cx="67" cy="6" r="16" fill="#cd0723" /><circle cx="84" cy="68" r="11" fill="#c7cadf" /><circle cx="17" cy="39" r="10" fill="#2dfb68" /><circle cx="1" cy="80" r="11" fill="#1ec1ea" /><circle cx="86" cy="98" r="15" fill="#60872a" /><circle cx="85" cy="92" r="10" fill="#fdce71" /><circle cx="36" cy="1" r="8" fill="#23a72e" /><circle cx="80" cy="57" r="5" fill="#ee89ea" /><circle cx="51" cy="0" r="13" fill="#1dc4d2" /><circle cx="47" cy="14" r="20" fill="#2f5991" /><circle cx="48" cy="78" r="5" fill="#667b59" /><circle cx="68" cy="40" r="7" fill="#7833a8" /><circle cx="64" cy="46" r="18" fill="#0999b6" /><circle cx="6" cy="41" r="19" fill="#d654d0" /><circle cx="93" cy="42" r="9" fill="#a66007" /><circle cx="74" cy="21" r="9" fill="#ae1521" /><circle cx="65" cy="22" r="8" fill="#3cea40" /><circle cx="1" cy="34" r="11" fill="#82d87b" /><circle cx="67" cy="54" r="15" fill="#fe15a6" /><circle cx="11" cy="45" r="7" fill="#5f0346" /><circle cx="72" cy="52" r="14" fill="#9f8102" /><circle cx="2" cy="87" r="10" fill="#2f0318" /><circle cx="70" cy="2" r="16" fill="#63d70e" /><circle cx="7" cy="46" r="14" fill="#72bf76" /><circle cx="57" cy="77" r="5" fill="#d5d35b" /><circle cx="2" cy="52" r="16" fill="#4f5fc9" /><circle cx="62" cy="93" r="14" fill="#67c59e" /><circle cx="43" cy="18" r="5" fill="#0a3c16" /><circle cx="46" cy="23" r="17" fill="#2e3b42" /><circle cx="28" cy="10" r="9" fill="#c3815c" /><circle cx="82" cy="22" r="16" fill="#a22591" /><circle cx="100" cy="16" r="6" fill="#a2c7d2" /><circle cx="42" cy="20" r="18" fill="#db0b8a" /><circle cx="13" cy="68" r="17" fill="#3bf4b1" /><circle cx="40" cy="87" r="8" fill="#82dbc2" /><circle cx="56" cy="61" r="10" fill="#236f44" /><circle cx="53" cy="5" r="20" fill="#49985a" /><circle cx="36" cy="63" r="17" fill="#add127" /><circle cx="8" cy="20" r="6" fill="#b2846e" /><circle cx="33" cy="42" r="19" fill="#0122d0" /><circle cx="7" cy="75" r="13" fill="#162169" /><circle cx="24" cy="34" r="9" fill="#152f5f" /><circle cx="22" cy="51" r="16" fill="#7a4bc0" /><circle cx="81" cy="87" r="14" fill="#1d67d3" /><circle cx="95" cy="41" r="9" fill="#ebb9b9" /><circle cx="52" cy="62" r="15" fill="#731e43" /><circle cx="76" cy="55" r="18" fill="#7b0b29" /><circle cx="16" cy="2" r="16" fill="#ce1573" /><circle cx="75" cy="33" r="9" fill="#019209" /><circle cx="19" cy="57" r="19" fill="#4ad382" /><circle cx="22" cy="94" r="5" fill="#e163f2" /><circle cx="68" cy="68" r="19" fill="#46378c" /><circle cx="28" cy="61" r="5" fill="#45ff65" /><circle cx="6" cy="74" r="5" fill="#0ef567" /><circle cx="55" cy="66" r="9" fill="#f99635" /><circle cx="56" cy="19" r="6" fill="#aade3f" /><circle cx="51" cy="20" r="17" fill="#a4a44e" /><circle cx="50" cy="53" r="18" fill="#623940" /><circle cx="91" cy="99" r="6" fill="#3f7fa9" /><circle cx="34" cy="28" r="6" fill="#32f384" /><circle cx="66" cy="27" r="15" fill="#ab62da" /><circle cx="66" cy="16" r="13" fill="#27e4b4" /><circle cx="61" cy="35" r="7" fill="#267d89" /><circle cx="24" cy="70" r="5" fill="#dc62c9" /><circle cx="62" cy="52" r="16" fill="#c77f4b" /><circle cx="87" cy="34" r="15" fill="#c8a7aa" /><circle cx="86" cy="58" r="10" fill="#f8ce01" /><circle cx="66" cy="14" r="17" fill="#572a5d" /><circle cx="42" cy="63" r="10" fill="#bbf5b7" /><circle cx="96" cy="18" r="14" fill="#4795d1" /><circle cx="26" cy="2" r="20" fill="#1cd940" /><circle cx="78" cy="72" r="12" fill="#6e2c28" /><circle cx="40" cy="47" r="12" fill="#b3e1d9" /><circle cx="38" cy="18" r="10" fill="#b13a2d" /><circle cx="16" cy="11" r="8" fill="#c9a96a" /><circle cx="96" cy="79" r="13" fill="#48c0c9" /><circle cx="3" cy="99" r="20" fill="#37fa97" /><circle cx="55" cy="41" r="19" fill="#8e060e" /><circle cx="47" cy="18" r="12" fill="#e609bf" /><circle cx="25" cy="11" r="11" fill="#34931d" /><circle cx="1" cy="13" r="16" fill="#e31de9" /><circle cx="39" cy="21" r="6" fill="#5dc811" /><circle cx="45" cy="42" r="19" fill="#25c770" /><circle cx="30" cy="84" r="12" fill="#601a77" /><circle cx="29" cy="76" r="7" fill="#364931" /><circle cx="1" cy="86" r="7" fill="#4a0814" /><circle cx="87" cy="35" r="18" fill="#52aa8f" /><circle cx="43" cy="72" r="13" fill="#899fea" /><circle cx="30" cy="93" r="18" fill="#0514bf" /><circle cx="68" cy="4" r="8" fill="#c1aa32" /><circle cx="73" cy="83" r="18" fill="#1e05a1" /><circle cx="42" cy="92" r="10" fill="#c5d95f" /><circle cx="6" cy="36" r="16" fill="#038564" /><circle cx="63" cy="34" r="6" fill="#97a23f" /><circle cx="7" cy="73" r="17" fill="#0bbb63" /><circle cx="12" cy="65" r="17" fill="#113698" /><circle cx="69" cy="82" r="10" fill="#26ea7a" /><circle cx="95" cy="19" r="18" fill="#ee7729" /><circle cx="4" cy="96" r="9" fill="#d00377" /><circle cx="41" cy="36" r="6" fill="#057d8a" /><circle cx="73" cy="50" r="12" fill="#a742a5" /><circle cx="73" cy="81" r="14" fill="#c3adda" /><circle cx="68" cy="12" r="13" fill="#4e425d" /><circle cx="52" cy="93" r="14" fill="#384c19" /><circle cx="62" cy="75" r="19" fill="#b70368" /><circle cx="52" cy="31" r="20" fill="#6969df" /><circle cx="100" cy="49" r="14" fill="#fa7872" /><circle cx="63" cy="8" r="5" fill="#4c4172" /><circle cx="100" cy="61" r="14" fill="#3c7460" /><circle cx="33" cy="92" r="9" fill="#f717a1" /><circle cx="47" cy="52" r="17" fill="#1e2452" /><circle cx="29" cy="62" r="12" fill="#a54071" /><circle cx="40" cy="28" r="10" fill="#a1b7e9" /><circle cx="12" cy="35" r="5" fill="#5d71e9" /><circle cx="9" cy="43" r="16" fill="#e84de1" /><circle cx="29" cy="12" r="10" fill="#2a7f81" /><circle cx="78" cy="57" r="17" fill="#a55000" /><circle cx="17" cy="51" r="5" fill="#46f2ae" /><circle cx="89" cy="79" r="10" fill="#f0ad54" /><circle cx="93" cy="88" r="18" fill="#d46da8" /><circle cx="20" cy="49" r="12" fill="#1a825e" /><circle cx="47" cy="45" r="19" fill="#dc1b7c" /><circle cx="27" cy="43" r="12" fill="#57cf28" /><circle cx="31" cy="1" r="10" fill="#f0843d" /><circle cx="40" cy="88" r="19" fill="#8a8ae7" /><circle cx="33" cy="46" r="7" fill="#185f77" /><circle cx="6" cy="79" r="10" fill="#8ded61" /><circle cx="76" cy="90" r="7" fill="#0741c8" /><circle cx="84" cy="38" r="17" fill="#fc503b" /><circle cx="31" cy="82" r="7" fill="#e77e76" /><circle cx="10" cy="5" r="19" fill="#d1c0a0" /><circle cx="94" cy="78" r="9" fill="#7788b5" /><circle cx="0" cy="89" r="15" fill="#2012fd" /><circle cx="96" cy="34" r="20" fill="#56493d" /><circle cx="71" cy="38" r="15" fill="#127a3a" /><circle cx="35" cy="17" r="17" fill="#76d532" /><circle cx="43" cy="89" r="9" fill="#6e4db1" /><circle cx="83" cy="51" r="14" fill="#dd884c" /><circle cx="46" cy="61" r="6" fill="#c3a4ee" /><circle cx="44" cy="93" r="10" fill="#ee2749" /><circle cx="83" cy="68" r="9" fill="#b60bec" /><circle cx="49" cy="64" r="16" fill="#80670e" /><circle cx="36" cy="93" r="8" fill="#0a06c2" /><circle cx="5" cy="5" r="10" fill="#3181ab" /><circle cx="58" cy="75" r="13" fill="#f4ed38" /><circle cx="27" cy="23" r="8" fill="#fb89cb" /><circle cx="0" cy="32" r="11" fill="#47e764" /><circle cx="15" cy="73" r="7" fill="#72cb55" /><circle cx="89" cy="80" r="8" fill="#2faba4" /><circle cx="22" cy="24" r="20" fill="#14a9f0" /><circle cx="40" cy="62" r="17" fill="#89f7f4" /><circle cx="30" cy="1" r="13" fill="#3aab2d" /><circle cx="47" cy="8" r="18" fill="#bd7ddd" /><circle cx="35" cy="40" r="13" fill="#7b6e02" /><circle cx="28" cy="70" r="19" fill="#3157f8" /><circle cx="27" cy="86" r="9" fill="#20f657" /><circle cx="4" cy="82" r="7" fill="#3dae4f" /><circle cx="26" cy="77" r="12" fill="#9b0936" /><circle cx="29" cy="72" r="7" fill="#5f53dd" /><circle cx="2" cy="40" r="16" fill="#271def" /><circle cx="49" cy="13" r="5" fill="#47489c" /><circle cx="67" cy="88" r="14" fill="#ebeb9d" /><circle cx="68" cy="20" r="17" fill="#674093" /><circle cx="33" cy="2" r="19" fill="#43792a" /><circle cx="10" cy="35" r="10" fill="#82205f" /><circle cx="98" cy="8" r="8" fill="#ed02db" /><circle cx="78" cy="53" r="10" fill="#31b804" /><circle cx="73" cy="99" r="20" fill="#0bfe1e" /><circle cx="18" cy="68" r="5" fill="#c97c60" /><circle cx="54" cy="10" r="12" fill="#62423d" /><circle cx="52" cy="20" r="6" fill="#91666c" /><circle cx="86" cy="45" r="19" fill="#8eeafa" /><circle cx="0" cy="79" r="15" fill="#6a17a5" /><circle cx="83" cy="23" r="15" fill="#862b3b" /><circle cx="68" cy="31" r="7" fill="#8444e9" /><circle cx="17" cy="15" r="8" fill="#38112e" /><circle cx="88" cy="13" r="6" fill="#f13794" /><circle cx="17" cy="3" r="13" fill="#de4477" /><circle cx="15" cy="57" r="9" fill="#20e03f" /><circle cx="35" cy="50" r="9" fill="#3f014f" /><circle cx="19" cy="25" r="6" fill="#ce3b47" /><circle cx="77" cy="1" r="8" fill="#fcc321" /><circle cx="60" cy="38" r="18" fill="#fe6f71" /><circle cx="97" cy="19" r="12" fill="#fb4619" /><circle cx="13" cy="51" r="20" fill="#fd733f" /><circle cx="69" cy="82" r="12" fill="#23befc" /><circle cx="38" cy="17" r="20" fill="#1011da" /><circle cx="95" cy="47" r="11" fill="#c816a1" /><circle cx="21" cy="49" r="10" fill="#0a12b2" /><circle cx="56" cy="75" r="11" fill="#8892aa" /><circle cx="78" cy="6" r="18" fill="#1d33a9" /><circle cx="92" cy="99" r="19" fill="#556a43" /><circle cx="4" cy="41" r="20" fill="#014964" /><circle cx="35" cy="82" r="9" fill="#bdc5c8" /><circle cx="18" cy="72" r="9" fill="#8692e9" /><circle cx="95" cy="39" r="10" fill="#c0b555" /><circle cx="51" cy="95" r="16" fill="#157eed" /><circle cx="13" cy="5" r="11" fill="#503c1f" /><circle cx="39" cy="16" r="20" fill="#01c13f" /><circle cx="46" cy="54" r="11" fill="#1d4fef" /><circle cx="32" cy="13" r="12" fill="#49826d" /><circle cx="81" cy="13" r="19" fill="#3b3074" /><circle cx="89" cy="70" r="5" fill="#ca93ff" /><circle cx="83" cy="8" r="12" fill="#47e5d9" /><circle cx="92" cy="12" r="6" fill="#3de2d1" /><circle cx="65" cy="55" r="11" fill="#a422af" /><circle cx="27" cy="56" r="8" fill="#40677a" /><circle cx="11" cy="85" r="19" fill="#cb6585" /><circle cx="22" cy="76" r="13" fill="#b52d14" /><circle cx="96" cy="6" r="18" fill="#ac905d" /><circle cx="71" cy="95" r="6" fill="#437288" /><circle cx="73" cy="48" r="20" fill="#82ab80" /><circle cx="46" cy="38" r="6" fill="#d74340" /><circle cx="99" cy="52" r="20" fill="#0c93ff" /><circle cx="18" cy="63" r="15" fill="#6ba0b9" /><circle cx="50" cy="77" r="20" fill="#5777a6" /><circle cx="47" cy="33" r="15" fill="#eb4041" /><circle cx="82" cy="25" r="6" fill="#9a36a1" /><circle cx="54" cy="4" r="10" fill="#1538c3" /><circle cx="81" cy="58" r="13" fill="#650557" /><circle cx="29" cy="42" r="11" fill="#2b432d" /><circle cx="61" cy="48" r="16" fill="#174d63" /><circle cx="74" cy="45" r="7" fill="#63540c" /><circle cx="55" cy="47" r="15" fill="#86a75c" /><circle cx="94" cy="10" r="10" fill="#f86ab0" /><circle cx="43" cy="74" r="5" fill="#765552" /><circle cx="47" cy="69" r="9" fill="#5fe955" /><circle cx="13" cy="89" r="8" fill="#f699e0" /><circle cx="62" cy="78" r="15" fill="#712aba" /><circle cx="61" cy="39" r="20" fill="#7e46e8" /><circle cx="61" cy="67" r="10" fill="#007022" /><circle cx="37" cy="47" r="10" fill="#6052a1" /><circle cx="33" cy="48" r="14" fill="#ee7efa" /><circle cx="49" cy="76" r="19" fill="#a95191" /><circle cx="84" cy="62" r="7" fill="#f96f5a" /><circle cx="95" cy="56" r="6" fill="#f95d22" /><circle cx="9" cy="90" r="19" fill="#74fbee" /><circle cx="69" cy="38" r="17" fill="#b96fc2" /><circle cx="31" cy="23" r="15" fill="#40915e" /><circle cx="6" cy="74" r="5" fill="#8cd63e" /><circle cx="8" cy="10" r="14" fill="#d3a3f9" /><circle cx="31" cy="23" r="13" fill="#cf6226" /><circle cx="82" cy="0" r="10" fill="#cc556b" /><circle cx="42" cy="83" r="13" fill="#f917e9" /><circle cx="20" cy="67" r="7" fill="#5cd4d3" /><circle cx="45" cy="40" r="11" fill="#e6e3a5" /><circle cx="34" cy="17" r="16" fill="#dc19fa" /><circle cx="42" cy="39" r="18" fill="#6c55d8" /><circle cx="35" cy="82" r="14" fill="#fad258" /><circle cx="84" cy="13" r="13" fill="#67f742" /><circle cx="53" cy="17" r="19" fill="#bea5a9" /><circle cx="25" cy="44" r="5" fill="#486987" /><circle cx="12" cy="70" r="8" fill="#4e9d2f" /><circle cx="5" cy="44" r="17" fill="#9f0c0a" /><circle cx="39" cy="60" r="5" fill="#1913bb" /><circle cx="35" cy="30" r="12" fill="#181d7d" /></svg>