<svg xmlns="http://www.w3.org/2000/svg" width="100" height="100"><circle cx="13" cy="21" r="14" fill="#72b5ff" /><circle cx="99" cy="89" r="16" fill="#96b12d" /><circle cx="67" cy="67" r="16" fill="#15a71e" /><circle cx="29" cy="4" r="6" fill="#fe2ade" /><circle cx="33" cy="1" r="20" fill="#35084c" /><circle cx="70" cy="33" r="20" fill="#a44660" /><circle cx="14" cy="55" r="10" fill="#db416c" /><circle cx="48" cy="54" r="13" fill="#b8ddcd" /><circle cx="43" cy="52" r="14" fill="#cdd7ef" /><circle cx="58" cy="78" r="9" fill="#f48f06" /><circle cx="93" cy="44" r="19" fill="#7facc3" /><circle cx="91" cy="18" r="10" fill="#6a1818" /><circle cx="60" cy="4" r="8" fill="#ed3607" /><circle cx="54" cy="5" r="9" fill="#fff8f1" /><circle cx="54" cy="41" r="17" fill="#91fd6e" /><circle cx="89" cy="3" r="6" fill="#ed917d" /><circle cx="12" cy="47" r="15" fill="#88eaab" /><circle cx="95" cy="90" r="6" fill="#599a81" /><circle cx="17" cy="11" r="15" fill="#bb5dfe" /><circle cx="33" cy="0" r="16" fill="#888bf6" /><circle cx="52" cy="35" r="8" fill="#a18530" /><circle cx="37" cy="9" r="9" fill="#7a596e" /><circle cx="61" cy="52" r="16" fill="#e93269" /><circle cx="22" cy="45" r="17" fill="#e09052" /><circle cx="88" cy="79" r="15" fill="#a52702" /><circle cx="55" cy="12" r="20" fill="#e70e76" /><circle cx="62" cy="88" r="7" fill="#c48396" /><circle cx="57" cy="21" r="14" fill="#79e5e1" /><circle cx="69" cy="9" r="9" fill="#ceef64" /><circle cx="10" cy="0" r="7" fill="#30f1ca" /><circle cx="90" cy="5" r="14" fill="#235b37" /><circle cx="10" cy="52" r="13" fill="#7f465d" /><circle cx="52" cy="53" r="8" fill="#f1fef8" /><circle cx="93" cy="19" r="10" fill="#2f293d" /><circle cx="12" cy="36" r="17" fill="#c92980" /><circle cx="29" cy="6" r="16" fill="#3ec4ce" /><circle cx="13" cy="43" r="19" fill="#45a376" /><circle cx="16" cy="94" r="5" fill="#bfd40f" /><circle cx="98" cy="41" r="10" fill="#45c234" /><circle cx="50" cy="8" r="11" fill="#f11b3a" /><circle cx="84" cy="65" r="6" fill="#f79057" /><circle cx="55" cy="9" r="11" fill="#063f46" /><circle cx="75" cy="28" r="9" fill="#8d358f" /><circle cx="43" cy="81" r="11" fill="#dbaab6" /><circle cx="26" cy="5" r="7" fill="#cf374f" /><circle cx="76" cy="61" r="11" fill="#9bf330" /><circle cx="8" cy="78" r="17" fill="#a3ac4a" /><circle cx="11" cy="23" r="11" fill="#78bd9b" /><circle cx="32" cy="25" r="16" fill="#6ded4d" /><circle cx="59" cy="93" r="8" fill="#db80ce" /><circle cx="52" cy="35" r="14" fill="#5964b9" /><circle cx="98" cy="89" r="6" fill="#c1dccc" /><circle cx="39" cy="72" r="11" fill="#6720d1" /><circle cx="48" cy="75" r="18" fill="#cf17f3" /><circle cx="32" cy="8" r="13" fill="#605ebe" /><circle cx="82" cy="16" r="17" fill="#81a122" /><circle cx="84" cy="38" r="12" fill="#6e1b53" /><circle cx="69" cy="84" r="8" fill="#20ac09" /><circle cx="2" cy="62" r="6" fill="#d56356" /><circle cx="99" cy="43" r="20" fill="#2a2e68" /><circle cx="69" cy="90" r="7" fill="#9811a1" /><circle cx="77" cy="36" r="6" fill="#b8dad3" /><circle cx="74" cy="26" r="18" fill="#9a46cf" /><circle cx="87" cy="23" r="16" fill="#609ddf" /><circle cx="92" cy="72" r="11" fill="#cef08e" /><circle cx="82" cy="66" r="8" fill="#abbc5a" /><circle cx="35" cy="23" r="6" fill="#468755" /><circle cx="29" cy="95" r="20" fill="#780b6e" /><circle cx="79" cy="13" r="9" fill="#123884" /><circle cx="78" cy="54" r="10" fill="#696ea5" /><circle cx="56" cy="61" r="14" fill="#6ceda0" /><circle cx="75" cy="95" r="18" fill="#cf3024" /><circle cx="1" cy="46" r="8" fill="#601e22" /><circle cx="87" cy="76" r="19" fill="#4114b5" /><circle cx="42" cy="92" r="7" fill="#6c94f7" /><circle cx="38" cy="58" r="7" fill="#420752" /><circle cx="18" cy="95" r="11" fill="#cebd02" /><circle cx="25" cy="50" r="9" fill="#60ab47" /><circle cx="3" cy="51" r="19" fill="#8b1be0" /><circle cx="23" cy="10" r="15" fill="#c89f60" /><circle cx="81" cy="89" r="9" fill="#c95ee1" /><circle cx="47" cy="14" r="20" fill="#59cf51" /><circle cx="14" cy="30" r="8" fill="#aad4a0" /><circle cx="29" cy="67" r="10" fill="#3c4840" /><circle cx="74" cy="66" r="17" fill="#904b9c" /><circle cx="37" cy="70" r="12" fill="#267229" /><circle cx="99" cy="27" r="20" fill="#64cb91" /><circle cx="57" cy="45" r="16" fill="#9bc9f6" /><circle cx="88" cy="54" r="10" fill="#beb2eb" /><circle cx="65" cy="66" r="20" fill="#b72051" /><circle cx="42" cy="77" r="12" fill="#e2124e" /><circle cx="0" cy="28" r="14" fill="#2e2a9f" /><circle cx="100" cy="45" r="9" fill="#2572fc" /><circle cx="7" cy="30" r="17" fill="#7e9d17" /><circle cx="51" cy="82" r="12" fill="#ed49e5" /><circle cx="51" cy="59" r="17" fill="#1f33bd" /><circle cx="8" cy="39" r="5" fill="#26d06b" /><circle cx="64" cy="7" r="10" fill="#cd5127" /><circle cx="36" cy="17" r="6" fill="#51cdb9" /><circle cx="74" cy="85" r="18" fill="#3f11b1" /><circle cx="24" cy="82" r="5" fill="#4a5d9e" /><circle cx="86" cy="42" r="18" fill="#474d0c" /><circle cx="8" cy="45" r="6" fill="#334620" /><circle cx="79" cy="6" r="9" fill="#5b91ff" /><circle cx="56" cy="17" r="19" fill="#e16e3d" /><circle cx="53" cy="20" r="16" fill="#12401e" /><circle cx="86" cy="59" r="16" fill="#411fb6" /><circle cx="57" cy="59" r="18" fill="#260d73" /><circle cx="86" cy="19" r="14" fill="#f4c96a" /><circle cx="75" cy="87" r="16" fill="#8c80b2" /><circle cx="86" cy="95" r="8" fill="#259ea3" /><circle cx="64" cy="89" r="16" fill="#fa52fd" /><circle cx="57" cy="61" r="6" fill="#32d560" /><circle cx="20" cy="17" r="9" fill="#df5af7" /><circle cx="25" cy="21" r="12" fill="#8909b1" /><circle cx="1" cy="68" r="15" fill="#851cbc" /><circle cx="1" cy="68" r="15" fill="#ba0db1" /><circle cx="16" cy="88" r="16" fill="#fb86ff" /><circle cx="7" cy="15" r="5" fill="#f349b3" /><circle cx="92" cy="99" r="9" fill="#e95da1" /><circle cx="95" cy="57" r="18" fill="#841dd3" /><circle cx="92" cy="6" r="5" fill="#a62f13" /><circle cx="46" cy="30" r="12" fill="#836c86" /><circle cx="23" cy="16" r="9" fill="#29194f" /><circle cx="49" cy="45" r="13" fill="#a92025" /><circle cx="67" cy="76" r="8" fill="#64f4bf" /><circle cx="35" cy="24" r="18" fill="#f4e1c6" /><circle cx="69" cy="19" r="7" fill="#a1741c" /><circle cx="30" cy="100" r="17" fill="#0310ab" /><circle cx="78" cy="38" r="8" fill="#8df89d" /><circle cx="74" cy="67" r="20" fill="#81fe03" /><circle cx="69" cy="94" r="12" fill="#957394" /><circle cx="57" cy="51" r="15" fill="#7d93b4" /><circle cx="4" cy="78" r="9" fill="#4d6d2e" /><circle cx="99" cy="48" r="7" fill="#c2ff3e" /><circle cx="21" cy="44" r="7" fill="#cc7039" /><circle cx="99" cy="88" r="19" fill="#916392" /><circle cx="83" cy="77" r="18" fill="#41e580" /><circle cx="30" cy="23" r="15" fill="#512e36" /><circle cx="35" cy="95" r="9" fill="#624a6e" /><circle cx="22" cy="95" r="19" fill="#da52a5" /><circle cx="27" cy="63" r="20" fill="#19549d" /><circle cx="40" cy="8" r="8" fill="#c60742" /><circle cx="91" cy="43" r="10" fill="#9e004e" /><circle cx="3" cy="16" r="15" fill="#c6383c" /><circle cx="47" cy="19" r="11" fill="#0c49cc" /><circle cx="14" cy="69" r="13" fill="#3732f3" /><circle cx="83" cy="51" r="14" fill="#8fc2f2" /><circle cx="11" cy="60" r="20" fill="#fa7eb3" /><circle cx="80" cy="23" r="11" fill="#c9d274" /><circle cx="21" cy="71" r="17" fill="#e7a6c7" /><circle cx="1" cy="62" r="7" fill="#30d600" /><circle cx="44" cy="87" r="9" fill="#0c372e" /><circle cx="49" cy="72" r="5" fill="#33cc75" /><circle cx="47" cy="35" r="6" fill="#afec87" /><circle cx="77" cy="72" r="18" fill="#df7bb2" /><circle cx="3" cy="71" r="7" fill="#0b337d" /><circle cx="7" cy="86" r="7" fill="#80e03b" /><circle cx="91" cy="11" r="9" fill="#f14c51" /><circle cx="8" cy="28" r="16" fill="#af4211" /><circle cx="43" cy="18" r="18" fill="#34a02d" /><circle cx="18" cy="86" r="7" fill="#caac12" /><circle cx="12" cy="32" r="14" fill="#fcf8c1" /><circle cx="3" cy="85" r="17" fill="#d8e01b" /><circle cx="8" cy="34" r="7" fill="#6daf0f" /><circle cx="9" cy="19" r="7" fill="#afcace" /><circle cx="96" cy="64" r="20" fill="#3e8c97" /><circle cx="31" cy="77" r="5" fill="#d2a166" /><circle cx="56" cy="52" r="19" fill="#d756f8" /><circle cx="16" cy="68" r="11" fill="#2753e2" /><circle cx="36" cy="4" r="20" fill="#6e869e" /><circle cx="15" cy="52" r="19" fill="#ad17d0" /><circle cx="89" cy="80" r="19" fill="#b0cdb6" /><circle cx="99" cy="55" r="14" fill="#8f3b71" /><circle cx="36" cy="80" r="20" fill="#c43173" /><circle cx="89" cy="87" r="20" fill="#831313" /><circle cx="73" cy="92" r="8" fill="#56e0e5" /><circle cx="90" cy="75" r="18" fill="#ec5684" /><circle cx="78" cy="93" r="9" fill="#3cdd73" /><circle cx="65" cy="30" r="6" fill="#b2447e" /><circle cx="99" cy="65" r="18" fill="#1d9c86" /><circle cx="89" cy="14" r="6" fill="#09032a" /><circle cx="90" cy="83" r="11" fill="#9cecb2" /><circle cx="46" cy="45" r="13" fill="#3595c4" /><circle cx="27" cy="23" r="20" fill="#e65751" /><circle cx="46" cy="81" r="14" fill="#a98bcb" /><circle cx="90" cy="52" r="10" fill="#006005" /><circle cx="79" cy="73" r="14" fill="#1366f9" /><circle cx="17" cy="58" r="16" fill="#b71605" /><circle cx="59" cy="58" r="13" fill="#a6ab4a" /><circle cx="13" cy="93" r="13" fill="#676daa" /><circle cx="59" cy="7" r="11" fill="#362d52" /><circle cx="89" cy="94" r="5" fill="#45781e" /><circle cx="55" cy="90" r="14" fill="#3bdd31" /><circle cx="88" cy="78" r="19" fill="#5e47d0" /><circle cx="38" cy="80" r="17" fill="#6fceb3" /><circle cx="84" cy="6" r="9" fill="#1dfbce" /><circle cx="12" cy="14" r="8" fill="#1b769c" /><circle cx="15" cy="64" r="12" fill="#3b0f1d" /><circle cx="22" cy="28" r="8" fill="#bbdec0" /><circle cx="93" cy="60" r="17" fill="#aaa98b" /><circle cx="32" cy="45" r="12" fill="#f7811f" /><circle cx="20" cy="12" r="17" fill="#575140" /><circle cx="87" cy="67" r="12" fill="#c63d09" /><circle cx="99" cy="24" r="7" fill="#af1894" /><circle cx="60" cy="26" r="20" fill="#7e34a4" /><circle cx="2" cy="23" r="19" fill="#f57bd3" /><circle cx="19" cy="94" r="13" fill="#e67e9d" /><circle cx="92" cy="34" r="15" fill="#dca4cc" /><circle cx="78" cy="52" r="19" fill="#e81158" /><circle cx="15" cy="61" r="6" fill="#21fbbf" /><circle cx="21" cy="45" r="17" fill="#0e12f4" /><circle cx="67" cy="94" r="8" fill="#e9c5bc" /><circle cx="70" cy="23" r="17" fill="#d9bd10" /><circle cx="3" cy="53" r="13" fill="#2ca2a3" /><circle cx="77" cy="14" r="19" fill="#73c754" /><circle cx="57" cy="81" r="6" fill="#f5c915" /><circle cx="81" cy="79" r="9" fill="#bbdcbc" /><circle cx="27" cy="73" r="5" fill="#c449bc" /><circle cx="67" cy="98" r="12" fill="#5081fc" /><circle cx="60" cy="90" r="8" fill="#26bc59" /><circle cx="66" cy="76" r="19" fill="#6e52c2" /><circle cx="77" cy="29" r="8" fill="#ef39e5" /><circle cx="87" cy="74" r="11" fill="#b4995d" /><circle cx="42" cy="0" r="20" fill="#30d36a" /><circle cx="81" cy="61" r="6" fill="#223815" /><circle cx="82" cy="87" r="15" fill="#300eef" /><circle cx="49" cy="60" r="12" fill="#bfda83" /><circle cx="84" cy="85" r="16" fill="#56fad8" /><circle cx="12" cy="49" r="17" fill="#00b19d" /><circle cx="64" cy="59" r="17" fill="#aa428c" /><circle cx="29" cy="34" r="7" fill="#f35c4d" /><circle cx="45" cy="31" r="18" fill="#d3e963" /><circle cx="46" cy="93" r="7" fill="#2856e7" /><circle cx="46" cy="46" r="16" fill="#475711" /><circle cx="10" cy="87" r="6" fill="#971249" /><circle cx="18" cy="53" r="10" fill="#312f74" /><circle cx="79" cy="18" r="9" fill="#a06c52" /><circle cx="46" cy="73" r="17" fill="#968c04" /><circle cx="12" cy="59" r="18" fill="#e7792d" /><circle cx="20" cy="10" r="12" fill="#83472a" /><circle cx="25" cy="28" r="6" fill="#796030" /><circle cx="64" cy="18" r="16" fill="#581b0e" /><circle cx="52" cy="29" r="5" fill="#1b7854" /><circle cx="63" cy="54" r="13" fill="#860ec3" /><circle cx="91" cy="11" r="7" fill="#ab86eb" /><circle cx="0" cy="88" r="12" fill="#770719" /><circle cx="47" cy="77" r="11" fill="#fc6f21" /><circle cx="86" cy="28" r="17" fill="#ff4a96" /><circle cx="58" cy="33" r="10" fill="#0f8600" /><circle cx="54" cy="38" r="12" fill="#b464e5" /><circle cx="36" cy="29" r="12" fill="#41dafb" /><circle cx="76" cy="91" r="12" fill="#302861" /><circle cx="27" cy="46" r="6" fill="#906de5" /><circle cx="30" cy="24" r="13" fill="#34d806" /><circle cx="82" cy="31" r="10" fill="#133432" /><circle cx="77" cy="9" r="18" fill="#5c21c4" /><circle cx="38" cy="71" r="8" fill="#17b6a6" /><circle cx="7" cy="40" r="7" fill="#0c4566" /><circle cx="54" cy="13" r="6" fill="#37f4a2" /><circle cx="96" cy="49" r="19" fill="#5ff185" /><circle cx="97" cy="33" r="20" fill="#f4aadb" /><circle cx="72" cy="60" r="12" fill="#29a9ae" /><circle cx="20" cy="50" r="9" fill="#a20044" /><circle cx="33" cy="22" r="15" fill="#27a89e" /><circle cx="8" cy="1" r="5" fill="#9c0082" /><circle cx="97" cy="73" r="20" fill="#18830c" /><circle cx="46" cy="44" r="7" fill="#e042f4" /><circle cx="50" cy="92" r="9" fill="#b2b157" /><circle cx="78" cy="61" r="14" fill="#3a8123" /><circle cx="11" cy="17" r="7" fill="#a0a674" /><circle cx="78" cy="4" r="10" fill="#338ceb" /><circle cx="34" cy="64" r="11" fill="#8062db" /><circle cx="66" cy="12" r="6" fill="#0a3077" /><circle cx="48" cy="57" r="17" fill="#c445ed" /><circle cx="6" cy="49" r="16" fill="#86496a" /><circle cx="34" cy="32" r="14" fill="#491c6a" /><circle cx="20" cy="65" r="20" fill="#6bbe04" /><circle cx="72" cy="68" r="15" fill="#66d1a0" /><circle cx="78" cy="24" r="10" fill="#edb75d" /><circle cx="88" cy="3" r="18" fill="#1cffcf" /><circle cx="49" cy="53" r="9" fill="#0c7c15" /><circle cx="39" cy="10" r="6" fill="#1d76c4" /><circle cx="86" cy="40" r="18" fill="#94d5f7" /><circle cx="23" cy="62" r="5" fill="#296b08" /><circle cx="78" cy="92" r="9" fill="#81ca6d" /><circle cx="96" cy="61" r="11" fill="#c33df2" /><circle cx="13" cy="36" r="8" fill="#1ea279" /><circle cx="38" cy="66" r="9" fill="#9919c1" /><circle cx="45" cy="48" r="15" fill="#848a5b" /><circle cx="33" cy="3" r="7" fill="#b7a779" /><circle cx="88" cy="26" r="6" fill="#5aa3ae" /><circle cx="7" cy="46" r="6" fill="#26c46c" /><circle cx="99" cy="77" r="11" fill="#c1afc1" /><circle cx="39" cy="14" r="9" fill="#5b3433" /><circle cx="0" cy="10" r="17" fill="#a0840d" /><circle cx="74" cy="84" r="6" fill="#810a97" /><circle cx="8" cy="63" r="12" fill="#7753ec" /><circle cx="37" cy="27" r="15" fill="#1f1591" /><circle cx="54" cy="3" r="8" fill="#5b6785" /><circle cx="96" cy="23" r="12" fill="#768c53" /><circle cx="34" cy="13" r="7" fill="#46d49c" /><circle cx="4" cy="9" r="13" fill="#0008e8" /><circle cx="65" cy="92" r="5" fill="#ead9cb" /><circle cx="60" cy="25" r="6" fill="#744367" /><circle cx="44" cy="17" r="10" fill="#bb62f1" /><circle cx="87" cy="0" r="11" fill="#777f73" /><circle cx="97" cy="9" r="17" fill="#234adb" /><circle cx="82" cy="98" r="9" fill="#11cfb4" /><circle cx="40" cy="38" r="10" fill="#8c6fb7" /><circle cx="45" cy="48" r="14" fill="#4d5b16" /><circle cx="44" cy="62" r="13" fill="#d3bf27" /><circle cx="97" cy="4" r="20" fill="#5a933b" /><circle cx="73" cy="54" r="8" fill="#44a0ec" /><circle cx="81" cy="17" r="12" fill="#2576f0" /><circle cx="57" cy="9" r="9" fill="#19f0cb" /><circle cx="41" cy="13" r="7" fill="#ae20dd" /><circle cx="67" cy="96" r="14" fill="#8b50ec" /><circle cx="0" cy="90" r="16" fill="#0afd36" /><circle cx="24" cy="73" r="6" fill="#e6fce4" /><circle cx="15" cy="55" r="9" fill="#ca93fd" /><circle cx="49" cy="19" r="13" fill="#781af0" /><circle cx="8" cy="41" r="6" fill="#cc3129" /><circle cx="86" cy="53" r="15" fill="#de354c" /><circle cx="62" cy="3" r="15" fill="#81a1dc" /><circle cx="19" cy="20" r="11" fill="#8f867f" /><circle cx="86" cy="50" r="7" fill="#db9680" /><circle cx="65" cy="80" r="8" fill="#ef415d" /><circle cx="33" cy="59" r="14" fill="#805400" /><circle cx="30" cy="20" r="19" fill="#e8476e" /><circle cx="34" cy="88" r="17" fill="#15c7d8" /><circle cx="6" cy="86" r="15" fill="#f45b5f" /><circle cx="0" cy="61" r="15" fill="#19ffa0" /><circle cx="6" cy="50" r="6" fill="#99b126" /><circle cx="80" cy="5" r="15" fill="#6fcc62" /><circle cx="84" cy="0" r="7" fill="#8ebb0b" /><circle cx="47" cy="38" r="19" fill="#ffdd17" /><circle cx="36" cy="53" r="8" fill="#dce8bf" /><circle cx="7" cy="67" r="15" fill="#c1959b" /><circle cx="60" cy="9" r="12" fill="#6350ef" /><circle cx="94" cy="56" r="6" fill="#ed127e" /><circle cx="37" cy="47" r="20" fill="#bd0020" /><circle cx="98" cy="42" r="8" fill="#def6b3" /><circle cx="73" cy="78" r="5" fill="#8ceee5" /><circle cx="99" cy="44" r="5" fill="#8c5c15" /><circle cx="63" cy="17" r="17" fill="#2dcfe1" /><circle cx="71" cy="17" r="5" fill="#bb160a" /><circle cx="63" cy="0" r="12" fill="#03b802" /><circle cx="8" cy="85" r="7" fill="#a2b92b" /><circle cx="29" cy="76" r="18" fill="#4f4e73" /><circle cx="66" cy="38" r="15" fill="#a280cd" /><circle cx="11" cy="91" r="12" fill="#cfa827" /><circle cx="63" cy="59" r="9" fill="#1b6cdb" /><circle cx="75" cy="74" r="7" fill="#1c9727" /><circle cx="91" cy="31" r="6" fill="#7a673b" /><circle cx="31" cy="72" r="17" fill="#8f2be4" /><circle cx="57" cy="97" r="14" fill="#88caa0" /><circle cx="29" cy="29" r="15" fill="#7a4e4b" /><circle cx="60" cy="68" r="8" fill="#9ef291" /><circle cx="83" cy="92" r="17" fill="#c0a31f" /><circle cx="31" cy="20" r="9" fill="#e5f24b" /><circle cx="93" cy="64" r="8" fill="#615313" /><circle cx="31" cy="17" r="9" fill="#4fe524" /><circle cx="57" cy="69" r="6" fill="#53bcbc" /><circle cx="9" cy="79" r="10" fill="#25bfb1" /><circle cx="67" cy="97" r="11" fill="#451ad4" /><circle cx="41" cy="89" r="16" fill="#9e9e61" /><circle cx="21" cy="60" r="19" fill="#68175a" /><circle cx="58" cy="4" r="17" fill="#463912" /><circle cx="76" cy="97" r="5" fill="#8d2f4a" /><circle cx="87" cy="0" r="12" fill="#d297ca" /><circle cx="30" cy="39" r="10" fill="#6d0f78" /><circle cx="72" cy="81" r="17" fill="#f6f64f" /><circle cx="69" cy="53" r="16" fill="#ec7459" /><circle cx="100" cy="45" r="13" fill="#c745d6" /><circle cx="24" cy="65" r="14" fill="#e869e9" /><circle cx="71" cy="60" r="19" fill="#455ffa" /><circle cx="99" cy="53" r="17" fill="#fab173" /><circle cx="74" cy="94" r="14" fill="#26f399" /><circle cx="1" cy="92" r="12" fill="#cf33d1" /><circle cx="86" cy="100" r="8" fill="#fd1686" /><circle cx="91" cy="72" r="9" fill="#24ba91" /><circle cx="38" cy="11" r="11" fill="#d3bd00" /><circle cx="5" cy="29" r="10" fill="#771de0" /><circle cx="3" cy="82" r="13" fill="#0aafc8" /><circle cx="87" cy="9" r="6" fill="#bcbdfb" /><circle cx="58" cy="27" r="13" fill="#d7e5d9" /><circle cx="24" cy="48" r="19" fill="#e6e699" /><circle cx="91" cy="69" r="20" fill="#7cb193" /><circle cx="85" cy="54" r="11" fill="#2674c4" /><circle cx="54" cy="91" r="15" fill="#675687" /><circle cx="16" cy="4" r="7" fill="#37cd30" /><circle cx="51" cy="38" r="16" fill="#2f1eae" /><circle cx="50" cy="42" r="9" fill="#5c532e" /><circle cx="98" cy="21" r="16" fill="#10389f" /><circle cx="59" cy="64" r="17" fill="#22fc50" /><circle cx="18" cy="25" r="13" fill="#56579c" /><circle cx="85" cy="53" r="14" fill="#a60e6a" /><circle cx="98" cy="84" r="13" fill="#efa0b7" /><circle cx="2" cy="51" r="14" fill="#a4bc61" /><circle cx="76" cy="51" r="6" fill="#149105" /><circle cx="7" cy="100" r="12" fill="#133e51" /><circle cx="65" cy="17" r="20" fill="#ed0208" /><circle cx="4" cy="31" r="15" fill="#af5087" /><circle cx="86" cy="55" r="17" fill="#6ad6a3" /><circle cx="66" cy="72" r="14" fill="#d187ee" /><circle cx="62" cy="27" r="18" fill="#8f7fed" /><circle cx="67" cy="24" r="12" fill="#3073c4" /><circle cx="43" cy="95" r="19" fill="#607bf3" /><circle cx="93" cy="95" r="18" fill="#20298c" /><circle cx="96" cy="49" r="13" fill="#bc2b4b" /><circle cx="21" cy="82" r="9" fill="#6e4ddc" /><circle cx="41" cy="49" r="5" fill="#138bfa" /><circle cx="72" cy="78" r="14" fill="#f659db" /><circle cx="71" cy="96" r="14" fill="#23046f" /><circle cx="45" cy="99" r="20" fill="#d15903" /><circle cx="52" cy="73" r="8" fill="#a3865e" /><circle cx="49" cy="99" r="7" fill="#14fe0d" /><circle cx="37" cy="67" r="13" fill="#43833b" /><circle cx="24" cy="38" r="13" fill="#b320fc" /><circle cx="100" cy="61" r="15" fill="#ffcd19" /><circle cx="54" cy="81" r="5" fill="#faebc6" /><circle cx="98" cy="79" r="19" fill="#2aab80" /><circle cx="59" cy="34" r="10" fill="#198c0a" /><circle cx="64" cy="30" r="14" fill="#539285" /><circle cx="68" cy="98" r="7" fill="#44bcc6" /><circle cx="30" cy="81" r="7" fill="#769bdc" /><circle cx="88" cy="24" r="20" fill="#1a270d" /><circle cx="39" cy="77" r="11" fill="#03cee4" /><circle cx="52" cy="24" r="12" fill="#4f1fad" /><circle cx="23" cy="79" r="7" fill="#44c1ad" /><circle cx="28" cy="82" r="10" fill="#95a33c" /><circle cx="56" cy="5" r="5" fill="#482680" /><circle cx="84" cy="86" r="8" fill="#047b0e" /><circle cx="51" cy="29" r="9" fill="#2b30dd" /><circle cx="63" cy="7" r="14" fill="#63b2b9" /><circle cx="45" cy="80" r="11" fill="#774ca1" /><circle cx="14" cy="13" r="9" fill="#c4e4a9" /><circle cx="27" cy="80" r="10" fill="#3d34a8" /><circle cx="63" cy="9" r="5" fill="#88f235" /><circle cx="34" cy="19" r="8" fill="#840e6c" /><circle cx="75" cy="28" r="17" fill="#98241a" /><circle cx="57" cy="56" r="5" fill="#671ce8" /><circle cx="59" cy="50" r="12" fill="#5b651f" /><circle cx="14" cy="97" r="20" fill="#b9f034" /><circle cx="95" cy="65" r="8" fill="#3ef4dc" /><circle cx="95" cy="37" r="18" fill="#ed96f4" /><circle cx="29" cy="46" r="8" fill="#07f560" /><circle cx="20" cy="88" r="16" fill="#81e7b6" /><circle cx="61" cy="65" r="8" fill="#9fe20b" /><circle cx="40" cy="32" r="15" fill="#7b2242" /><circle cx="44" cy="80" r="9" fill="#a0c104" /><circle cx="33" cy="27" r="8" fill="#1ec1cc" /><circle cx="13" cy="39" r="17" fill="#b3eb5b" /><circle cx="84" cy="42" r="20" fill="#04eb39" /><circle cx="96" cy="57" r="10" fill="#ccf602" /><circle cx="91" cy="64" r="16" fill="#67abe9" /><circle cx="4" cy="88" r="16" fill="#789256" /><circle cx="69" cy="26" r="8" fill="#d052cb" /><circle cx="1" cy="14" r="10" fill="#c60400" /><circle cx="56" cy="96" r="15" fill="#0a0e18" /><circle cx="46" cy="77" r="8" fill="#b7e8d4" /><circle cx="26" cy="26" r="19" fill="#456551" /><circle cx="58" cy="89" r="16" fill="#2c43b2" /><circle cx="89" cy="28" r="15" fill="#97507f" /><circle cx="50" cy="62" r="10" fill="#24ba94" /><circle cx="56" cy="25" r="13" fill="#7bb0e6" /><circle cx="81" cy="40" r="17" fill="#126c37" /><circle cx="67" cy="94" r="6" fill="#aad0c8" /><circle cx="98" cy="59" r="14" fill="#e60047" /><circle cx="81" cy="35" r="13" fill="#363035" /><circle cx="76" cy="83" r="14" fill="#ad374c" /><circle cx="10" cy="88" r="16" fill="#3f5405" /><circle cx="61" cy="32" r="10" fill="#adb5bf" /><circle cx="1" cy="57" r="10" fill="#fb8015" /><circle cx="12" cy="70" r="10" fill="#cf8ab7" /><circle cx="48" cy="70" r="11" fill="#e1c01b" /><circle cx="74" cy="68" r="14" fill="#6bddc0" /><circle cx="93" cy="59" r="13" fill="#2fd51f" /><circle cx="66" cy="73" r="19" fill="#28598b" /><circle cx="12" cy="92" r="17" fill="#7c514c" /><circle cx="11" cy="51" r="8" fill="#e6ec08" /><circle cx="19" cy="52" r="15" fill="#fef22b" /><circle cx="21" cy="95" r="9" fill="#240238" /><circle cx="75" cy="26" r="5" fill="#f01547" /><circle cx="58" cy="86" r="14" fill="#c16ce4" /><circle cx="72" cy="40" r="11" fill="#f73c37" /><circle cx="30" cy="87" r="10" fill="#89cc97" /><circle cx="10" cy="16" r="11" fill="#9e8f59" /><circle cx="24" cy="89" r="10" fill="#e7599c" /><circle cx="24" cy="23" r="5" fill="#012682" /><circle cx="76" cy="53" r="15" fill="#3f2caa" /><circle cx="27" cy="48" r="19" fill="#aa2cef" /><circle cx="91" cy="10" r="5" fill="#222e2f" /><circle cx="19" cy="56" r="6" fill="#0ada41" /><circle cx="22" cy="42" r="10" fill="#511d68" /><circle cx="42" cy="56" r="8" fill="#d0a254" /><circle cx="97" cy="69" r="12" fill="#0b63d3" /><circle cx="70" cy="68" r="8" fill="#146955" /><circle cx="5" cy="71" r="10" fill="#5ce0d9" /><circle cx="3" cy="18" r="14" fill="#53c823" /><circle cx="46" cy="50" r="7" fill="#7b5f66" /><circle cx="24" cy="82" r="6" fill="#9a3133" /><circle cx="41" cy="93" r="19" fill="#e7410f" /><circle cx="64" cy="21" r="10" fill="#3969fc" /><circle cx="54" cy="51" r="13" fill="#9ef76f" /><circle cx="33" cy="53" r="18" fill="#054d76" /><circle cx="68" cy="93" r="8" fill="#ec05b4" /><circle cx="14" cy="97" r="6" fill="#c70f59" /><circle cx="57" cy="12" r="17" fill="#61c1ee" /><circle cx="61" cy="88" r="11" fill="#7a9244" /><circle cx="20" cy="70" r="20" fill="#fdf122" /><circle cx="35" cy="5" r="18" fill="#f45f54" /><circle cx="65" cy="92" r="12" fill="#3dae4f" /><circle cx="80" cy="53" r="7" fill="#505617" /><circle cx="41" cy="99" r="16" fill="#fc7a73" /><circle cx="9" cy="64" r="16" fill="#344e9c" /><circle cx="32" cy="53" r="16" fill="#2a585e" /><circle cx="2" cy="32" r="6" fill="#9fa077" /><circle cx="50" cy="22" r="12" fill="#66b33b" /><circle cx="99" cy="23" r="5" fill="#3bf1a8" /><circle cx="34" cy="82" r="14" fill="#b5d9ec" /><circle cx="97" cy="4" r="9" fill="#233c4a" /><circle cx="30" cy="6" r="17" fill="#091bf7" /><circle cx="79" cy="55" r="14" fill="#f41d9f" /><circle cx="100" cy="6" r="15" fill="#33e0ac" /><circle cx="3" cy="59" r="11" fill="#5bc609" /><circle cx="40" cy="24" r="20" fill="#ac276d" /><circle cx="49" cy="49" r="8" fill="#9647fa" /><circle cx="68" cy="80" r="12" fill="#ffde28" /><circle cx="97" cy="39" r="5" fill="#c5c0a7" /><circle cx="80" cy="43" r="16" fill="#eed722" /><circle cx="42" cy="25" r="10" fill="#733816" /><circle cx="63" cy="29" r="5" fill="#8a8e85" /><circle cx="17" cy="68" r="5" fill="#c00cfe" /><circle cx="66" cy="8" r="11" fill="#f4221c" /><circle cx="64" cy="32" r="12" fill="#8e1f13" /><circle cx="98" cy="7" r="11" fill="#2d4475" /><circle cx="41" cy="27" r="10" fill="#fcba64" /><circle cx="0" cy="97" r="17" fill="#47f83e" /><circle cx="68" cy="69" r="10" fill="#d5e8ec" /><circle cx="52" cy="47" r="5" fill="#a559da" /><circle cx="16" cy="7" r="5" fill="#567201" /><circle cx="21" cy="59" r="12" fill="#375e36" /><circle cx="9" cy="12" r="12" fill="#ad8825" /><circle cx="63" cy="79" r="11" fill="#1fb36e" /><circle cx="67" cy="33" r="11" fill="#3af8ef" /><circle cx="79" cy="91" r="16" fill="#dd2fd4" /><circle cx="74" cy="45" r="7" fill="#3dcf21" /><circle cx="38" cy="30" r="12" fill="#a44dce" /><circle cx="56" cy="36" r="11" fill="#8be74d" /><circle cx="28" cy="65" r="20" fill="#e19b7d" /><circle cx="79" cy="81" r="5" fill="#8f79ec" /><circle cx="17" cy="95" r="15" fill="#04a014" /><circle cx="96" cy="11" r="12" fill="#cd0186" /><circle cx="73" cy="0" r="12" fill="#1f5015" /><circle cx="8" cy="38" r="16" fill="#2220f2" /><circle cx="68" cy="22" r="9" fill="#006081" /><circle cx="57" cy="55" r="6" fill="#d9cc07" /><circle cx="6" cy="68" r="7" fill="#829f64" /><circle cx="78" cy="72" r="10" fill="#4e2a6a" /><circle cx="98" cy="19" r="15" fill="#0d9c3f" /><circle cx="58" cy="4" r="6" fill="#163c02" /><circle cx="59" cy="44" r="5" fill="#f613fd" /><circle cx="11" cy="48" r="12" fill="#b77c27" /><circle cx="7" cy="53" r="11" fill="#890a34" /><circle cx="17" cy="7" r="13" fill="#e88fbc" /><circle cx="40" cy="23" r="9" fill="#aaad21" /><circle cx="88" cy="26" r="16" fill="#aedb51" /><circle cx="96" cy="38" r="10" fill="#873f8c" /><circle cx="53" cy="88" r="9" fill="#c904da" /><circle cx="60" cy="30" r="12" fill="#995aa9" /><circle cx="3" cy="12" r="9" fill="#885bf8" /><circle cx="57" cy="60" r="12" fill="#889a20" /><circle cx="23" cy="64" r="16" fill="#5cdf3b" /><circle cx="90" cy="79" r="6" fill="#873f05" /><circle cx="49" cy="21" r="8" fill="#f78be8" /><circle cx="61" cy="36" r="7" fill="#f61e03" /><circle cx="80" cy="31" r="7" fill="#56affb" /><circle cx="19" cy="51" r="10" fill="#52f163" /><circle cx="46" cy="71" r="7" fill="#9c21d6" /><circle cx="96" cy="77" r="19" fill="#96e8f6" /><circle cx="89" cy="2" r="18" fill="#a5c446" /><circle cx="15" cy="62" r="13" fill="#2a1dcc" /><circle cx="55" cy="38" r="10" fill="#827285" /><circle cx="93" cy="86" r="16" fill="#75c256" /><circle cx="54" cy="30" r="10" fill="#915bb0" /><circle cx="25" cy="83" r="14" fill="#318b92" /><circle cx="35" cy="39" r="20" fill="#b0e4a7" /><circle cx="71" cy="73" r="6" fill="#5fff74" /><circle cx="88" cy="84" r="13" fill="#70139c" /><circle cx="52" cy="43" r="7" fill="#8b9a77" /><circle cx="59" cy="1" r="6" fill="#3fa1ee" /><circle cx="11" cy="49" r="15" fill="#42d6c6" /><circle cx="3" cy="15" r="5" fill="#fd64ae" /><circle cx="74" cy="65" r="18" fill="#f57763" /><circle cx="63" cy="1" r="8" fill="#3f1253" /><circle cx="60" cy="77" r="6" fill="#d764f2" /><circle cx="84" cy="54" r="19" fill="#7f367b" /><circle cx="99" cy="68" r="14" fill="#becbd3" /><circle cx="89" cy="27" r="6" fill="#258d17" /><circle cx="33" cy="11" r="6" fill="#4f96c5" /><circle cx="91" cy="78" r="19" fill="#7d6a15" /><circle cx="60" cy="67" r="11" fill="#b9808d" /><circle cx="97" cy="63" r="16" fill="#8ab1b0" /><circle cx="57" cy="77" r="11" fill="#8f7202" /><circle cx="13" cy="57" r="9" fill="#2dcb13" /><circle cx="79" cy="95" r="11" fill="#723b08" /><circle cx="82" cy="82" r="20" fill="#cb14a5" /><circle cx="92" cy="20" r="14" fill="#0d3f4d" /><circle cx="85" cy="27" r="20" fill="#f77896" /><circle cx="55" cy="11" r="16" fill="#69b021" /><circle cx="19" cy="48" r="14" fill="#bd63c4" /><circle cx="76" cy="82" r="5" fill="#654dbb" /><circle cx="71" cy="20" r="18" fill="#e5ad36" /><circle cx="1" cy="51" r="8" fill="#85c831" /><circle cx="50" cy="56" r="15" fill="#62d3ea" /><circle cx="7" cy="53" r="9" fill="#867307" /><circle cx="61" cy="42" r="17" fill="#0f2f90" /><circle cx="56" cy="74" r="9" fill="#a185a5" /><circle cx="45" cy="62" r="20" fill="#ddd327" /><circle cx="15" cy="0" r="6" fill="#c17885" /><circle cx="12" cy="74" r="16" fill="#d021d0" /><circle cx="71" cy="78" r="11" fill="#c7387d" /><circle cx="0" cy="91" r="6" fill="#00723a" /><circle cx="58" cy="24" r="5" fill="#a6a907" /><circle cx="63" cy="59" r="18" fill="#3defb1" /><circle cx="3" cy="59" r="15" fill="#d82a4d" /><circle cx="78" cy="92" r="15" fill="#458c45" /><circle cx="26" cy="58" r="5" fill="#50d383" /><circle cx="36" cy="19" r="11" fill="#8a8560" /><circle cx="46" cy="4" r="20" fill="#f8a383" /><circle cx="59" cy="9" r="17" fill="#2a5d85" /><circle cx="49" cy="37" r="7" fill="#c1ef4e" /><circle cx="67" cy="76" r="17" fill="#a8b030" /><circle cx="10" cy="66" r="19" fill="#ba1b5f" /><circle cx="80" cy="67" r="20" fill="#1c436b" /><circle cx="18" cy="74" r="13" fill="#0c08f6" /><circle cx="11" cy="29" r="11" fill="#d7f495" /><circle cx="37" cy="72" r="9" fill="#07db0d" /><circle cx="40" cy="80" r="7" fill="#5ed195" /><circle cx="80" cy="48" r="6" fill="#aa0ff8" /><circle cx="41" cy="77" r="7" fill="#e6d5bc" /><circle cx="20" cy="81" r="7" fill="#0a82e9" /><circle cx="95" cy="45" r="10" fill="#728206" /><circle cx="24" cy="6" r="12" fill="#5b45a2" /><circle cx="97" cy="54" r="12" fill="#ab0aad" /><circle cx="81" cy="20" r="14" fill="#d0739f" /><circle cx="42" cy="30" r="12" fill="#13977e" /><circle cx="4" cy="78" r="8" fill="#b8bbd3" /><circle cx="42" cy="44" r="17" fill="#8714b8" /><circle cx="31" cy="13" r="12" fill="#0df1e5" /><circle cx="45" cy="82" r="9" fill="#b8af3a" /><circle cx="4" cy="53" r="8" fill="#ba8afa" /><circle cx="45" cy="74" r="18" fill="#c28bcb" /><circle cx="42" cy="53" r="18" fill="#c2f66b" /><circle cx="84" cy="17" r="19" fill="#c10d93" /><circle cx="81" cy="57" r="14" fill="#677b26" /><circle cx="38" cy="46" r="6" fill="#8749fd" /><circle cx="41" cy="34" r="10" fill="#173f04" /><circle cx="96" cy="81" r="13" fill="#5ce686" /><circle cx="11" cy="0" r="5" fill="#4734f6" /><circle cx="73" cy="33" r="8" fill="#227ad1" /><circle cx="55" cy="21" r="20" fill="#ff647b" /><circle cx="59" cy="42" r="19" fill="#9d9fd4" /><circle cx="0" cy="13" r="17" fill="#b119aa" /><circle cx="59" cy="36" r="6" fill="#cefcd1" /><circle cx="41" cy="27" r="17" fill="#aa5d99" /><circle cx="62" cy="57" r="18" fill="#4c5004" /><circle cx="64" cy="44" r="5" fill="#f4b140" /><circle cx="6" cy="52" r="11" fill="#4752e7" /><circle cx="21" cy="64" r="19" fill="#4b3d82" /><circle cx="64" cy="95" r="16" fill="#641bfc" /><circle cx="68" cy="40" r="13" fill="#47ae0e" /><circle cx="59" cy="50" r="10" fill="#8a5957" /><circle cx="40" cy="24" r="9" fill="#9ef35d" /><circle cx="98" cy="16" r="5" fill="#4b60e5" /><circle cx="50" cy="84" r="14" fill="#e589f7" /><circle cx="29" cy="64" r="8" fill="#9a81d1" /><circle cx="99" cy="44" r="19" fill="#8d457c" /><circle cx="14" cy="83" r="15" fill="#bd4a6e" /><circle cx="85" cy="34" r="10" fill="#c84af8" /><circle cx="71" cy="8" r="10" fill="#38689b" /><circle cx="7" cy="63" r="5" fill="#787787" /><circle cx="9" cy="96" r="8" fill="#e7c5d8" /><circle cx="83" cy="36" r="11" fill="#c05ce6" /><circle cx="49" cy="30" r="15" fill="#d68939" /><circle cx="77" cy="72" r="18" fill="#06f59c" /><circle cx="25" cy="53" r="15" fill="#c1b020" /><circle cx="88" cy="81" r="5" fill="#d1c57a" /><circle cx="65" cy="66" r="16" fill="#b33157" /><circle cx="79" cy="15" r="12" fill="#a19ec2" /><circle cx="72" cy="55" r="6" fill="#3c1da7" /><circle cx="92" cy="57" r="18" fill="#54bc4f" /><circle cx="18" cy="2" r="10" fill="#e0d0c4" /><circle cx="46" cy="15" r="20" fill="#1390d4" /><circle cx="85" cy="18" r="11" fill="#5ac0d1" /><circle cx="24" cy="36" r="6" fill="#2af1d5" /><circle cx="82" cy="1" r="17" fill="#032738" /><circle cx="37" cy="43" r="7" fill="#ee7f24" /><circle cx="27" cy="19" r="10" fill="#ec96f7" /><circle cx="30" cy="70" r="20" fill="#43c92a" /><circle cx="92" cy="21" r="15" fill="#a88433" /><circle cx="76" cy="68" r="9" fill="#97aba1" /><circle cx="84" cy="34" r="19" fill="#416165" /><circle cx="10" cy="49" r="13" fill="#b4f53a" /><circle cx="18" cy="44" r="15" fill="#2e799f" /><circle cx="53" cy="65" r="10" fill="#022bd8" /><circle cx="32" cy="7" r="8" fill="#1ddc6d" /><circle cx="70" cy="35" r="18" fill="#7348c0" /><circle cx="26" cy="95" r="17" fill="#bc2063" /><circle cx="49" cy="91" r="13" fill="#5023e5" /><circle cx="98" cy="13" r="6" fill="#6fb164" /><circle cx="36" cy="100" r="17" fill="#1fe072" /><circle cx="5" cy="53" r="7" fill="#bca3d0" /><circle cx="54" cy="30" r="10" fill="#3a3601" /><circle cx="82" cy="82" r="11" fill="#d45dd4" /><circle cx="91" cy="83" r="16" fill="#5dc29a" /><circle cx="15" cy="5" r="18" fill="#f86aca" /><circle cx="50" cy="0" r="9" fill="#45263b" /><circle cx="59" cy="50" r="7" fill="#203f8b" /><circle cx="72" cy="36" r="7" fill="#7d0a09" /><circle cx="10" cy="0" r="19" fill="#9467be" /><circle cx="99" cy="76" r="6" fill="#355c28" /><circle cx="51" cy="13" r="7" fill="#5ad97e" /><circle cx="37" cy="66" r="12" fill="#cb43f3" /><circle cx="6" cy="56" r="11" fill="#fb36c5" /><circle cx="20" cy="19" r="16" fill="#940b28" /><circle cx="18" cy="74" r="11" fill="#ef7589" /><circle cx="47" cy="82" r="14" fill="#a2c203" /><circle cx="28" cy="4" r="17" fill="#f7c49b" /><circle cx="2" cy="4" r="14" fill="#fdda4d" /><circle cx="53" cy="67" r="5" fill="#b7b331" /><circle cx="57" cy="68" r="15" fill="#e7ce8f" /><circle cx="10" cy="28" r="11" fill="#64c44c" /><circle cx="62" cy="3" r="13" fill="#5577e0" /><circle cx="2" cy="82" r="14" fill="#fe07e7" /><circle cx="99" cy="73" r="12" fill="#5d6c61" /><circle cx="47" cy="83" r="13" fill="#8a0039" /><circle cx="51" cy="81" r="11" fill="#a47e95" /><circle cx="5" cy="27" r="8" fill="#bc82f2" /><circle cx="33" cy="80" r="12" fill="#efc597" /><circle cx="20" cy="92" r="6" fill="#960327" /><circle cx="30" cy="47" r="10" fill="#b433dc" /><circle cx="88" cy="80" r="5" fill="#d9c4e0" /><circle cx="84" cy="76" r="14" fill="#f069db" /><circle cx="96" cy="19" r="20" fill="#1d6bd0" /><circle cx="21" cy="32" r="9" fill="#f5ee25" /><circle cx="20" cy="34" r="14" fill="#100e8b" /><circle cx="17" cy="69" r="20" fill="#62d96e" /><circle cx="23" cy="66" r="12" fill="#f0fb49" /><circle cx="50" cy="69" r="19" fill="#6782d9" /><circle cx="5" cy="77" r="6" fill="#9b4ab2" /><circle cx="76" cy="28" r="12" fill="#c67710" /><circle cx="58" cy="58" r="14" fill="#97c310" /><circle cx="81" cy="63" r="17" fill="#2daf5a" /><circle cx="34" cy="35" r="12" fill="#6b5106" /><circle cx="76" cy="97" r="14" fill="#f6cae8" /><circle cx="89" cy="96" r="12" fill="#374a2e" /><circle cx="61" cy="95" r="5" fill="#1a2812" /><circle cx="99" cy="98" r="7" fill="#3ba18b" /><circle cx="84" cy="46" r="6" fill="#104062" /><circle cx="33" cy="8" r="15" fill="#804b30" /><circle cx="14" cy="71" r="13" fill="#9edcd2" /><circle cx="73" cy="4" r="18" fill="#429aff" /><circle cx="55" cy="35" r="12" fill="#61ccea" /><circle cx="92" cy="61" r="8" fill="#051291" /><circle cx="64" cy="40" r="17" fill="#a2a467" /><circle cx="45" cy="21" r="5" fill="#0fa1c2" /><circle cx="63" cy="67" r="20" fill="#5f52de" /><circle cx="49" cy="48" r="14" fill="#a0ad84" /><circle cx="91" cy="98" r="13" fill="#1ab7a5" /><circle cx="16" cy="91" r="7" fill="#ed529e" /><circle cx="45" cy="44" r="9" fill="#7b876a" /><circle cx="82" cy="57" r="17" fill="#0d7dbe" /><circle cx="37" cy="75" r="14" fill="#2cca9f" /><circle cx="35" cy="72" r="7" fill="#549321" /><circle cx="39" cy="71" r="20" fill="#20fa7c" /><circle cx="64" cy="57" r="13" fill="#f36d5c" /><circle cx="33" cy="36" r="19" fill="#fdeabd" /><circle cx="97" cy="100" r="20" fill="#cbf0d8" /><circle cx="29" cy="52" r="20" fill="#2e2930" /><circle cx="51" cy="26" r="6" fill="#e99a54" /><circle cx="67" cy="84" r="19" fill="#a3f1c8" /><circle cx="29" cy="44" r="9" fill="#48c1ad" /><circle cx="96" cy="14" r="8" fill="#926786" /><circle cx="40" cy="74" r="7" fill="#4d92d9" /><circle cx="69" cy="54" r="8" fill="#fffff5" /><circle cx="66" cy="99" r="5" fill="#bac0af" /><circle cx="21" cy="63" r="13" fill="#11086f" /><circle cx="48" cy="89" r="9" fill="#07d243" /><circle cx="47" cy="72" r="14" fill="#3bb5cf" /><circle cx="15" cy="17" r="9" fill="#be335a" /><circle cx="14" cy="76" r="8" fill="#30d301" /><circle cx="75" cy="12" r="13" fill="#46b8d7" /><circle cx="72" cy="32" r="13" fill="#14d71a" /><circle cx="26" cy="19" r="12" fill="#2eab60" /><circle cx="46" cy="42" r="7" fill="#f2854c" /><circle cx="70" cy="85" r="16" fill="#9392d2" /><circle cx="62" cy="37" r="17" fill="#ca3de5" /><circle cx="7" cy="2" r="16" fill="#447e7c" /><circle cx="45" cy="41" r="18" fill="#e4fcc9" /><circle cx="32" cy="53" r="8" fill="#d10fcb" /><circle cx="95" cy="68" r="20" fill="#f9c76e" /><circle cx="91" cy="75" r="10" fill="#f9a205" /><circle cx="74" cy="76" r="5" fill="#16bb2d" /><circle cx="97" cy="15" r="5" fill="#7b3c6d" /><circle cx="70" cy="78" r="17" fill="#27c366" /><circle cx="84" cy="31" r="11" fill="#901763" /><circle cx="37" cy="82" r="13" fill="#5b4a51" /><circle cx="89" cy="79" r="18" fill="#e0975d" /><circle cx="27" cy="50" r="18" fill="#c74b86" /><circle cx="8" cy="23" r="20" fill="#0c7724" /><circle cx="65" cy="28" r="15" fill="#ceac85" /><circle cx="96" cy="53" r="12" fill="#dff339" /><circle cx="44" cy="94" r="11" fill="#d29d8b" /><circle cx="62" cy="92" r="9" fill="#e16265" /><circle cx="59" cy="76" r="5" fill="#5a6479" /><circle cx="44" cy="65" r="18" fill="#83720f" /><circle cx="35" cy="2" r="10" fill="#8b5994" /><circle cx="36" cy="62" r="16" fill="#2c888b" /><circle cx="6" cy="35" r="11" fill="#7fea56" /><circle cx="37" cy="8" r="19" fill="#7d9bb4" /><circle cx="31" cy="86" r="10" fill="#36f03a" /><circle cx="58" cy="63" r="18" fill="#5a27a0" /><circle cx="13" cy="33" r="20" fill="#272b58" /><circle cx="21" cy="48" r="15" fill="#e8c75a" /><circle cx="39" cy="45" r="6" fill="#e3b780" /><circle cx="73" cy="31" r="9" fill="#a372f3" /><circle cx="6" cy="75" r="9" fill="#cf1474" /><circle cx="51" cy="6" r="13" fill="#02055e" /><circle cx="36" cy="55" r="15" fill="#589305" /><circle cx="99" cy="5" r="13" fill="#95e8e0" /><circle cx="32" cy="7" r="10" fill="#f04e5a" /><circle cx="27" cy="96" r="15" fill="#10160c" /><circle cx="78" cy="32" r="14" fill="#9c297f" /><circle cx="49" cy="33" r="8" fill="#83dea6" /><circle cx="56" cy="43" r="7" fill="#8dffb0" /><circle cx="75" cy="15" r="13" fill="#d4719a" /><circle cx="7" cy="66" r="13" fill="#18f5bf" /><circle cx="72" cy="20" r="16" fill="#2ea1cd" /><circle cx="16" cy="96" r="11" fill="#a9d36b" /><circle cx="36" cy="42" r="20" fill="#322eb8" /><circle cx="6" cy="43" r="16" fill="#50d61e" /><circle cx="73" cy="6" r="13" fill="#68cee7" /><circle cx="2" cy="35" r="6" fill="#468e26" /><circle cx="97" cy="46" r="17" fill="#2d9518" /><circle cx="54" cy="68" r="13" fill="#c2ad7f" /><circle cx="78" cy="68" r="16" fill="#68b676" /><circle cx="23" cy="20" r="16" fill="#95c487" /><circle cx="69" cy="67" r="16" fill="#853478" /><circle cx="67" cy="70" r="14" fill="#30c2eb" /><circle cx="51" cy="62" r="5" fill="#094e21" /><circle cx="57" cy="10" r="14" fill="#3a2c0f" /><circle cx="26" cy="44" r="13" fill="#95358b" /><circle cx="68" cy="56" r="11" fill="#6e441a" /><circle cx="12" cy="64" r="17" fill="#cb1f6d" /><circle cx="5" cy="23" r="15" fill="#d7515b" /><circle cx="29" cy="72" r="7" fill="#199a02" /><circle cx="35" cy="86" r="17" fill="#3be601" /><circle cx="93" cy="87" r="17" fill="#fed9ab" /><circle cx="36" cy="83" r="17" fill="#be8bfa" /></svg>