<svg xmlns="http://www.w3.org/2000/svg" width="100" height="100"><circle cx="59" cy="18" r="10" fill="#3e9235" /><circle cx="75" cy="40" r="12" fill="#c960d2" /><circle cx="14" cy="60" r="18" fill="#f808dc" /><circle cx="92" cy="42" r="18" fill="#451d9e" /><circle cx="75" cy="16" r="17" fill="#e6f54c" /><circle cx="1" cy="97" r="15" fill="#0f21f8" /><circle cx="12" cy="39" r="8" fill="#a6f719" /><circle cx="16" cy="64" r="9" fill="#9db5c9" /><circle cx="19" cy="15" r="11" fill="#2be2d5" /><circle cx="10" cy="53" r="7" fill="#c4ecd2" /><circle cx="42" cy="92" r="14" fill="#78c549" /><circle cx="25" cy="21" r="18" fill="#625883" /><circle cx="15" cy="9" r="20" fill="#eeaebc" /><circle cx="51" cy="56" r="14" fill="#55c6c9" /><circle cx="55" cy="13" r="20" fill="#e2f1a7" /><circle cx="45" cy="41" r="9" fill="#92de6c" /><circle cx="28" cy="46" r="18" fill="#6e2eba" /><circle cx="89" cy="86" r="15" fill="#1192a5" /><circle cx="5" cy="19" r="5" fill="#1bb5f8" /><circle cx="42" cy="57" r="18" fill="#d4d0a3" /><circle cx="53" cy="49" r="8" fill="#ab0bbb" /><circle cx="97" cy="65" r="20" fill="#efcedb" /><circle cx="49" cy="62" r="19" fill="#9899d9" /><circle cx="22" cy="32" r="9" fill="#c69f20" /><circle cx="3" cy="24" r="11" fill="#17a1ac" /><circle cx="18" cy="51" r="8" fill="#fd0cb4" /><circle cx="12" cy="50" r="17" fill="#b6821d" /><circle cx="89" cy="75" r="18" fill="#93d2fd" /><circle cx="81" cy="33" r="11" fill="#f0cd8a" /><circle cx="73" cy="81" r="7" fill="#f243e6" /><circle cx="86" cy="54" r="10" fill="#912147" /><circle cx="30" cy="96" r="11" fill="#8cf5b5" /><circle cx="66" cy="43" r="19" fill="#e9e68b" /><circle cx="86" cy="18" r="17" fill="#16de5f" /><circle cx="3" cy="26" r="12" fill="#733e57" /><circle cx="68" cy="83" r="9" fill="#165ed1" /><circle cx="100" cy="75" r="8" fill="#52620f" /><circle cx="96" cy="62" r="19" fill="#440b05" /><circle cx="80" cy="88" r="11" fill="#d38868" /><circle cx="7" cy="68" r="14" fill="#8432b3" /><circle cx="35" cy="86" r="8" fill="#2923ec" /><circle cx="61" cy="45" r="19" fill="#a904ae" /><circle cx="32" cy="27" r="20" fill="#dfe70c" /><circle cx="49" cy="33" r="17" fill="#2b9d5f" /><circle cx="68" cy="3" r="16" fill="#b6a3b7" /><circle cx="61" cy="90" r="19" fill="#fa3f62" /><circle cx="24" cy="99" r="15" fill="#a8ba56" /><circle cx="65" cy="87" r="13" fill="#20d75b" /><circle cx="16" cy="79" r="14" fill="#d4bb5d" /><circle cx="1" cy="21" r="9" fill="#a1387c" /><circle cx="32" cy="58" r="12" fill="#6dcd2e" /><circle cx="53" cy="67" r="14" fill="#78f320" /><circle cx="3" cy="33" r="10" fill="#7d5007" /><circle cx="99" cy="84" r="15" fill="#5541b5" /><circle cx="17" cy="72" r="19" fill="#05e7be" /><circle cx="21" cy="6" r="13" fill="#930ce9" /><circle cx="84" cy="51" r="16" fill="#ca3075" /><circle cx="75" cy="98" r="9" fill="#edce0f" /><circle cx="96" cy="95" r="13" fill="#a2f965" /><circle cx="22" cy="96" r="7" fill="#c60417" /><circle cx="62" cy="20" r="19" fill="#e94e54" /><circle cx="62" cy="68" r="10" fill="#30bc45" /><circle cx="48" cy="82" r="18" fill="#026302" /><circle cx="75" cy="16" r="16" fill="#f50864" /><circle cx="36" cy="87" r="19" fill="#2e125b" /><circle cx="6" cy="65" r="6" fill="#fe99e7" /><circle cx="2" cy="80" r="14" fill="#49be45" /><circle cx="68" cy="82" r="6" fill="#ec6dd1" /><circle cx="64" cy="92" r="8" fill="#c0d0b4" /><circle cx="35" cy="57" r="18" fill="#5338b7" /><circle cx="10" cy="27" r="5" fill="#8a0703" /><circle cx="54" cy="30" r="14" fill="#eb8ab6" /><circle cx="32" cy="80" r="5" fill="#b06cad" /><circle cx="73" cy="7" r="6" fill="#90555f" /><circle cx="94" cy="89" r="13" fill="#bc2daa" /><circle cx="84" cy="62" r="17" fill="#e243c4" /><circle cx="30" cy="64" r="17" fill="#cd42c3" /><circle cx="95" cy="59" r="15" fill="#b1ba3b" /><circle cx="55" cy="75" r="17" fill="#e6a837" /><circle cx="86" cy="70" r="16" fill="#ae74bc" /><circle cx="50" cy="27" r="20" fill="#da9635" /><circle cx="5" cy="52" r="12" fill="#9ddb10" /><circle cx="81" cy="12" r="20" fill="#787b4f" /><circle cx="65" cy="84" r="14" fill="#3c216d" /><circle cx="48" cy="56" r="12" fill="#d1f5e4" /><circle cx="33" cy="62" r="17" fill="#aca2a8" /><circle cx="32" cy="61" r="10" fill="#380ee0" /><circle cx="62" cy="15" r="19" fill="#63c6ab" /><circle cx="37" cy="19" r="6" fill="#c107d2" /><circle cx="41" cy="85" r="9" fill="#fc12b1" /><circle cx="19" cy="43" r="20" fill="#1c88c7" /><circle cx="93" cy="10" r="14" fill="#35e559" /><circle cx="31" cy="14" r="18" fill="#a54cd6" /><circle cx="87" cy="60" r="11" fill="#8ed97c" /><circle cx="92" cy="65" r="18" fill="#3d1631" /><circle cx="88" cy="84" r="8" fill="#c57c64" /><circle cx="9" cy="9" r="7" fill="#d28557" /><circle cx="61" cy="63" r="8" fill="#612326" /><circle cx="91" cy="1" r="17" fill="#10ea75" /><circle cx="91" cy="11" r="9" fill="#52be92" /><circle cx="35" cy="18" r="10" fill="#50cc86" /><circle cx="4" cy="32" r="20" fill="#1e21f9" /><circle cx="51" cy="66" r="11" fill="#fc4f28" /><circle cx="21" cy="66" r="8" fill="#7004b5" /><circle cx="75" cy="40" r="6" fill="#79f831" /><circle cx="55" cy="80" r="11" fill="#6294e9" /><circle cx="94" cy="74" r="5" fill="#1089f2" /><circle cx="6" cy="50" r="8" fill="#68ed93" /><circle cx="60" cy="88" r="13" fill="#14e2ce" /><circle cx="85" cy="83" r="9" fill="#e87237" /><circle cx="88" cy="38" r="20" fill="#e31fd2" /><circle cx="72" cy="81" r="18" fill="#079c95" /><circle cx="45" cy="41" r="17" fill="#251f9f" /><circle cx="66" cy="47" r="17" fill="#412c9f" /><circle cx="3" cy="78" r="5" fill="#c15de7" /><circle cx="6" cy="75" r="14" fill="#9099d9" /><circle cx="6" cy="30" r="13" fill="#1a92ac" /><circle cx="17" cy="7" r="14" fill="#b24234" /><circle cx="19" cy="27" r="11" fill="#a18b1e" /><circle cx="79" cy="78" r="8" fill="#dbceaf" /><circle cx="74" cy="42" r="11" fill="#2051f9" /><circle cx="33" cy="61" r="13" fill="#302f58" /><circle cx="47" cy="38" r="16" fill="#eeb633" /><circle cx="65" cy="39" r="12" fill="#4afdde" /><circle cx="79" cy="74" r="19" fill="#7e3860" /><circle cx="40" cy="68" r="18" fill="#6dc84b" /><circle cx="100" cy="27" r="19" fill="#4c576a" /><circle cx="37" cy="86" r="14" fill="#7b5aa8" /><circle cx="41" cy="57" r="11" fill="#af0a3d" /><circle cx="44" cy="67" r="18" fill="#189167" /><circle cx="33" cy="37" r="6" fill="#216832" /><circle cx="12" cy="28" r="20" fill="#ffa893" /><circle cx="71" cy="26" r="6" fill="#aa4fc0" /><circle cx="64" cy="5" r="8" fill="#a48c14" /><circle cx="75" cy="43" r="6" fill="#4d6177" /><circle cx="13" cy="95" r="11" fill="#482d45" /><circle cx="65" cy="11" r="12" fill="#afef5c" /><circle cx="94" cy="71" r="5" fill="#b7668d" /><circle cx="95" cy="11" r="6" fill="#3d1536" /><circle cx="31" cy="32" r="10" fill="#21953b" /><circle cx="23" cy="61" r="14" fill="#042db2" /><circle cx="8" cy="45" r="15" fill="#de0042" /><circle cx="17" cy="99" r="10" fill="#142e4e" /><circle cx="55" cy="90" r="7" fill="#7acf4c" /><circle cx="93" cy="38" r="12" fill="#80b69f" /><circle cx="94" cy="6" r="13" fill="#cc340a" /><circle cx="93" cy="90" r="11" fill="#3e6d22" /><circle cx="79" cy="13" r="10" fill="#22af44" /><circle cx="96" cy="27" r="18" fill="#ed83ba" /><circle cx="23" cy="12" r="15" fill="#b2efe1" /><circle cx="68" cy="2" r="9" fill="#e8ae9a" /><circle cx="20" cy="84" r="5" fill="#c9cceb" /><circle cx="29" cy="17" r="9" fill="#bf436f" /><circle cx="95" cy="99" r="15" fill="#9d961d" /><circle cx="69" cy="53" r="10" fill="#c0fc30" /><circle cx="7" cy="69" r="10" fill="#72e655" /><circle cx="64" cy="1" r="11" fill="#cfc548" /><circle cx="88" cy="16" r="12" fill="#4dece3" /><circle cx="43" cy="19" r="16" fill="#aaa5b7" /><circle cx="94" cy="18" r="5" fill="#073c6b" /><circle cx="33" cy="19" r="5" fill="#cb4f36" /><circle cx="51" cy="62" r="20" fill="#b005a6" /><circle cx="76" cy="95" r="11" fill="#5a3d88" /><circle cx="62" cy="72" r="8" fill="#d38636" /><circle cx="19" cy="79" r="6" fill="#81ffd7" /><circle cx="42" cy="74" r="14" fill="#57a82f" /><circle cx="65" cy="82" r="6" fill="#e609ad" /><circle cx="33" cy="13" r="11" fill="#b869c5" /><circle cx="8" cy="38" r="16" fill="#a92116" /><circle cx="39" cy="61" r="10" fill="#9ceb32" /><circle cx="16" cy="98" r="18" fill="#26bf15" /><circle cx="53" cy="73" r="14" fill="#592f12" /><circle cx="83" cy="44" r="15" fill="#9ea01e" /><circle cx="57" cy="7" r="17" fill="#83a404" /><circle cx="17" cy="41" r="10" fill="#29c7f7" /><circle cx="15" cy="99" r="7" fill="#df0dca" /><circle cx="47" cy="25" r="16" fill="#c907fa" /><circle cx="39" cy="22" r="10" fill="#7a3bcf" /><circle cx="82" cy="19" r="11" fill="#9b66e6" /><circle cx="54" cy="38" r="13" fill="#44df6b" /><circle cx="42" cy="25" r="7" fill="#fc814c" /><circle cx="40" cy="35" r="12" fill="#b2f26d" /><circle cx="24" cy="84" r="8" fill="#581982" /><circle cx="85" cy="25" r="17" fill="#579c06" /><circle cx="40" cy="2" r="16" fill="#065483" /><circle cx="54" cy="48" r="12" fill="#9a4118" /><circle cx="16" cy="33" r="8" fill="#f9a3c6" /><circle cx="17" cy="50" r="14" fill="#e99919" /><circle cx="91" cy="8" r="5" fill="#fff2c4" /><circle cx="44" cy="40" r="12" fill="#5e5661" /><circle cx="67" cy="79" r="9" fill="#b4d7c2" /><circle cx="16" cy="21" r="17" fill="#6b11d5" /><circle cx="3" cy="45" r="14" fill="#e68933" /><circle cx="16" cy="68" r="5" fill="#ecc542" /><circle cx="20" cy="5" r="16" fill="#314772" /><circle cx="72" cy="31" r="5" fill="#113631" /><circle cx="26" cy="50" r="18" fill="#a61501" /><circle cx="63" cy="13" r="8" fill="#4a391e" /><circle cx="57" cy="3" r="17" fill="#86e313" /><circle cx="51" cy="84" r="9" fill="#c8e3d9" /><circle cx="50" cy="18" r="11" fill="#968bd8" /><circle cx="99" cy="16" r="17" fill="#614507" /><circle cx="10" cy="10" r="16" fill="#3f4a92" /><circle cx="77" cy="37" r="8" fill="#fb30ca" /><circle cx="68" cy="60" r="6" fill="#dc780b" /><circle cx="8" cy="23" r="7" fill="#583b18" /><circle cx="4" cy="90" r="11" fill="#670b6c" /><circle cx="9" cy="66" r="18" fill="#793594" /><circle cx="92" cy="25" r="17" fill="#45c9df" /><circle cx="100" cy="4" r="9" fill="#b68252" /><circle cx="40" cy="52" r="14" fill="#922b2e" /><circle cx="61" cy="45" r="8" fill="#98497f" /><circle cx="29" cy="5" r="9" fill="#facaab" /><circle cx="39" cy="34" r="18" fill="#c98089" /><circle cx="10" cy="57" r="15" fill="#b59e30" /><circle cx="27" cy="3" r="17" fill="#12c6b6" /><circle cx="65" cy="30" r="8" fill="#d32660" /><circle cx="5" cy="23" r="8" fill="#bf02e4" /><circle cx="78" cy="21" r="7" fill="#d134ff" /><circle cx="60" cy="87" r="7" fill="#29303d" /><circle cx="1" cy="89" r="15" fill="#0f6e77" /><circle cx="52" cy="17" r="13" fill="#39c94a" /><circle cx="59" cy="50" r="14" fill="#f4ce8e" /><circle cx="54" cy="52" r="6" fill="#86bf34" /><circle cx="51" cy="48" r="9" fill="#067740" /><circle cx="63" cy="23" r="20" fill="#7d88c7" /><circle cx="43" cy="89" r="15" fill="#4e272e" /><circle cx="37" cy="62" r="16" fill="#c6176b" /><circle cx="43" cy="46" r="18" fill="#27b342" /><circle cx="61" cy="11" r="10" fill="#20e107" /><circle cx="53" cy="63" r="10" fill="#688c9d" /><circle cx="99" cy="55" r="12" fill="#f75cd3" /><circle cx="33" cy="30" r="15" fill="#dd9f85" /><circle cx="97" cy="68" r="5" fill="#f34d2a" /><circle cx="7" cy="50" r="9" fill="#deb4bd" /><circle cx="63" cy="25" r="8" fill="#66f8de" /><circle cx="15" cy="32" r="7" fill="#09de65" /><circle cx="20" cy="16" r="6" fill="#95d5df" /><circle cx="41" cy="22" r="8" fill="#5968a4" /><circle cx="42" cy="75" r="13" fill="#4365d4" /><circle cx="26" cy="4" r="6" fill="#994568" /><circle cx="78" cy="69" r="17" fill="#147e3c" /><circle cx="56" cy="18" r="14" fill="#04ae59" /><circle cx="42" cy="79" r="7" fill="#ef41f8" /><circle cx="80" cy="19" r="16" fill="#859566" /><circle cx="4" cy="100" r="7" fill="#26f16e" /><circle cx="36" cy="20" r="19" fill="#ec8402" /><circle cx="4" cy="25" r="9" fill="#81b861" /><circle cx="61" cy="77" r="6" fill="#0b8887" /><circle cx="52" cy="67" r="5" fill="#0e3322" /><circle cx="97" cy="3" r="13" fill="#b6bfb7" /><circle cx="81" cy="53" r="14" fill="#0ee18d" /><circle cx="24" cy="58" r="18" fill="#0f334a" /><circle cx="37" cy="56" r="11" fill="#865b85" /><circle cx="56" cy="76" r="8" fill="#5f4693" /><circle cx="47" cy="92" r="20" fill="#1a9c26" /><circle cx="60" cy="48" r="15" fill="#3f4a46" /><circle cx="79" cy="23" r="5" fill="#826ae0" /><circle cx="13" cy="77" r="16" fill="#4aaee4" /><circle cx="69" cy="43" r="15" fill="#80e2f1" /><circle cx="65" cy="18" r="16" fill="#167758" /><circle cx="49" cy="18" r="9" fill="#e45a69" /><circle cx="24" cy="40" r="8" fill="#2a1280" /><circle cx="79" cy="89" r="6" fill="#0bb718" /><circle cx="68" cy="58" r="10" fill="#f2532f" /><circle cx="48" cy="54" r="12" fill="#cf5416" /><circle cx="28" cy="36" r="14" fill="#d24bfa" /><circle cx="35" cy="47" r="16" fill="#73da94" /><circle cx="99" cy="28" r="13" fill="#fff627" /><circle cx="64" cy="7" r="9" fill="#7f0e51" /><circle cx="74" cy="58" r="9" fill="#358db9" /><circle cx="16" cy="57" r="14" fill="#72efd0" /><circle cx="83" cy="70" r="12" fill="#03cbd3" /><circle cx="39" cy="53" r="6" fill="#6e3b22" /><circle cx="45" cy="40" r="5" fill="#3e4972" /><circle cx="71" cy="45" r="5" fill="#7a61d7" /><circle cx="64" cy="82" r="16" fill="#d9bf0f" /><circle cx="14" cy="44" r="15" fill="#8aa151" /><circle cx="9" cy="46" r="8" fill="#3e5739" /><circle cx="32" cy="57" r="8" fill="#743f4b" /><circle cx="24" cy="90" r="12" fill="#20c1ce" /><circle cx="19" cy="95" r="8" fill="#6c8042" /><circle cx="10" cy="28" r="7" fill="#82c443" /><circle cx="27" cy="33" r="12" fill="#bd0d5a" /><circle cx="2" cy="24" r="11" fill="#0cd7eb" /><circle cx="53" cy="79" r="11" fill="#be028c" /><circle cx="12" cy="38" r="6" fill="#86fdde" /><circle cx="50" cy="58" r="18" fill="#ace3f5" /><circle cx="21" cy="8" r="17" fill="#5d4ac9" /><circle cx="52" cy="66" r="9" fill="#fe5555" /><circle cx="25" cy="51" r="5" fill="#5aab88" /><circle cx="49" cy="76" r="10" fill="#43eeab" /><circle cx="54" cy="9" r="20" fill="#ab0952" /><circle cx="30" cy="75" r="14" fill="#be6e16" /><circle cx="46" cy="77" r="7" fill="#5f5320" /><circle cx="83" cy="90" r="12" fill="#2b63f0" /><circle cx="66" cy="25" r="20" fill="#3de602" /><circle cx="42" cy="87" r="15" fill="#a2dc00" /><circle cx="24" cy="85" r="19" fill="#4a1f72" /><circle cx="97" cy="45" r="10" fill="#e0fd8d" /><circle cx="41" cy="33" r="18" fill="#1bb847" /><circle cx="82" cy="53" r="5" fill="#f36d36" /><circle cx="19" cy="85" r="9" fill="#21e166" /><circle cx="2" cy="90" r="15" fill="#9335a0" /><circle cx="24" cy="75" r="7" fill="#d9d0c7" /><circle cx="54" cy="99" r="6" fill="#4c32a3" /><circle cx="64" cy="13" r="14" fill="#543227" /><circle cx="69" cy="73" r="17" fill="#c1bdf3" /><circle cx="2" cy="58" r="15" fill="#e2ba4e" /><circle cx="1" cy="38" r="5" fill="#9de91e" /><circle cx="67" cy="53" r="15" fill="#f187da" /><circle cx="87" cy="63" r="10" fill="#1b7df7" /><circle cx="11" cy="21" r="16" fill="#ee4335" /><circle cx="30" cy="50" r="16" fill="#637b82" /><circle cx="56" cy="3" r="18" fill="#889dc0" /><circle cx="73" cy="67" r="12" fill="#63bd53" /><circle cx="69" cy="23" r="16" fill="#54f221" /><circle cx="69" cy="27" r="7" fill="#87a686" /><circle cx="14" cy="18" r="20" fill="#691643" /><circle cx="76" cy="16" r="20" fill="#f40b7e" /><circle cx="45" cy="1" r="12" fill="#21ec27" /><circle cx="37" cy="87" r="9" fill="#d2dc9f" /><circle cx="70" cy="88" r="17" fill="#37f851" /><circle cx="14" cy="19" r="19" fill="#7eafcf" /><circle cx="56" cy="52" r="5" fill="#cd9440" /><circle cx="1" cy="84" r="20" fill="#c7c1f3" /><circle cx="34" cy="70" r="14" fill="#244f17" /><circle cx="22" cy="92" r="9" fill="#fd74f0" /><circle cx="71" cy="37" r="18" fill="#a9eadb" /><circle cx="11" cy="49" r="6" fill="#b3667c" /><circle cx="71" cy="86" r="19" fill="#c1d4bc" /><circle cx="82" cy="2" r="6" fill="#36c576" /><circle cx="60" cy="1" r="11" fill="#8afa63" /><circle cx="74" cy="14" r="16" fill="#313a74" /><circle cx="34" cy="3" r="15" fill="#80675a" /><circle cx="80" cy="61" r="8" fill="#09124e" /><circle cx="74" cy="61" r="7" fill="#989685" /><circle cx="2" cy="64" r="5" fill="#ab6c33" /><circle cx="2" cy="9" r="9" fill="#6a8556" /><circle cx="30" cy="95" r="16" fill="#e6265a" /><circle cx="2" cy="41" r="16" fill="#f12804" /><circle cx="67" cy="18" r="9" fill="#6e7002" /><circle cx="99" cy="41" r="6" fill="#bad580" /><circle cx="37" cy="62" r="11" fill="#24c025" /><circle cx="52" cy="56" r="7" fill="#2b91ad" /><circle cx="65" cy="27" r="19" fill="#54f5e2" /><circle cx="45" cy="62" r="20" fill="#f39100" /><circle cx="17" cy="28" r="9" fill="#f7fbe2" /><circle cx="62" cy="75" r="18" fill="#fa191d" /><circle cx="1" cy="87" r="12" fill="#35a221" /><circle cx="77" cy="5" r="15" fill="#c07e37" /><circle cx="96" cy="36" r="9" fill="#0e40b4" /><circle cx="78" cy="12" r="17" fill="#737070" /><circle cx="100" cy="81" r="10" fill="#3c917f" /><circle cx="9" cy="49" r="6" fill="#737bf2" /><circle cx="32" cy="78" r="12" fill="#614d09" /><circle cx="14" cy="52" r="8" fill="#a2e2b2" /><circle cx="81" cy="52" r="11" fill="#505426" /><circle cx="16" cy="65" r="12" fill="#34f2a6" /><circle cx="8" cy="19" r="7" fill="#f092a9" /><circle cx="40" cy="91" r="11" fill="#9403d2" /><circle cx="14" cy="38" r="6" fill="#ee9545" /><circle cx="34" cy="90" r="7" fill="#9ff5ac" /><circle cx="43" cy="3" r="20" fill="#332684" /><circle cx="43" cy="80" r="10" fill="#15e374" /><circle cx="59" cy="41" r="20" fill="#1e4518" /><circle cx="89" cy="0" r="20" fill="#faf1f6" /><circle cx="27" cy="60" r="11" fill="#09104c" /><circle cx="6" cy="61" r="12" fill="#6436c9" /><circle cx="87" cy="73" r="11" fill="#904e73" /><circle cx="68" cy="40" r="20" fill="#38e198" /><circle cx="69" cy="38" r="15" fill="#afaba4" /><circle cx="93" cy="74" r="8" fill="#91a541" /><circle cx="66" cy="4" r="13" fill="#62b73f" /><circle cx="13" cy="57" r="14" fill="#e4b005" /><circle cx="99" cy="75" r="7" fill="#6826eb" /><circle cx="8" cy="66" r="8" fill="#83d53c" /><circle cx="35" cy="95" r="5" fill="#783395" /><circle cx="27" cy="67" r="12" fill="#3ac837" /><circle cx="69" cy="16" r="10" fill="#dcb880" /><circle cx="48" cy="15" r="12" fill="#afe04d" /><circle cx="15" cy="42" r="5" fill="#8b4c38" /><circle cx="16" cy="59" r="10" fill="#af8e8e" /><circle cx="42" cy="30" r="20" fill="#8d60b1" /><circle cx="68" cy="8" r="7" fill="#82ad7c" /><circle cx="42" cy="40" r="7" fill="#d87011" /><circle cx="73" cy="69" r="12" fill="#fe3246" /><circle cx="32" cy="27" r="17" fill="#c04840" /><circle cx="45" cy="80" r="19" fill="#7627ca" /><circle cx="42" cy="42" r="19" fill="#39ed72" /><circle cx="67" cy="52" r="15" fill="#b10107" /><circle cx="65" cy="29" r="7" fill="#6588d2" /><circle cx="76" cy="54" r="14" fill="#ae9f8c" /><circle cx="63" cy="44" r="10" fill="#ca67e8" /><circle cx="22" cy="47" r="6" fill="#635eb2" /><circle cx="14" cy="97" r="16" fill="#c09037" /><circle cx="99" cy="84" r="6" fill="#b747dd" /><circle cx="58" cy="74" r="12" fill="#c603fa" /><circle cx="81" cy="61" r="18" fill="#9a2665" /><circle cx="86" cy="0" r="11" fill="#46e41b" /><circle cx="56" cy="38" r="6" fill="#3458b5" /><circle cx="28" cy="48" r="15" fill="#cecfe7" /><circle cx="33" cy="63" r="18" fill="#b968d5" /><circle cx="56" cy="56" r="9" fill="#a3ba6b" /><circle cx="88" cy="38" r="20" fill="#bb6747" /><circle cx="60" cy="28" r="6" fill="#8c0eaa" /><circle cx="17" cy="1" r="6" fill="#c96e0f" /><circle cx="13" cy="47" r="8" fill="#0ad008" /><circle cx="22" cy="79" r="7" fill="#bba9c2" /><circle cx="69" cy="23" r="11" fill="#d7542e" /><circle cx="19" cy="54" r="12" fill="#c986c7" /><circle cx="40" cy="11" r="19" fill="#20f224" /><circle cx="65" cy="31" r="12" fill="#d74b90" /><circle cx="97" cy="36" r="12" fill="#14ae8d" /><circle cx="84" cy="97" r="16" fill="#dd3f2f" /><circle cx="25" cy="11" r="16" fill="#313de7" /><circle cx="98" cy="86" r="12" fill="#076b9b" /><circle cx="30" cy="42" r="7" fill="#364ed7" /><circle cx="1" cy="36" r="19" fill="#194214" /><circle cx="68" cy="87" r="15" fill="#d35227" /><circle cx="19" cy="47" r="14" fill="#16b5fa" /><circle cx="10" cy="40" r="13" fill="#d3b843" /><circle cx="86" cy="2" r="16" fill="#85c3fc" /><circle cx="98" cy="40" r="19" fill="#a4ec4f" /><circle cx="93" cy="98" r="15" fill="#20c811" /><circle cx="90" cy="97" r="8" fill="#ef4e7c" /><circle cx="58" cy="65" r="20" fill="#397dd6" /><circle cx="39" cy="19" r="9" fill="#4bfa45" /><circle cx="60" cy="13" r="18" fill="#00d8e5" /><circle cx="49" cy="38" r="13" fill="#2c68c3" /><circle cx="83" cy="62" r="5" fill="#cc2593" /><circle cx="87" cy="1" r="7" fill="#458b88" /><circle cx="97" cy="53" r="11" fill="#58646a" /><circle cx="58" cy="28" r="15" fill="#7bf9d6" /><circle cx="19" cy="27" r="16" fill="#e5781b" /><circle cx="28" cy="97" r="10" fill="#cd3190" /><circle cx="42" cy="83" r="6" fill="#83889a" /><circle cx="81" cy="5" r="12" fill="#985f68" /><circle cx="1" cy="70" r="19" fill="#e00e51" /><circle cx="42" cy="12" r="14" fill="#987c1e" /><circle cx="71" cy="80" r="19" fill="#48d1b9" /><circle cx="41" cy="62" r="6" fill="#c6df0e" /><circle cx="49" cy="76" r="8" fill="#e44111" /><circle cx="44" cy="96" r="15" fill="#84d3e0" /><circle cx="86" cy="55" r="8" fill="#3e7d04" /><circle cx="72" cy="89" r="6" fill="#56209f" /><circle cx="55" cy="37" r="8" fill="#80e8ce" /><circle cx="83" cy="57" r="10" fill="#7b09fc" /><circle cx="36" cy="100" r="15" fill="#137b59" /><circle cx="33" cy="49" r="5" fill="#ce6699" /><circle cx="72" cy="38" r="5" fill="#d50755" /><circle cx="93" cy="42" r="18" fill="#37462c" /><circle cx="55" cy="80" r="11" fill="#1a78ee" /><circle cx="55" cy="8" r="7" fill="#aa1c17" /><circle cx="63" cy="2" r="8" fill="#b9c2ed" /><circle cx="73" cy="7" r="9" fill="#9a2a7a" /><circle cx="14" cy="53" r="16" fill="#6858cc" /><circle cx="76" cy="44" r="14" fill="#1d7095" /><circle cx="15" cy="85" r="15" fill="#fd5951" /><circle cx="35" cy="31" r="20" fill="#3ef5f5" /><circle cx="65" cy="15" r="10" fill="#19af2e" /><circle cx="12" cy="17" r="13" fill="#74689b" /><circle cx="25" cy="68" r="11" fill="#651970" /><circle cx="50" cy="7" r="16" fill="#1c8874" /><circle cx="76" cy="48" r="13" fill="#f85d0d" /><circle cx="30" cy="37" r="8" fill="#72545c" /><circle cx="98" cy="96" r="13" fill="#cbf918" /><circle cx="93" cy="15" r="7" fill="#3753f6" /><circle cx="12" cy="0" r="10" fill="#d706cd" /><circle cx="47" cy="32" r="5" fill="#ffce4c" /><circle cx="64" cy="88" r="18" fill="#82ec74" /><circle cx="67" cy="48" r="11" fill="#173bec" /><circle cx="52" cy="45" r="14" fill="#a995cf" /><circle cx="18" cy="99" r="9" fill="#a7e6fd" /><circle cx="69" cy="5" r="12" fill="#e6f21c" /><circle cx="40" cy="51" r="11" fill="#9ae47d" /><circle cx="49" cy="86" r="18" fill="#b88003" /><circle cx="15" cy="91" r="10" fill="#135b78" /><circle cx="81" cy="38" r="7" fill="#e21037" /><circle cx="54" cy="2" r="16" fill="#ca0979" /><circle cx="85" cy="48" r="13" fill="#b5881a" /><circle cx="16" cy="8" r="20" fill="#147765" /><circle cx="38" cy="5" r="13" fill="#7562c8" /><circle cx="74" cy="14" r="6" fill="#4a3beb" /><circle cx="86" cy="33" r="13" fill="#565f92" /><circle cx="83" cy="46" r="13" fill="#ff8d62" /><circle cx="99" cy="75" r="16" fill="#0073ed" /><circle cx="98" cy="62" r="11" fill="#708f78" /><circle cx="97" cy="85" r="18" fill="#0acebe" /><circle cx="0" cy="5" r="16" fill="#5969b2" /><circle cx="56" cy="99" r="6" fill="#8c730f" /><circle cx="28" cy="88" r="19" fill="#6146f2" /><circle cx="82" cy="52" r="11" fill="#20031b" /><circle cx="89" cy="86" r="19" fill="#01c83d" /><circle cx="54" cy="66" r="7" fill="#a63125" /><circle cx="88" cy="73" r="17" fill="#6ec93f" /><circle cx="61" cy="88" r="15" fill="#d41bdb" /><circle cx="82" cy="97" r="5" fill="#45b09d" /><circle cx="85" cy="32" r="19" fill="#312441" /><circle cx="74" cy="39" r="5" fill="#1067bf" /><circle cx="12" cy="28" r="20" fill="#77cb10" /><circle cx="98" cy="42" r="18" fill="#2d1158" /><circle cx="29" cy="97" r="19" fill="#954894" /><circle cx="85" cy="87" r="14" fill="#cdd630" /><circle cx="46" cy="53" r="17" fill="#3cab23" /><circle cx="57" cy="85" r="19" fill="#71de38" /><circle cx="54" cy="76" r="10" fill="#9e5d32" /><circle cx="9" cy="67" r="14" fill="#71eed2" /><circle cx="75" cy="67" r="8" fill="#d29121" /><circle cx="31" cy="12" r="17" fill="#8dd51b" /><circle cx="16" cy="58" r="19" fill="#9787c8" /><circle cx="30" cy="7" r="13" fill="#a80bec" /><circle cx="47" cy="4" r="5" fill="#e01034" /><circle cx="91" cy="32" r="20" fill="#a01daf" /><circle cx="30" cy="48" r="19" fill="#942ffb" /><circle cx="86" cy="95" r="15" fill="#0d9fde" /><circle cx="96" cy="97" r="14" fill="#1a3cbe" /><circle cx="71" cy="7" r="15" fill="#b0e074" /><circle cx="99" cy="9" r="5" fill="#80976e" /><circle cx="52" cy="5" r="14" fill="#17b511" /><circle cx="63" cy="24" r="18" fill="#c8eeb0" /><circle cx="47" cy="59" r="15" fill="#f5ee69" /><circle cx="59" cy="70" r="11" fill="#f2f898" /><circle cx="63" cy="26" r="11" fill="#a9cc59" /><circle cx="73" cy="90" r="13" fill="#74b12a" /><circle cx="92" cy="24" r="15" fill="#eb24d5" /><circle cx="91" cy="91" r="10" fill="#622237" /><circle cx="12" cy="58" r="19" fill="#49542f" /><circle cx="4" cy="69" r="20" fill="#8b92df" /><circle cx="98" cy="39" r="20" fill="#6d637a" /><circle cx="50" cy="61" r="8" fill="#0acbf5" /><circle cx="13" cy="45" r="6" fill="#6e09f5" /><circle cx="11" cy="5" r="7" fill="#af8d80" /><circle cx="48" cy="21" r="5" fill="#a25bd9" /><circle cx="36" cy="18" r="13" fill="#2089e2" /><circle cx="91" cy="4" r="16" fill="#0d14d6" /><circle cx="73" cy="23" r="12" fill="#5a7bc6" /><circle cx="38" cy="51" r="10" fill="#6b3bb2" /><circle cx="87" cy="39" r="11" fill="#1b8204" /><circle cx="17" cy="83" r="16" fill="#95897b" /><circle cx="1" cy="94" r="8" fill="#f72490" /><circle cx="91" cy="93" r="9" fill="#0699a7" /><circle cx="50" cy="11" r="11" fill="#041ca1" /><circle cx="76" cy="70" r="8" fill="#28786f" /><circle cx="74" cy="16" r="6" fill="#b4a011" /><circle cx="30" cy="26" r="8" fill="#65f7f9" /><circle cx="18" cy="55" r="18" fill="#72b2d9" /><circle cx="38" cy="49" r="13" fill="#3a3d34" /><circle cx="18" cy="29" r="13" fill="#295eba" /><circle cx="30" cy="92" r="12" fill="#814dbb" /><circle cx="4" cy="24" r="14" fill="#7e3833" /><circle cx="66" cy="70" r="19" fill="#8b464b" /><circle cx="23" cy="20" r="7" fill="#864138" /><circle cx="72" cy="68" r="8" fill="#7d0f7e" /><circle cx="16" cy="53" r="9" fill="#e8f85f" /><circle cx="39" cy="31" r="20" fill="#607198" /><circle cx="9" cy="67" r="5" fill="#4c2d57" /><circle cx="68" cy="54" r="6" fill="#f60b35" /><circle cx="77" cy="94" r="5" fill="#649d77" /><circle cx="47" cy="12" r="16" fill="#ee4581" /><circle cx="69" cy="2" r="6" fill="#bdc32e" /><circle cx="30" cy="56" r="14" fill="#dbb1a8" /><circle cx="25" cy="99" r="19" fill="#a4931c" /><circle cx="66" cy="93" r="14" fill="#1b8909" /><circle cx="70" cy="1" r="9" fill="#afdf17" /><circle cx="5" cy="6" r="7" fill="#1c2027" /><circle cx="5" cy="96" r="16" fill="#795f62" /><circle cx="58" cy="24" r="7" fill="#01146f" /><circle cx="34" cy="7" r="14" fill="#14bf05" /><circle cx="79" cy="53" r="14" fill="#7a03b4" /><circle cx="77" cy="41" r="6" fill="#262ba1" /><circle cx="45" cy="27" r="5" fill="#d3e892" /><circle cx="88" cy="54" r="9" fill="#4a52f7" /><circle cx="13" cy="84" r="14" fill="#14caf0" /><circle cx="44" cy="92" r="18" fill="#a78c0b" /><circle cx="91" cy="55" r="15" fill="#bd4aed" /><circle cx="67" cy="33" r="17" fill="#2e01f3" /><circle cx="28" cy="30" r="15" fill="#bc18de" /><circle cx="76" cy="29" r="19" fill="#da3fd8" /><circle cx="88" cy="18" r="16" fill="#e57af2" /><circle cx="55" cy="90" r="12" fill="#acd82f" /><circle cx="16" cy="94" r="20" fill="#af4f16" /><circle cx="22" cy="27" r="17" fill="#7d8342" /><circle cx="36" cy="77" r="11" fill="#f476c4" /><circle cx="52" cy="91" r="14" fill="#646190" /><circle cx="54" cy="2" r="17" fill="#9fad34" /><circle cx="75" cy="14" r="20" fill="#adaf09" /><circle cx="94" cy="11" r="16" fill="#6e704e" /><circle cx="8" cy="46" r="12" fill="#9a0630" /><circle cx="0" cy="11" r="7" fill="#56b43e" /><circle cx="8" cy="92" r="19" fill="#8771d5" /><circle cx="34" cy="18" r="17" fill="#5b112a" /><circle cx="13" cy="50" r="20" fill="#ec8c88" /><circle cx="6" cy="5" r="9" fill="#858306" /><circle cx="66" cy="68" r="14" fill="#813dc7" /><circle cx="36" cy="6" r="20" fill="#ca71ec" /><circle cx="82" cy="81" r="17" fill="#f4527f" /><circle cx="55" cy="92" r="11" fill="#845602" /><circle cx="49" cy="39" r="19" fill="#e23015" /><circle cx="70" cy="7" r="9" fill="#0a57ba" /><circle cx="93" cy="99" r="5" fill="#fd4e79" /><circle cx="72" cy="35" r="12" fill="#3ff03f" /><circle cx="69" cy="29" r="5" fill="#6b103a" /><circle cx="78" cy="80" r="15" fill="#0090fa" /><circle cx="72" cy="55" r="10" fill="#6ff21b" /><circle cx="32" cy="46" r="15" fill="#87e828" /><circle cx="98" cy="31" r="18" fill="#6d7881" /><circle cx="31" cy="45" r="10" fill="#43a8f8" /><circle cx="35" cy="99" r="14" fill="#c5f96e" /><circle cx="59" cy="33" r="6" fill="#a2fa9b" /><circle cx="19" cy="35" r="18" fill="#6d1683" /><circle cx="14" cy="31" r="14" fill="#097439" /><circle cx="66" cy="3" r="17" fill="#cbb5f4" /><circle cx="32" cy="43" r="16" fill="#d154de" /><circle cx="99" cy="89" r="14" fill="#a9032c" /><circle cx="55" cy="57" r="7" fill="#2cf4da" /><circle cx="19" cy="97" r="20" fill="#4b7f2a" /><circle cx="83" cy="23" r="11" fill="#db86f2" /><circle cx="36" cy="22" r="12" fill="#4bc243" /><circle cx="12" cy="100" r="14" fill="#10f73c" /><circle cx="4" cy="74" r="14" fill="#0ed39c" /><circle cx="66" cy="96" r="14" fill="#a1541c" /><circle cx="36" cy="45" r="16" fill="#e6c81a" /><circle cx="45" cy="10" r="12" fill="#42b1ae" /><circle cx="58" cy="31" r="9" fill="#53c179" /><circle cx="11" cy="28" r="14" fill="#d67d10" /><circle cx="28" cy="56" r="14" fill="#e66656" /><circle cx="31" cy="28" r="19" fill="#c9fe79" /><circle cx="41" cy="11" r="17" fill="#50b60f" /><circle cx="15" cy="28" r="19" fill="#1ce673" /><circle cx="65" cy="24" r="11" fill="#5e12d1" /><circle cx="96" cy="27" r="12" fill="#b317bf" /><circle cx="39" cy="100" r="16" fill="#3e472e" /><circle cx="39" cy="41" r="16" fill="#05b2db" /><circle cx="21" cy="23" r="5" fill="#5e0a16" /><circle cx="59" cy="59" r="10" fill="#d62093" /><circle cx="30" cy="72" r="12" fill="#2fc99b" /><circle cx="100" cy="34" r="6" fill="#deed85" /><circle cx="58" cy="76" r="13" fill="#b7e361" /><circle cx="82" cy="90" r="16" fill="#9e84b4" /><circle cx="92" cy="39" r="11" fill="#dc3cb7" /><circle cx="1" cy="93" r="13" fill="#ca13a7" /><circle cx="13" cy="47" r="20" fill="#0d0d65" /><circle cx="94" cy="94" r="9" fill="#037dee" /><circle cx="39" cy="26" r="16" fill="#ded442" /><circle cx="34" cy="99" r="15" fill="#f95853" /><circle cx="74" cy="55" r="8" fill="#0ffc9c" /><circle cx="66" cy="66" r="5" fill="#bababe" /><circle cx="64" cy="9" r="17" fill="#0662b1" /><circle cx="5" cy="71" r="14" fill="#be3af5" /><circle cx="18" cy="4" r="9" fill="#60562c" /><circle cx="15" cy="49" r="6" fill="#d8025f" /><circle cx="63" cy="55" r="5" fill="#e19fa9" /><circle cx="66" cy="98" r="10" fill="#6b3b6a" /><circle cx="57" cy="25" r="15" fill="#c25562" /><circle cx="51" cy="43" r="8" fill="#1deaa1" /><circle cx="44" cy="18" r="15" fill="#c72b20" /><circle cx="43" cy="87" r="11" fill="#275397" /><circle cx="45" cy="8" r="6" fill="#749f0f" /><circle cx="44" cy="77" r="13" fill="#efe7d5" /><circle cx="46" cy="51" r="8" fill="#61b3e8" /><circle cx="84" cy="76" r="17" fill="#13cf88" /><circle cx="76" cy="97" r="12" fill="#c41fe2" /><circle cx="20" cy="73" r="12" fill="#af3a88" /><circle cx="70" cy="57" r="10" fill="#7062c2" /><circle cx="63" cy="45" r="20" fill="#5a2930" /><circle cx="7" cy="50" r="13" fill="#314579" /><circle cx="85" cy="37" r="6" fill="#206373" /><circle cx="36" cy="46" r="16" fill="#fd172c" /><circle cx="7" cy="80" r="7" fill="#8b9e57" /><circle cx="88" cy="1" r="6" fill="#9356fa" /><circle cx="93" cy="17" r="7" fill="#09350b" /><circle cx="77" cy="30" r="17" fill="#02968a" /><circle cx="52" cy="46" r="17" fill="#b1be18" /><circle cx="54" cy="81" r="19" fill="#2eb8a7" /><circle cx="1" cy="59" r="12" fill="#31ef63" /><circle cx="18" cy="28" r="13" fill="#bd0f83" /><circle cx="2" cy="35" r="17" fill="#98da96" /><circle cx="79" cy="52" r="15" fill="#a56c36" /><circle cx="84" cy="40" r="5" fill="#2420ea" /><circle cx="72" cy="1" r="13" fill="#9439a9" /><circle cx="70" cy="86" r="15" fill="#d42e1a" /><circle cx="51" cy="15" r="11" fill="#1f2992" /><circle cx="16" cy="50" r="5" fill="#b1b0f0" /><circle cx="66" cy="54" r="15" fill="#934844" /><circle cx="41" cy="100" r="11" fill="#cf755a" /><circle cx="80" cy="60" r="18" fill="#6a725d" /><circle cx="98" cy="50" r="8" fill="#4865a5" /><circle cx="70" cy="29" r="14" fill="#497108" /><circle cx="55" cy="94" r="17" fill="#8d0c1d" /><circle cx="59" cy="27" r="12" fill="#f3c3ce" /><circle cx="21" cy="32" r="19" fill="#4d650b" /><circle cx="20" cy="89" r="5" fill="#ef5c58" /><circle cx="98" cy="40" r="10" fill="#a4e234" /><circle cx="91" cy="22" r="18" fill="#b26100" /><circle cx="55" cy="49" r="15" fill="#33eef1" /><circle cx="97" cy="58" r="7" fill="#c5d705" /><circle cx="85" cy="41" r="17" fill="#471ccd" /><circle cx="59" cy="63" r="9" fill="#a389dc" /><circle cx="64" cy="85" r="13" fill="#9a2275" /><circle cx="73" cy="18" r="13" fill="#9b5499" /><circle cx="35" cy="92" r="19" fill="#1a329a" /><circle cx="18" cy="11" r="12" fill="#e18bdb" /><circle cx="39" cy="59" r="5" fill="#5a9dc9" /><circle cx="99" cy="71" r="16" fill="#30f0fe" /><circle cx="60" cy="87" r="20" fill="#d98299" /><circle cx="80" cy="6" r="18" fill="#42becb" /><circle cx="85" cy="22" r="6" fill="#f39368" /><circle cx="61" cy="52" r="16" fill="#d99eaf" /><circle cx="56" cy="49" r="12" fill="#75c1ee" /><circle cx="63" cy="12" r="6" fill="#abfc18" /><circle cx="100" cy="60" r="13" fill="#4e99df" /><circle cx="47" cy="89" r="11" fill="#1de970" /><circle cx="9" cy="62" r="5" fill="#688d9f" /><circle cx="39" cy="54" r="12" fill="#f60630" /><circle cx="30" cy="52" r="9" fill="#0eb2a6" /><circle cx="57" cy="20" r="6" fill="#9a6ae6" /><circle cx="84" cy="45" r="5" fill="#fd6063" /><circle cx="78" cy="16" r="11" fill="#ebf93b" /><circle cx="71" cy="48" r="6" fill="#8af318" /><circle cx="76" cy="23" r="16" fill="#81436e" /><circle cx="38" cy="1" r="20" fill="#986947" /><circle cx="54" cy="15" r="9" fill="#d5382e" /><circle cx="58" cy="43" r="10" fill="#89fba0" /><circle cx="27" cy="6" r="7" fill="#7600e6" /><circle cx="24" cy="48" r="14" fill="#8aedd6" /><circle cx="50" cy="12" r="5" fill="#628d03" /><circle cx="20" cy="99" r="6" fill="#1bbd51" /><circle cx="77" cy="41" r="8" fill="#28f217" /><circle cx="50" cy="95" r="10" fill="#8990a0" /><circle cx="78" cy="75" r="13" fill="#9d0ce8" /><circle cx="27" cy="55" r="8" fill="#c0630e" /><circle cx="32" cy="74" r="19" fill="#79263b" /><circle cx="21" cy="32" r="12" fill="#dc0b73" /><circle cx="19" cy="98" r="11" fill="#3f0629" /><circle cx="46" cy="3" r="20" fill="#bd0cc2" /><circle cx="0" cy="87" r="13" fill="#a44077" /><circle cx="28" cy="87" r="12" fill="#e1ab6c" /><circle cx="50" cy="63" r="11" fill="#17a51a" /><circle cx="80" cy="42" r="8" fill="#fbc6ba" /><circle cx="49" cy="58" r="18" fill="#c49feb" /><circle cx="22" cy="56" r="14" fill="#985def" /><circle cx="55" cy="100" r="15" fill="#587b07" /><circle cx="63" cy="50" r="13" fill="#791983" /><circle cx="100" cy="77" r="12" fill="#9a3e7d" /><circle cx="77" cy="66" r="7" fill="#aa922c" /><circle cx="1" cy="24" r="5" fill="#26e9a0" /><circle cx="11" cy="25" r="12" fill="#2c9dd7" /><circle cx="93" cy="4" r="12" fill="#6e07f6" /><circle cx="77" cy="51" r="8" fill="#b2e03e" /><circle cx="76" cy="8" r="10" fill="#250b5d" /><circle cx="94" cy="26" r="19" fill="#a99b8d" /><circle cx="54" cy="41" r="12" fill="#e10918" /><circle cx="94" cy="95" r="16" fill="#4515d6" /><circle cx="39" cy="47" r="15" fill="#15d1f9" /><circle cx="51" cy="1" r="13" fill="#a92544" /><circle cx="77" cy="90" r="19" fill="#de80c3" /><circle cx="62" cy="31" r="14" fill="#79d3ed" /><circle cx="16" cy="63" r="18" fill="#0ecdfa" /><circle cx="82" cy="75" r="20" fill="#871acd" /><circle cx="4" cy="54" r="5" fill="#7a7a12" /><circle cx="98" cy="36" r="7" fill="#f0dc39" /><circle cx="94" cy="69" r="10" fill="#51280d" /><circle cx="73" cy="43" r="10" fill="#800f23" /><circle cx="28" cy="37" r="16" fill="#7946aa" /><circle cx="15" cy="0" r="18" fill="#a2f08b" /><circle cx="86" cy="42" r="17" fill="#da5fc5" /><circle cx="89" cy="45" r="8" fill="#513a86" /><circle cx="55" cy="7" r="8" fill="#1157f2" /><circle cx="52" cy="19" r="12" fill="#0b7fe1" /><circle cx="3" cy="90" r="17" fill="#351cf4" /><circle cx="23" cy="3" r="19" fill="#67d703" /><circle cx="11" cy="75" r="10" fill="#08eecc" /><circle cx="77" cy="50" r="15" fill="#f0b01e" /><circle cx="47" cy="48" r="6" fill="#dc738d" /><circle cx="17" cy="92" r="5" fill="#6f46af" /><circle cx="43" cy="9" r="9" fill="#942847" /><circle cx="4" cy="58" r="5" fill="#1d29a5" /><circle cx="7" cy="93" r="19" fill="#954cab" /><circle cx="23" cy="6" r="12" fill="#2c0afc" /><circle cx="1" cy="10" r="18" fill="#bb5758" /><circle cx="41" cy="40" r="12" fill="#396d14" /><circle cx="29" cy="100" r="12" fill="#06abce" /><circle cx="23" cy="100" r="16" fill="#6eb8b5" /><circle cx="92" cy="73" r="9" fill="#697fbe" /><circle cx="99" cy="29" r="6" fill="#eb72d3" /><circle cx="1" cy="0" r="17" fill="#21bf7f" /><circle cx="33" cy="28" r="8" fill="#101fab" /><circle cx="4" cy="0" r="6" fill="#77c830" /><circle cx="56" cy="34" r="6" fill="#35f1ab" /><circle cx="71" cy="41" r="13" fill="#2ab85f" /><circle cx="63" cy="36" r="6" fill="#0e0d35" /><circle cx="40" cy="63" r="11" fill="#b733c7" /><circle cx="69" cy="31" r="18" fill="#884dcf" /><circle cx="75" cy="42" r="13" fill="#3c7a5d" /><circle cx="35" cy="12" r="18" fill="#4e55dc" /><circle cx="19" cy="21" r="12" fill="#4ac24a" /><circle cx="98" cy="93" r="16" fill="#f209d2" /><circle cx="60" cy="46" r="14" fill="#d92a4e" /><circle cx="94" cy="84" r="14" fill="#533508" /><circle cx="93" cy="16" r="20" fill="#cf5e00" /><circle cx="86" cy="50" r="18" fill="#92d774" /><circle cx="39" cy="79" r="8" fill="#b74f03" /><circle cx="90" cy="86" r="12" fill="#ad7d40" /><circle cx="25" cy="49" r="17" fill="#9de9e0" /><circle cx="14" cy="25" r="8" fill="#8b414e" /><circle cx="90" cy="77" r="20" fill="#d6f39b" /><circle cx="33" cy="62" r="14" fill="#cda9a7" /><circle cx="91" cy="63" r="8" fill="#a69641" /><circle cx="86" cy="23" r="11" fill="#5cc6ec" /><circle cx="29" cy="96" r="5" fill="#e429a5" /><circle cx="32" cy="98" r="10" fill="#6008d9" /><circle cx="98" cy="82" r="19" fill="#5da013" /><circle cx="62" cy="42" r="12" fill="#af4f8d" /><circle cx="37" cy="24" r="10" fill="#8abae3" /><circle cx="82" cy="46" r="11" fill="#5677f4" /><circle cx="85" cy="65" r="10" fill="#e7ad54" /><circle cx="65" cy="21" r="20" fill="#207a14" /><circle cx="93" cy="49" r="6" fill="#a363cb" /><circle cx="63" cy="38" r="13" fill="#a39c3d" /><circle cx="80" cy="44" r="7" fill="#10e513" /><circle cx="87" cy="56" r="19" fill="#fa6911" /><circle cx="94" cy="92" r="6" fill="#37ab49" /><circle cx="8" cy="59" r="18" fill="#5ee80a" /><circle cx="69" cy="28" r="20" fill="#8de6e7" /><circle cx="10" cy="56" r="14" fill="#36cb0d" /><circle cx="34" cy="81" r="13" fill="#e053c8" /><circle cx="77" cy="56" r="16" fill="#7a135e" /><circle cx="74" cy="88" r="15" fill="#0af1c4" /><circle cx="84" cy="20" r="6" fill="#eab20a" /><circle cx="75" cy="73" r="5" fill="#bf012c" /><circle cx="9" cy="58" r="6" fill="#1527ab" /><circle cx="42" cy="21" r="5" fill="#55a7d0" /><circle cx="66" cy="24" r="16" fill="#efa0f5" /><circle cx="39" cy="79" r="17" fill="#41b6be" /><circle cx="51" cy="11" r="18" fill="#75371d" /><circle cx="39" cy="100" r="12" fill="#6336d0" /><circle cx="3" cy="16" r="12" fill="#10b10a" /><circle cx="95" cy="95" r="6" fill="#44113b" /><circle cx="69" cy="22" r="20" fill="#8c21c9" /><circle cx="18" cy="94" r="16" fill="#fd6575" /><circle cx="100" cy="98" r="16" fill="#a32606" /><circle cx="68" cy="76" r="7" fill="#a934c4" /><circle cx="42" cy="26" r="11" fill="#33e1ef" /><circle cx="97" cy="8" r="19" fill="#c4c507" /><circle cx="86" cy="57" r="11" fill="#06ed8b" /><circle cx="98" cy="9" r="19" fill="#6c51af" /><circle cx="90" cy="1" r="10" fill="#b90f08" /><circle cx="47" cy="10" r="9" fill="#a149ec" /><circle cx="15" cy="51" r="15" fill="#18c17b" /><circle cx="96" cy="95" r="16" fill="#3f3b09" /><circle cx="11" cy="31" r="12" fill="#faac2f" /><circle cx="62" cy="13" r="15" fill="#67b318" /><circle cx="94" cy="65" r="5" fill="#d337ad" /><circle cx="2" cy="70" r="12" fill="#6b5686" /><circle cx="50" cy="80" r="12" fill="#a21806" /><circle cx="92" cy="22" r="9" fill="#6f4b6f" /><circle cx="13" cy="52" r="5" fill="#ed2d34" /><circle cx="0" cy="67" r="8" fill="#71e59d" /><circle cx="16" cy="84" r="7" fill="#b99475" /><circle cx="86" cy="87" r="12" fill="#67f2c2" /><circle cx="20" cy="99" r="8" fill="#7f6186" /><circle cx="71" cy="85" r="5" fill="#0e3958" /><circle cx="25" cy="63" r="18" fill="#ff5abc" /><circle cx="90" cy="58" r="8" fill="#9542da" /><circle cx="91" cy="25" r="17" fill="#f6204e" /><circle cx="1" cy="32" r="5" fill="#93d336" /><circle cx="93" cy="79" r="16" fill="#729b3c" /><circle cx="11" cy="67" r="13" fill="#2ae7c3" /><circle cx="14" cy="90" r="7" fill="#53cf38" /><circle cx="1" cy="87" r="6" fill="#1908a0" /><circle cx="4" cy="0" r="15" fill="#1b9055" /><circle cx="67" cy="88" r="8" fill="#ebd21e" /><circle cx="4" cy="7" r="14" fill="#33d425" /><circle cx="65" cy="14" r="15" fill="#215e81" /><circle cx="73" cy="17" r="16" fill="#aaef5b" /><circle cx="73" cy="32" r="9" fill="#0b6438" /><circle cx="81" cy="11" r="14" fill="#95d09c" /><circle cx="70" cy="31" r="6" fill="#8d875e" /><circle cx="69" cy="35" r="15" fill="#26e9de" /><circle cx="90" cy="68" r="14" fill="#6b6131" /><circle cx="35" cy="40" r="20" fill="#4feb56" /><circle cx="93" cy="92" r="19" fill="#0cfc23" /><circle cx="29" cy="0" r="10" fill="#fc322f" /><circle cx="74" cy="35" r="5" fill="#14523a" /><circle cx="31" cy="99" r="11" fill="#3249a6" /><circle cx="73" cy="12" r="14" fill="#0b7bd2" /><circle cx="80" cy="68" r="16" fill="#13428a" /><circle cx="9" cy="63" r="17" fill="#84a64f" /><circle cx="46" cy="83" r="5" fill="#c99a7e" /><circle cx="44" cy="83" r="14" fill="#54269d" /><circle cx="54" cy="28" r="14" fill="#05714b" /><circle cx="13" cy="32" r="15" fill="#321031" /><circle cx="8" cy="21" r="15" fill="#8c0877" /><circle cx="25" cy="25" r="9" fill="#bdefc4" /><circle cx="53" cy="40" r="19" fill="#383c33" /><circle cx="20" cy="83" r="11" fill="#2d64af" /><circle cx="4" cy="49" r="18" fill="#927c39" /><circle cx="89" cy="81" r="11" fill="#05d1e3" /><circle cx="72" cy="57" r="9" fill="#1c8c27" /><circle cx="23" cy="9" r="13" fill="#4b1fc7" /><circle cx="13" cy="70" r="11" fill="#87f808" /><circle cx="94" cy="22" r="17" fill="#a055ec" /><circle cx="4" cy="59" r="11" fill="#f891e8" /><circle cx="83" cy="53" r="5" fill="#4d18b6" /><circle cx="96" cy="75" r="18" fill="#473801" /><circle cx="4" cy="52" r="19" fill="#6ed1b8" /><circle cx="69" cy="4" r="9" fill="#143716" /><circle cx="91" cy="30" r="19" fill="#ba7e3e" /><circle cx="91" cy="83" r="14" fill="#d0ce2b" /><circle cx="20" cy="0" r="8" fill="#aff6f9" /><circle cx="26" cy="17" r="14" fill="#ca9e0e" /><circle cx="49" cy="70" r="10" fill="#150e4c" /><circle cx="89" cy="30" r="8" fill="#ec042f" /><circle cx="54" cy="53" r="9" fill="#d051cf" /><circle cx="20" cy="28" r="19" fill="#0a92a3" /><circle cx="5" cy="32" r="8" fill="#3dec00" /><circle cx="89" cy="28" r="7" fill="#700339" /><circle cx="43" cy="78" r="13" fill="#d09b54" /><circle cx="35" cy="99" r="6" fill="#8bd01c" /><circle cx="20" cy="53" r="5" fill="#2ec725" /><circle cx="96" cy="68" r="18" fill="#62403f" /><circle cx="76" cy="14" r="10" fill="#986fc3" /><circle cx="4" cy="1" r="10" fill="#78834d" /><circle cx="54" cy="62" r="20" fill="#e80317" /><circle cx="0" cy="38" r="17" fill="#8bcb38" /><circle cx="26" cy="76" r="8" fill="#c0199d" /><circle cx="18" cy="63" r="13" fill="#c65da7" /><circle cx="49" cy="0" r="12" fill="#f37c00" /><circle cx="10" cy="23" r="13" fill="#750669" /><circle cx="77" cy="99" r="14" fill="#0fda6a" /><circle cx="2" cy="78" r="8" fill="#0ae316" /><circle cx="67" cy="48" r="12" fill="#b74cf2" /><circle cx="34" cy="100" r="17" fill="#25a7ae" /><circle cx="49" cy="75" r="14" fill="#bb096b" /><circle cx="19" cy="87" r="6" fill="#205197" /><circle cx="59" cy="74" r="5" fill="#662f49" /><circle cx="38" cy="70" r="7" fill="#f228b9" /><circle cx="74" cy="77" r="11" fill="#950e6d" /><circle cx="37" cy="14" r="18" fill="#a869c5" /><circle cx="95" cy="50" r="20" fill="#f7ef27" /><circle cx="14" cy="10" r="11" fill="#5d56dd" /><circle cx="52" cy="56" r="10" fill="#528ba0" /><circle cx="0" cy="77" r="18" fill="#8337bd" /><circle cx="43" cy="64" r="15" fill="#738fdd" /><circle cx="84" cy="76" r="10" fill="#5284d0" /><circle cx="75" cy="61" r="6" fill="#50050d" /><circle cx="36" cy="75" r="15" fill="#f24de1" /><circle cx="9" cy="59" r="17" fill="#9a1d53" /><circle cx="76" cy="53" r="15" fill="#145527" /><circle cx="69" cy="23" r="14" fill="#7c0cdd" /><circle cx="27" cy="99" r="20" fill="#eb40f4" /><circle cx="59" cy="7" r="14" fill="#35146d" /><circle cx="1" cy="17" r="11" fill="#12d5d5" /><circle cx="25" cy="54" r="10" fill="#94101c" /><circle cx="66" cy="28" r="13" fill="#d75e2d" /><circle cx="64" cy="31" r="16" fill="#6dd39c" /><circle cx="80" cy="83" r="19" fill="#4ea56c" /><circle cx="43" cy="44" r="14" fill="#99c7e6" /><circle cx="6" cy="99" r="9" fill="#c5b4a1" /><circle cx="24" cy="43" r="14" fill="#2adcdc" /><circle cx="23" cy="38" r="19" fill="#b5e918" /><circle cx="80" cy="67" r="15" fill="#09e494" /><circle cx="55" cy="69" r="9" fill="#b31238" /><circle cx="14" cy="43" r="11" fill="#f1ae7d" /><circle cx="26" cy="54" r="10" fill="#359540" /><circle cx="80" cy="53" r="14" fill="#0a3d9a" /><circle cx="82" cy="57" r="5" fill="#5d06e8" /><circle cx="5" cy="16" r="12" fill="#5e6203" /></svg>